SplineFontDB: 3.2
FontName: RobotoLegacy-BlackItalic
FullName: Roboto Legacy Black Italic
FamilyName: Roboto Legacy Black
Weight: Black
Copyright: Font data copyright Google 2011
Version: 1.00000; 2011
ItalicAngle: 0
UnderlinePosition: -200
UnderlineWidth: 100
Ascent: 1536
Descent: 512
InvalidEm: 0
sfntRevision: 0x00010000
LayerCount: 2
Layer: 0 1 "Back" 1
Layer: 1 1 "Fore" 0
XUID: [1021 474 -1613799265 4825]
StyleMap: 0x0021
FSType: 4
OS2Version: 3
OS2_WeightWidthSlopeOnly: 0
OS2_UseTypoMetrics: 0
CreationTime: 1221222574
ModificationTime: 1744076498
PfmFamily: 81
TTFWeight: 900
TTFWidth: 5
LineGap: 0
VLineGap: 0
Panose: 0 0 0 0 0 0 0 0 0 0
OS2TypoAscent: 1536
OS2TypoAOffset: 0
OS2TypoDescent: -512
OS2TypoDOffset: 0
OS2TypoLinegap: 102
OS2WinAscent: 1946
OS2WinAOffset: 0
OS2WinDescent: 512
OS2WinDOffset: 0
HheadAscent: 1900
HheadAOffset: 0
HheadDescent: -500
HheadDOffset: 0
OS2SubXSize: 1434
OS2SubYSize: 1331
OS2SubXOff: 0
OS2SubYOff: 287
OS2SupXSize: 1434
OS2SupYSize: 1331
OS2SupXOff: 0
OS2SupYOff: 977
OS2StrikeYSize: 102
OS2StrikeYPos: 512
OS2CapHeight: 1456
OS2XHeight: 1082
OS2Vendor: 'pyrs'
OS2CodePages: 2000019f.4f010000
OS2UnicodeRanges: e00002ef.5000205b.00000020.00000000
Lookup: 1 0 0 "'smcp' Lowercase to Small Capitals lookup 0" { "'smcp' Lowercase to Small Capitals lookup 0 subtable"  } ['smcp' ('DFLT' <'dflt' > ) ]
Lookup: 4 0 1 "'liga' Standard Ligatures lookup 1" { "'liga' Standard Ligatures lookup 1 subtable"  } ['liga' ('DFLT' <'dflt' > ) ]
Lookup: 258 0 0 "'kern' Horizontal Kerning lookup 0" { "'kern' Horizontal Kerning lookup 0 per glyph data 0"  "'kern' Horizontal Kerning lookup 0 per glyph data 1"  "'kern' Horizontal Kerning lookup 0 per glyph data 2"  "'kern' Horizontal Kerning lookup 0 kerning class 3"  } ['kern' ('DFLT' <'dflt' > ) ]
MarkAttachClasses: 1
DEI: 91125
KernClass2: 32+ 29 "'kern' Horizontal Kerning lookup 0 kerning class 3"

StartChar: exclam
Encoding: 33 33 4
Width: 565
GlyphClass: 1
Flags: W
LayerCount: 2
Fore
SplineSet
451 516 m 1,0,-1
 112 516 l 1,1,-1
 253 1456 l 1,2,-1
 592 1456 l 1,3,-1
 451 516 l 1,0,-1
374 0 m 1,4,-1
 35 0 l 1,5,-1
 77 283 l 1,6,-1
 416 283 l 1,7,-1
 374 0 l 1,4,-1
EndSplineSet
Validated: 1
EndChar

StartChar: quotedbl
Encoding: 34 34 5
Width: 881
GlyphClass: 1
Flags: W
LayerCount: 2
Fore
SplineSet
485 1181 m 1,0,-1
 348 932 l 1,1,-1
 204 932 l 1,2,-1
 237 1167 l 1,3,-1
 278 1456 l 1,4,-1
 524 1456 l 1,5,-1
 485 1181 l 1,0,-1
841 1181 m 1,6,-1
 704 932 l 1,7,-1
 561 932 l 1,8,-1
 596 1176 l 1,9,-1
 635 1456 l 1,10,-1
 880 1456 l 1,11,-1
 841 1181 l 1,6,-1
EndSplineSet
Validated: 1
EndChar

StartChar: numbersign
Encoding: 35 35 6
Width: 1190
GlyphClass: 1
Flags: W
LayerCount: 2
Fore
SplineSet
601 410 m 1,0,-1
 439 410 l 1,1,-1
 311 0 l 1,2,-1
 112 0 l 1,3,-1
 241 410 l 1,4,-1
 19 410 l 1,5,-1
 46 593 l 1,6,-1
 298 593 l 1,7,-1
 381 857 l 1,8,-1
 161 857 l 1,9,-1
 188 1040 l 1,10,-1
 439 1040 l 1,11,-1
 570 1456 l 1,12,-1
 768 1456 l 1,13,-1
 637 1040 l 1,14,-1
 799 1040 l 1,15,-1
 930 1456 l 1,16,-1
 1129 1456 l 1,17,-1
 998 1040 l 1,18,-1
 1229 1040 l 1,19,-1
 1202 857 l 1,20,-1
 940 857 l 1,21,-1
 857 593 l 1,22,-1
 1086 593 l 1,23,-1
 1059 410 l 1,24,-1
 800 410 l 1,25,-1
 671 0 l 1,26,-1
 472 0 l 1,27,-1
 601 410 l 1,0,-1
497 593 m 1,28,-1
 658 593 l 1,29,-1
 741 857 l 1,30,-1
 580 857 l 1,31,-1
 497 593 l 1,28,-1
EndSplineSet
Validated: 1
EndChar

StartChar: dollar
Encoding: 36 36 7
Width: 1227
GlyphClass: 1
Flags: W
LayerCount: 2
Fore
SplineSet
771 386 m 0,0,1
 782 468 782 468 750 508 c 128,-1,2
 718 548 718 548 615 594 c 1,3,4
 387 678 387 678 289.5 778 c 128,-1,5
 192 878 192 878 220 1068 c 0,6,7
 244 1246 244 1246 374 1352 c 128,-1,8
 504 1458 504 1458 706 1474 c 1,9,-1
 736 1685 l 1,10,-1
 894 1685 l 1,11,-1
 864 1470 l 1,12,13
 1042 1444 1042 1444 1135.5 1327 c 128,-1,14
 1229 1210 1229 1210 1205 1026 c 1,15,-1
 868 1026 l 1,16,17
 882 1130 882 1130 845.5 1176 c 128,-1,18
 809 1222 809 1222 729 1222 c 0,19,20
 651 1222 651 1222 608.5 1178.5 c 128,-1,21
 566 1135 566 1135 557 1066 c 0,22,23
 547 996 547 996 577.5 958.5 c 128,-1,24
 608 921 608 921 713 867 c 1,25,26
 934 793 934 793 1034 685 c 128,-1,27
 1134 577 1134 577 1108 388 c 0,28,29
 1082 205 1082 205 957.5 102.5 c 128,-1,30
 833 0 833 0 636 -17 c 1,31,-1
 608 -218 l 1,32,-1
 449 -218 l 1,33,-1
 477 -17 l 1,34,35
 283 1 283 1 166.5 113.5 c 128,-1,36
 50 226 50 226 85 442 c 1,37,-1
 87 447 l 1,38,-1
 417 447 l 1,39,40
 400 327 400 327 448 280.5 c 128,-1,41
 496 234 496 234 592 234 c 0,42,43
 671 234 671 234 716 276 c 128,-1,44
 761 318 761 318 771 386 c 0,0,1
EndSplineSet
Validated: 33
EndChar

StartChar: percent
Encoding: 37 37 8
Width: 1521
GlyphClass: 1
Flags: W
LayerCount: 2
Fore
SplineSet
187 1176 m 2,0,1
 207 1310 207 1310 303.5 1393.5 c 128,-1,2
 400 1477 400 1477 556 1477 c 0,3,4
 706 1477 706 1477 780 1390.5 c 128,-1,5
 854 1304 854 1304 835 1176 c 2,6,-1
 824 1099 l 2,7,8
 803 965 803 965 708 882.5 c 128,-1,9
 613 800 613 800 456 800 c 0,10,11
 306 800 306 800 231 886 c 128,-1,12
 156 972 156 972 176 1099 c 2,13,-1
 187 1176 l 2,0,1
392 1099 m 2,14,15
 384 1048 384 1048 407 1015 c 128,-1,16
 430 982 430 982 483 982 c 0,17,18
 532 982 532 982 565.5 1016 c 128,-1,19
 599 1050 599 1050 607 1099 c 2,20,-1
 618 1176 l 2,21,22
 625 1228 625 1228 603 1261.5 c 128,-1,23
 581 1295 581 1295 528 1295 c 0,24,25
 479 1295 479 1295 444.5 1260 c 128,-1,26
 410 1225 410 1225 403 1176 c 2,27,-1
 392 1099 l 2,14,15
756 357 m 2,28,29
 775 490 775 490 872.5 573.5 c 128,-1,30
 970 657 970 657 1126 657 c 0,31,32
 1276 657 1276 657 1349.5 571 c 128,-1,33
 1423 485 1423 485 1405 357 c 2,34,-1
 1393 280 l 2,35,36
 1372 145 1372 145 1277.5 62.5 c 128,-1,37
 1183 -20 1183 -20 1026 -20 c 0,38,39
 876 -20 876 -20 800 66 c 128,-1,40
 724 152 724 152 744 280 c 2,41,-1
 756 357 l 2,28,29
961 280 m 2,42,43
 953 231 953 231 980 196.5 c 128,-1,44
 1007 162 1007 162 1053 162 c 0,45,46
 1113 162 1113 162 1141 194 c 128,-1,47
 1169 226 1169 226 1177 280 c 2,48,-1
 1189 357 l 2,49,50
 1196 408 1196 408 1172.5 441.5 c 128,-1,51
 1149 475 1149 475 1098 475 c 0,52,53
 1048 475 1048 475 1014 440 c 128,-1,54
 980 405 980 405 973 357 c 2,55,-1
 961 280 l 2,42,43
398 109 m 1,56,-1
 253 188 l 1,57,-1
 1135 1326 l 1,58,-1
 1280 1247 l 1,59,-1
 398 109 l 1,56,-1
EndSplineSet
Validated: 33
EndChar

StartChar: ampersand
Encoding: 38 38 9
Width: 1380
GlyphClass: 1
Flags: W
LayerCount: 2
Fore
SplineSet
344 776 m 1,0,1
 296 863 296 863 277 936 c 128,-1,2
 258 1009 258 1009 271 1084 c 0,3,4
 300 1280 300 1280 424 1378.5 c 128,-1,5
 548 1477 548 1477 742 1477 c 0,6,7
 894 1477 894 1477 981 1374 c 128,-1,8
 1068 1271 1068 1271 1047 1127 c 0,9,10
 1030 1015 1030 1015 983 940 c 128,-1,11
 936 865 936 865 852 805 c 1,12,-1
 741 735 l 1,13,-1
 934 466 l 1,14,15
 978 523 978 523 1007.5 589 c 128,-1,16
 1037 655 1037 655 1048 728 c 1,17,-1
 1308 728 l 1,18,19
 1285 575 1285 575 1233.5 455.5 c 128,-1,20
 1182 336 1182 336 1094 244 c 1,21,-1
 1270 0 l 1,22,-1
 894 0 l 1,23,-1
 832 84 l 1,24,25
 738 30 738 30 647.5 4.5 c 128,-1,26
 557 -21 557 -21 453 -21 c 0,27,28
 243 -21 243 -21 127 94.5 c 128,-1,29
 11 210 11 210 39 391 c 0,30,31
 56 511 56 511 123 589.5 c 128,-1,32
 190 668 190 668 325 765 c 1,33,-1
 344 776 l 1,0,1
515 239 m 0,34,35
 557 239 557 239 601.5 248.5 c 128,-1,36
 646 258 646 258 691 277 c 1,37,-1
 479 568 l 1,38,39
 433 531 433 531 410.5 494.5 c 128,-1,40
 388 458 388 458 381 414 c 0,41,42
 369 334 369 334 408.5 286.5 c 128,-1,43
 448 239 448 239 515 239 c 0,34,35
563 1088 m 0,44,45
 557 1050 557 1050 568.5 1012 c 128,-1,46
 580 974 580 974 608 929 c 1,47,-1
 657 958 l 2,48,49
 719 994 719 994 743 1028.5 c 128,-1,50
 767 1063 767 1063 773 1103 c 0,51,52
 780 1151 780 1151 760 1184 c 128,-1,53
 740 1217 740 1217 691 1217 c 0,54,55
 644 1217 644 1217 607.5 1179 c 128,-1,56
 571 1141 571 1141 563 1088 c 0,44,45
EndSplineSet
Validated: 33
EndChar

StartChar: quotesingle
Encoding: 39 39 10
Width: 440
GlyphClass: 1
Flags: W
LayerCount: 2
Fore
SplineSet
453 1164 m 1,0,-1
 311 881 l 1,1,-1
 122 881 l 1,2,-1
 160 1151 l 1,3,-1
 203 1456 l 1,4,-1
 494 1456 l 1,5,-1
 453 1164 l 1,0,-1
EndSplineSet
Validated: 1
EndChar

StartChar: parenleft
Encoding: 40 40 11
Width: 727
GlyphClass: 1
Flags: W
LayerCount: 2
Fore
SplineSet
128 592 m 2,0,1
 184 997 184 997 367 1259 c 128,-1,2
 550 1521 550 1521 765 1600 c 1,3,-1
 771 1599 l 1,4,-1
 810 1440 l 1,5,6
 669 1346 669 1346 556 1136 c 128,-1,7
 443 926 443 926 397 594 c 1,8,-1
 393 562 l 1,9,10
 344 215 344 215 397.5 13.5 c 128,-1,11
 451 -188 451 -188 568 -284 c 1,12,-1
 484 -443 l 1,13,-1
 479 -443 l 1,14,15
 290 -366 290 -366 179.5 -96 c 128,-1,16
 69 174 69 174 124 564 c 2,17,-1
 128 592 l 2,0,1
EndSplineSet
Validated: 33
EndChar

StartChar: parenright
Encoding: 41 41 12
Width: 726
GlyphClass: 1
Flags: W
LayerCount: 2
Fore
SplineSet
634 564 m 2,0,1
 579 175 579 175 386.5 -95.5 c 128,-1,2
 194 -366 194 -366 -26 -444 c 1,3,-1
 -32 -443 l 1,4,-1
 -71 -284 l 1,5,6
 68 -189 68 -189 181.5 20.5 c 128,-1,7
 295 230 295 230 342 562 c 1,8,-1
 346 594 l 1,9,10
 394 940 394 940 340.5 1142 c 128,-1,11
 287 1344 287 1344 171 1440 c 1,12,-1
 255 1599 l 1,13,-1
 261 1599 l 1,14,15
 455 1523 455 1523 572.5 1244 c 128,-1,16
 690 965 690 965 638 592 c 2,17,-1
 634 564 l 2,0,1
EndSplineSet
Validated: 33
EndChar

StartChar: asterisk
Encoding: 42 42 13
Width: 843
GlyphClass: 1
Flags: W
LayerCount: 2
Fore
SplineSet
273 649 m 1,0,-1
 60 731 l 1,1,-1
 142 906 l 1,2,-1
 374 834 l 1,3,-1
 419 1082 l 1,4,-1
 601 1082 l 1,5,-1
 578 824 l 1,6,-1
 818 897 l 1,7,-1
 847 720 l 1,8,-1
 604 635 l 1,9,-1
 705 430 l 1,10,-1
 539 321 l 1,11,-1
 417 525 l 1,12,-1
 237 330 l 1,13,-1
 102 435 l 1,14,-1
 273 649 l 1,0,-1
EndSplineSet
Validated: 1
EndChar

StartChar: plus
Encoding: 43 43 14
Width: 1094
GlyphClass: 1
Flags: W
LayerCount: 2
Fore
SplineSet
746 826 m 1,0,-1
 1087 826 l 1,1,-1
 1044 537 l 1,2,-1
 702 537 l 1,3,-1
 644 146 l 1,4,-1
 329 146 l 1,5,-1
 387 537 l 1,6,-1
 46 537 l 1,7,-1
 89 826 l 1,8,-1
 431 826 l 1,9,-1
 488 1206 l 1,10,-1
 803 1206 l 1,11,-1
 746 826 l 1,0,-1
EndSplineSet
Validated: 1
EndChar

StartChar: comma
Encoding: 44 44 15
Width: 590
GlyphClass: 1
Flags: W
LayerCount: 2
Fore
SplineSet
386 -8 m 1,0,-1
 175 -326 l 1,1,-1
 -58 -326 l 1,2,-1
 61 1 l 1,3,-1
 101 264 l 1,4,-1
 427 264 l 1,5,-1
 386 -8 l 1,0,-1
EndSplineSet
Validated: 1
EndChar

StartChar: hyphen
Encoding: 45 45 16
Width: 875
GlyphClass: 1
Flags: W
LayerCount: 2
Fore
SplineSet
719 497 m 1,0,-1
 130 497 l 1,1,-1
 169 758 l 1,2,-1
 758 758 l 1,3,-1
 719 497 l 1,0,-1
EndSplineSet
Validated: 1
EndChar

StartChar: period
Encoding: 46 46 17
Width: 619
GlyphClass: 1
Flags: W
LayerCount: 2
Fore
SplineSet
393 0 m 1,0,-1
 56 0 l 1,1,-1
 99 284 l 1,2,-1
 436 284 l 1,3,-1
 393 0 l 1,0,-1
EndSplineSet
Validated: 1
EndChar

StartChar: slash
Encoding: 47 47 18
Width: 811
GlyphClass: 1
Flags: W
LayerCount: 2
Fore
SplineSet
213 -125 m 1,0,-1
 -128 -125 l 1,1,-1
 606 1456 l 1,2,-1
 947 1456 l 1,3,-1
 213 -125 l 1,0,-1
EndSplineSet
Validated: 1
EndChar

StartChar: zero
Encoding: 48 48 19
Width: 1186
GlyphClass: 1
Flags: W
LayerCount: 2
Fore
SplineSet
1100 535 m 2,0,1
 1059 263 1059 263 900.5 121 c 128,-1,2
 742 -21 742 -21 511 -21 c 0,3,4
 290 -21 290 -21 168.5 127.5 c 128,-1,5
 47 276 47 276 86 535 c 2,6,-1
 144 921 l 2,7,8
 184 1192 184 1192 342.5 1334.5 c 128,-1,9
 501 1477 501 1477 734 1477 c 0,10,11
 954 1477 954 1477 1075 1328 c 128,-1,12
 1196 1179 1196 1179 1158 921 c 2,13,-1
 1100 535 l 2,0,1
825 944 m 2,14,15
 845 1082 845 1082 810.5 1149.5 c 128,-1,16
 776 1217 776 1217 695 1217 c 0,17,18
 617 1217 617 1217 560.5 1146 c 128,-1,19
 504 1075 504 1075 485 944 c 2,20,-1
 420 514 l 2,21,22
 398 373 398 373 432.5 306 c 128,-1,23
 467 239 467 239 550 239 c 0,24,25
 627 239 627 239 683.5 309 c 128,-1,26
 740 379 740 379 760 514 c 2,27,-1
 825 944 l 2,14,15
EndSplineSet
Validated: 33
EndChar

StartChar: one
Encoding: 49 49 20
Width: 1186
GlyphClass: 1
Flags: W
LayerCount: 2
Fore
SplineSet
759 0 m 1,0,-1
 421 0 l 1,1,-1
 596 1167 l 1,2,-1
 303 1167 l 1,3,-1
 342 1425 l 1,4,-1
 981 1477 l 1,5,-1
 759 0 l 1,0,-1
EndSplineSet
Validated: 1
EndChar

StartChar: two
Encoding: 50 50 21
Width: 1186
GlyphClass: 1
Flags: W
LayerCount: 2
Fore
SplineSet
1038 0 m 1,0,-1
 26 0 l 1,1,-1
 57 220 l 1,2,-1
 574 712 l 2,3,4
 678 814 678 814 731 893.5 c 128,-1,5
 784 973 784 973 793 1033 c 0,6,7
 804 1121 804 1121 773 1169 c 128,-1,8
 742 1217 742 1217 658 1217 c 0,9,10
 583 1217 583 1217 528.5 1152 c 128,-1,11
 474 1087 474 1087 460 988 c 1,12,-1
 130 988 l 1,13,-1
 128 994 l 1,14,15
 153 1204 153 1204 308.5 1340.5 c 128,-1,16
 464 1477 464 1477 695 1477 c 0,17,18
 925 1477 925 1477 1042.5 1358 c 128,-1,19
 1160 1239 1160 1239 1132 1036 c 0,20,21
 1111 892 1111 892 1029 792.5 c 128,-1,22
 947 693 947 693 718 477 c 1,23,-1
 510 266 l 1,24,-1
 513 260 l 1,25,-1
 1074 260 l 1,26,-1
 1038 0 l 1,0,-1
EndSplineSet
Validated: 33
EndChar

StartChar: three
Encoding: 51 51 22
Width: 1186
GlyphClass: 1
Flags: W
LayerCount: 2
Fore
SplineSet
1183 1061 m 0,0,1
 1167 957 1167 957 1095.5 874.5 c 128,-1,2
 1024 792 1024 792 913 746 c 1,3,4
 1022 702 1022 702 1074 615.5 c 128,-1,5
 1126 529 1126 529 1108 408 c 0,6,7
 1076 200 1076 200 908.5 89.5 c 128,-1,8
 741 -21 741 -21 499 -21 c 0,9,10
 300 -21 300 -21 160.5 87 c 128,-1,11
 21 195 21 195 57 398 c 1,12,-1
 59 404 l 1,13,-1
 389 404 l 1,14,15
 377 330 377 330 419 284.5 c 128,-1,16
 461 239 461 239 538 239 c 0,17,18
 626 239 626 239 693.5 290 c 128,-1,19
 761 341 761 341 772 415 c 0,20,21
 788 525 788 525 741 571.5 c 128,-1,22
 694 618 694 618 591 618 c 2,23,-1
 431 618 l 1,24,-1
 453 767 l 1,25,-1
 468 869 l 1,26,-1
 628 869 l 2,27,28
 716 869 716 869 774 918.5 c 128,-1,29
 832 968 832 968 845 1054 c 0,30,31
 855 1124 855 1124 812.5 1170.5 c 128,-1,32
 770 1217 770 1217 685 1217 c 0,33,34
 623 1217 623 1217 571.5 1179 c 128,-1,35
 520 1141 520 1141 511 1081 c 1,36,-1
 184 1081 l 1,37,-1
 182 1087 l 1,38,39
 204 1268 204 1268 360.5 1372.5 c 128,-1,40
 517 1477 517 1477 724 1477 c 0,41,42
 953 1477 953 1477 1082.5 1367.5 c 128,-1,43
 1212 1258 1212 1258 1183 1061 c 0,0,1
EndSplineSet
Validated: 33
EndChar

StartChar: four
Encoding: 52 52 23
Width: 1186
GlyphClass: 1
Flags: W
LayerCount: 2
Fore
SplineSet
990 569 m 1,0,-1
 1137 569 l 1,1,-1
 1098 307 l 1,2,-1
 951 307 l 1,3,-1
 905 0 l 1,4,-1
 567 0 l 1,5,-1
 613 307 l 1,6,-1
 34 307 l 1,7,-1
 45 515 l 1,8,-1
 784 1453 l 1,9,-1
 785 1456 l 1,10,-1
 1123 1456 l 1,11,-1
 990 569 l 1,0,-1
348 574 m 1,12,-1
 350 569 l 1,13,-1
 652 569 l 1,14,-1
 720 1021 l 1,15,-1
 714 1023 l 1,16,-1
 666 948 l 1,17,-1
 348 574 l 1,12,-1
EndSplineSet
Validated: 1
EndChar

StartChar: five
Encoding: 53 53 24
Width: 1186
GlyphClass: 1
Flags: W
LayerCount: 2
Fore
SplineSet
137 640 m 1,0,-1
 343 1456 l 1,1,-1
 1196 1456 l 1,2,-1
 1157 1194 l 1,3,-1
 578 1194 l 1,4,-1
 496 891 l 1,5,6
 541 920 541 920 607 938 c 128,-1,7
 673 956 673 956 749 958 c 0,8,9
 953 962 953 962 1042.5 833.5 c 128,-1,10
 1132 705 1132 705 1097 469 c 0,11,12
 1064 251 1064 251 923 115 c 128,-1,13
 782 -21 782 -21 518 -21 c 0,14,15
 317 -21 317 -21 176.5 89.5 c 128,-1,16
 36 200 36 200 68 378 c 1,17,-1
 70 383 l 1,18,-1
 405 404 l 1,19,20
 392 324 392 324 433.5 281.5 c 128,-1,21
 475 239 475 239 557 239 c 0,22,23
 647 239 647 239 694.5 297 c 128,-1,24
 742 355 742 355 759 467 c 0,25,26
 777 591 777 591 744.5 658 c 128,-1,27
 712 725 712 725 619 725 c 0,28,29
 554 725 554 725 506.5 695.5 c 128,-1,30
 459 666 459 666 437 623 c 1,31,-1
 137 640 l 1,0,-1
EndSplineSet
Validated: 33
EndChar

StartChar: six
Encoding: 54 54 25
Width: 1186
GlyphClass: 1
Flags: W
LayerCount: 2
Fore
SplineSet
825 1477 m 0,0,1
 906 1477 906 1477 971.5 1462 c 128,-1,2
 1037 1447 1037 1447 1112 1416 c 1,3,-1
 1019 1170 l 1,4,5
 952 1192 952 1192 902.5 1202 c 128,-1,6
 853 1212 853 1212 787 1212 c 0,7,8
 667 1212 667 1212 576 1122.5 c 128,-1,9
 485 1033 485 1033 460 861 c 1,10,-1
 458 851 l 1,11,12
 522 905 522 905 605.5 933.5 c 128,-1,13
 689 962 689 962 791 962 c 0,14,15
 970 962 970 962 1056 824.5 c 128,-1,16
 1142 687 1142 687 1110 472 c 0,17,18
 1076 249 1076 249 914.5 114 c 128,-1,19
 753 -21 753 -21 526 -21 c 0,20,21
 295 -21 295 -21 166.5 137.5 c 128,-1,22
 38 296 38 296 79 566 c 2,23,-1
 123 859 l 2,24,25
 167 1158 167 1158 360 1317.5 c 128,-1,26
 553 1477 553 1477 825 1477 c 0,0,1
640 704 m 0,27,28
 570 704 570 704 515.5 684 c 128,-1,29
 461 664 461 664 425 628 c 1,30,-1
 416 566 l 2,31,32
 391 401 391 401 430.5 320 c 128,-1,33
 470 239 470 239 565 239 c 0,34,35
 638 239 638 239 697.5 307 c 128,-1,36
 757 375 757 375 772 472 c 0,37,38
 789 586 789 586 752.5 645 c 128,-1,39
 716 704 716 704 640 704 c 0,27,28
EndSplineSet
Validated: 33
EndChar

StartChar: seven
Encoding: 55 55 26
Width: 1186
GlyphClass: 1
Flags: W
LayerCount: 2
Fore
SplineSet
1210 1196 m 1,0,1
 939 932 939 932 820 709.5 c 128,-1,2
 701 487 701 487 657 191 c 2,3,-1
 628 0 l 1,4,-1
 290 0 l 1,5,-1
 319 191 l 2,6,7
 364 494 364 494 503.5 730 c 128,-1,8
 643 966 643 966 886 1196 c 1,9,-1
 157 1196 l 1,10,-1
 196 1456 l 1,11,-1
 1249 1456 l 1,12,-1
 1210 1196 l 1,0,1
EndSplineSet
Validated: 1
EndChar

StartChar: eight
Encoding: 56 56 27
Width: 1186
GlyphClass: 1
Flags: W
LayerCount: 2
Fore
SplineSet
1160 1075 m 0,0,1
 1143 965 1143 965 1078.5 883 c 128,-1,2
 1014 801 1014 801 913 754 c 1,3,4
 1020 702 1020 702 1075 613 c 128,-1,5
 1130 524 1130 524 1114 410 c 0,6,7
 1082 198 1082 198 921.5 88.5 c 128,-1,8
 761 -21 761 -21 530 -21 c 0,9,10
 303 -21 303 -21 163 94 c 128,-1,11
 23 209 23 209 54 410 c 0,12,13
 71 531 71 531 154.5 621 c 128,-1,14
 238 711 238 711 368 760 c 1,15,16
 278 810 278 810 233.5 891 c 128,-1,17
 189 972 189 972 205 1075 c 0,18,19
 235 1275 235 1275 384 1376 c 128,-1,20
 533 1477 533 1477 753 1477 c 0,21,22
 955 1477 955 1477 1071.5 1372 c 128,-1,23
 1188 1267 1188 1267 1160 1075 c 0,0,1
778 428 m 0,24,25
 791 519 791 519 747.5 572 c 128,-1,26
 704 625 704 625 625 625 c 0,27,28
 542 625 542 625 475 569.5 c 128,-1,29
 408 514 408 514 395 428 c 0,30,31
 381 338 381 338 430.5 288.5 c 128,-1,32
 480 239 480 239 569 239 c 0,33,34
 645 239 645 239 705 290.5 c 128,-1,35
 765 342 765 342 778 428 c 0,24,25
821 1057 m 0,36,37
 832 1136 832 1136 804 1176.5 c 128,-1,38
 776 1217 776 1217 714 1217 c 0,39,40
 647 1217 647 1217 599.5 1175 c 128,-1,41
 552 1133 552 1133 542 1057 c 0,42,43
 529 975 529 975 562.5 930 c 128,-1,44
 596 885 596 885 666 885 c 0,45,46
 723 885 723 885 766 932 c 128,-1,47
 809 979 809 979 821 1057 c 0,36,37
EndSplineSet
Validated: 33
EndChar

StartChar: nine
Encoding: 57 57 28
Width: 1186
GlyphClass: 1
Flags: W
LayerCount: 2
Fore
SplineSet
504 239 m 0,0,1
 592 239 592 239 664 312 c 128,-1,2
 736 385 736 385 755 512 c 2,3,-1
 766 591 l 1,4,5
 709 533 709 533 639.5 504 c 128,-1,6
 570 475 570 475 496 475 c 0,7,8
 305 475 305 475 208.5 610 c 128,-1,9
 112 745 112 745 145 967 c 0,10,11
 178 1191 178 1191 341 1334 c 128,-1,12
 504 1477 504 1477 731 1477 c 0,13,14
 944 1477 944 1477 1067 1322 c 128,-1,15
 1190 1167 1190 1167 1150 901 c 2,16,-1
 1095 535 l 2,17,18
 1055 273 1055 273 879.5 126 c 128,-1,19
 704 -21 704 -21 465 -21 c 0,20,21
 394 -21 394 -21 314 -4 c 128,-1,22
 234 13 234 13 166 42 c 1,23,-1
 260 283 l 1,24,25
 320 260 320 260 376 249.5 c 128,-1,26
 432 239 432 239 504 239 c 0,0,1
607 718 m 0,27,28
 663 718 663 718 712 740.5 c 128,-1,29
 761 763 761 763 798 802 c 1,30,-1
 822 963 l 2,31,32
 841 1092 841 1092 804 1154.5 c 128,-1,33
 767 1217 767 1217 691 1217 c 256,34,35
 615 1217 615 1217 555.5 1141.5 c 128,-1,36
 496 1066 496 1066 482 967 c 0,37,38
 464 851 464 851 495.5 784.5 c 128,-1,39
 527 718 527 718 607 718 c 0,27,28
EndSplineSet
Validated: 33
EndChar

StartChar: less
Encoding: 60 60 31
Width: 1044
GlyphClass: 1
Flags: W
LayerCount: 2
Fore
SplineSet
379 544 m 1,0,-1
 379 538 l 1,1,-1
 904 357 l 1,2,-1
 858 50 l 1,3,-1
 28 410 l 1,4,-1
 42 508 l 1,5,-1
 67 676 l 1,6,-1
 1005 1036 l 1,7,-1
 960 730 l 1,8,-1
 379 544 l 1,0,-1
EndSplineSet
Validated: 1
EndChar

StartChar: equal
Encoding: 61 61 32
Width: 1195
GlyphClass: 1
Flags: W
LayerCount: 2
Fore
SplineSet
1084 732 m 1,0,-1
 158 732 l 1,1,-1
 197 992 l 1,2,-1
 1123 992 l 1,3,-1
 1084 732 l 1,0,-1
1018 293 m 1,4,-1
 92 293 l 1,5,-1
 131 553 l 1,6,-1
 1057 553 l 1,7,-1
 1018 293 l 1,4,-1
EndSplineSet
Validated: 1
EndChar

StartChar: greater
Encoding: 62 62 33
Width: 1050
GlyphClass: 1
Flags: W
LayerCount: 2
Fore
SplineSet
659 540 m 1,0,-1
 659 546 l 1,1,-1
 140 728 l 1,2,-1
 186 1034 l 1,3,-1
 1011 674 l 1,4,-1
 986 505 l 1,5,-1
 985 505 l 1,6,-1
 971 408 l 1,7,-1
 38 48 l 1,8,-1
 84 354 l 1,9,-1
 659 540 l 1,0,-1
EndSplineSet
Validated: 1
EndChar

StartChar: question
Encoding: 63 63 34
Width: 1043
GlyphClass: 1
Flags: W
LayerCount: 2
Fore
SplineSet
290 416 m 1,0,1
 312 555 312 555 372 625 c 128,-1,2
 432 695 432 695 575 786 c 0,3,4
 648 828 648 828 695.5 890 c 128,-1,5
 743 952 743 952 756 1033 c 0,6,7
 768 1119 768 1119 731.5 1168 c 128,-1,8
 695 1217 695 1217 611 1217 c 0,9,10
 546 1217 546 1217 493.5 1175.5 c 128,-1,11
 441 1134 441 1134 427 1054 c 1,12,-1
 98 1054 l 1,13,-1
 97 1060 l 1,14,15
 126 1268 126 1268 277 1372.5 c 128,-1,16
 428 1477 428 1477 650 1477 c 0,17,18
 879 1477 879 1477 1001.5 1356 c 128,-1,19
 1124 1235 1124 1235 1094 1033 c 0,20,21
 1074 903 1074 903 985.5 801 c 128,-1,22
 897 699 897 699 771 638 c 1,23,24
 700 596 700 596 670 547.5 c 128,-1,25
 640 499 640 499 628 416 c 1,26,-1
 290 416 l 1,0,1
565 0 m 1,27,-1
 229 0 l 1,28,-1
 270 270 l 1,29,-1
 606 270 l 1,30,-1
 565 0 l 1,27,-1
EndSplineSet
Validated: 33
EndChar

StartChar: at
Encoding: 64 64 35
Width: 1809
GlyphClass: 1
Flags: W
LayerCount: 2
Fore
SplineSet
1727 520 m 0,0,1
 1685 300 1685 300 1538 139.5 c 128,-1,2
 1391 -21 1391 -21 1147 -21 c 0,3,4
 1068 -21 1068 -21 1016 25 c 128,-1,5
 964 71 964 71 951 154 c 1,6,7
 897 68 897 68 827.5 25.5 c 128,-1,8
 758 -17 758 -17 674 -17 c 0,9,10
 531 -17 531 -17 467.5 102.5 c 128,-1,11
 404 222 404 222 453 416 c 0,12,13
 517 667 517 667 660 818 c 128,-1,14
 803 969 803 969 975 969 c 0,15,16
 1091 969 1091 969 1164.5 942 c 128,-1,17
 1238 915 1238 915 1315 863 c 1,18,-1
 1311 859 l 1,19,-1
 1317 859 l 1,20,-1
 1181 293 l 2,21,22
 1163 206 1163 206 1174.5 173.5 c 128,-1,23
 1186 141 1186 141 1214 141 c 0,24,25
 1321 141 1321 141 1407.5 249.5 c 128,-1,26
 1494 358 1494 358 1526 520 c 0,27,28
 1592 859 1592 859 1472 1048.5 c 128,-1,29
 1352 1238 1352 1238 1041 1238 c 0,30,31
 750 1238 750 1238 535.5 1032 c 128,-1,32
 321 826 321 826 254 478 c 0,33,34
 186 135 186 135 317.5 -64 c 128,-1,35
 449 -263 449 -263 751 -263 c 0,36,37
 831 -263 831 -263 926.5 -244 c 128,-1,38
 1022 -225 1022 -225 1091 -198 c 1,39,-1
 1104 -364 l 1,40,41
 1031 -406 1031 -406 924 -429.5 c 128,-1,42
 817 -453 817 -453 718 -453 c 0,43,44
 330 -453 330 -453 142.5 -201.5 c 128,-1,45
 -45 50 -45 50 35 478 c 0,46,47
 116 907 116 907 394.5 1158.5 c 128,-1,48
 673 1410 673 1410 1071 1410 c 0,49,50
 1447 1410 1447 1410 1625.5 1169.5 c 128,-1,51
 1804 929 1804 929 1727 520 c 0,0,1
701 416 m 1,52,53
 675 296 675 296 692 234.5 c 128,-1,54
 709 173 709 173 769 173 c 0,55,56
 821 173 821 173 868.5 203 c 128,-1,57
 916 233 916 233 961 313 c 1,58,-1
 1070 766 l 1,59,60
 1049 771 1049 771 1028.5 774.5 c 128,-1,61
 1008 778 1008 778 986 778 c 0,62,63
 886 778 886 778 816 686.5 c 128,-1,64
 746 595 746 595 701 416 c 1,52,53
EndSplineSet
Validated: 33
EndChar

StartChar: A
Encoding: 65 65 36
Width: 1307
GlyphClass: 1
Flags: W
LayerCount: 2
Fore
SplineSet
840 283 m 1,0,-1
 408 283 l 1,1,-1
 281 0 l 1,2,-1
 -75 0 l 1,3,-1
 618 1456 l 1,4,-1
 799 1456 l 1,5,-1
 799 1455 l 1,6,-1
 800 1456 l 1,7,-1
 981 1456 l 1,8,-1
 1239 0 l 1,9,-1
 883 0 l 1,10,-1
 840 283 l 1,0,-1
524 543 m 1,11,-1
 801 543 l 1,12,-1
 734 994 l 1,13,-1
 728 995 l 1,14,-1
 524 543 l 1,11,-1
EndSplineSet
Validated: 1
Substitution2: "'smcp' Lowercase to Small Capitals lookup 0 subtable" A.smcp
EndChar

StartChar: B
Encoding: 66 66 37
Width: 1306
GlyphClass: 1
Flags: W
LayerCount: 2
Fore
SplineSet
36 0 m 1,0,-1
 254 1456 l 1,1,-1
 731 1456 l 2,2,3
 992 1456 992 1456 1133 1354.5 c 128,-1,4
 1274 1253 1274 1253 1245 1056 c 0,5,6
 1229 949 1229 949 1170 869 c 128,-1,7
 1111 789 1111 789 1004 749 c 1,8,9
 1128 721 1128 721 1176.5 633.5 c 128,-1,10
 1225 546 1225 546 1209 431 c 0,11,12
 1175 211 1175 211 1018.5 105.5 c 128,-1,13
 862 0 862 0 591 0 c 2,14,-1
 36 0 l 1,0,-1
467 625 m 1,15,-1
 413 260 l 1,16,-1
 630 260 l 2,17,18
 734 260 734 260 796.5 303.5 c 128,-1,19
 859 347 859 347 872 433 c 0,20,21
 885 530 885 530 845.5 576 c 128,-1,22
 806 622 806 622 697 625 c 2,23,-1
 686 625 l 1,24,-1
 467 625 l 1,15,-1
501 849 m 1,25,-1
 634 849 l 2,26,27
 751 849 751 849 820 892 c 128,-1,28
 889 935 889 935 902 1018 c 0,29,30
 916 1114 916 1114 865 1155 c 128,-1,31
 814 1196 814 1196 692 1196 c 2,32,-1
 553 1196 l 1,33,-1
 501 849 l 1,25,-1
EndSplineSet
Validated: 33
Substitution2: "'smcp' Lowercase to Small Capitals lookup 0 subtable" B.smcp
EndChar

StartChar: C
Encoding: 67 67 38
Width: 1307
GlyphClass: 1
Flags: W
LayerCount: 2
Fore
SplineSet
1227 491 m 1,0,-1
 1229 485 l 1,1,2
 1194 226 1194 226 1033 102.5 c 128,-1,3
 872 -21 872 -21 603 -21 c 0,4,5
 343 -21 343 -21 199 146 c 128,-1,6
 55 313 55 313 95 576 c 2,7,-1
 141 880 l 2,8,9
 182 1156 182 1156 362.5 1316.5 c 128,-1,10
 543 1477 543 1477 805 1477 c 0,11,12
 1072 1477 1072 1477 1208.5 1347 c 128,-1,13
 1345 1217 1345 1217 1305 973 c 1,14,-1
 1302 967 l 1,15,-1
 972 967 l 1,16,17
 992 1106 992 1106 945 1161.5 c 128,-1,18
 898 1217 898 1217 766 1217 c 0,19,20
 657 1217 657 1217 579 1124.5 c 128,-1,21
 501 1032 501 1032 479 882 c 2,22,-1
 433 576 l 2,23,24
 409 418 409 418 462.5 328.5 c 128,-1,25
 516 239 516 239 642 239 c 0,26,27
 753 239 753 239 816 298 c 128,-1,28
 879 357 879 357 899 491 c 1,29,-1
 1227 491 l 1,0,-1
EndSplineSet
Validated: 33
Substitution2: "'smcp' Lowercase to Small Capitals lookup 0 subtable" C.smcp
EndChar

StartChar: D
Encoding: 68 68 39
Width: 1338
GlyphClass: 1
Flags: W
LayerCount: 2
Fore
SplineSet
787 1456 m 2,0,1
 1034 1456 1034 1456 1186.5 1287 c 128,-1,2
 1339 1118 1339 1118 1301 859 c 2,3,-1
 1262 597 l 2,4,5
 1220 324 1220 324 1024.5 162 c 128,-1,6
 829 0 829 0 569 0 c 2,7,-1
 36 0 l 1,8,-1
 254 1456 l 1,9,-1
 787 1456 l 2,0,1
553 1196 m 1,10,-1
 413 260 l 1,11,-1
 608 260 l 2,12,13
 718 260 718 260 809 355 c 128,-1,14
 900 450 900 450 923 597 c 2,15,-1
 962 861 l 2,16,17
 984 1014 984 1014 924 1105 c 128,-1,18
 864 1196 864 1196 748 1196 c 2,19,-1
 553 1196 l 1,10,-1
EndSplineSet
Validated: 33
Substitution2: "'smcp' Lowercase to Small Capitals lookup 0 subtable" D.smcp
EndChar

StartChar: E
Encoding: 69 69 40
Width: 1143
GlyphClass: 1
Flags: W
LayerCount: 2
Fore
SplineSet
980 623 m 1,0,-1
 467 623 l 1,1,-1
 413 260 l 1,2,-1
 1028 260 l 1,3,-1
 989 0 l 1,4,-1
 36 0 l 1,5,-1
 254 1456 l 1,6,-1
 1208 1456 l 1,7,-1
 1169 1196 l 1,8,-1
 553 1196 l 1,9,-1
 506 883 l 1,10,-1
 1019 883 l 1,11,-1
 980 623 l 1,0,-1
EndSplineSet
Validated: 1
Substitution2: "'smcp' Lowercase to Small Capitals lookup 0 subtable" E.smcp
EndChar

StartChar: F
Encoding: 70 70 41
Width: 1143
GlyphClass: 1
Flags: W
LayerCount: 2
Fore
SplineSet
995 586 m 1,0,-1
 461 586 l 1,1,-1
 374 0 l 1,2,-1
 36 0 l 1,3,-1
 254 1456 l 1,4,-1
 1227 1456 l 1,5,-1
 1188 1196 l 1,6,-1
 553 1196 l 1,7,-1
 500 846 l 1,8,-1
 1034 846 l 1,9,-1
 995 586 l 1,0,-1
EndSplineSet
Validated: 1
Substitution2: "'smcp' Lowercase to Small Capitals lookup 0 subtable" F.smcp
EndChar

StartChar: G
Encoding: 71 71 42
Width: 1353
GlyphClass: 1
Flags: W
LayerCount: 2
Fore
SplineSet
1216 201 m 1,0,1
 1127 109 1127 109 979.5 44 c 128,-1,2
 832 -21 832 -21 614 -21 c 0,3,4
 354 -21 354 -21 204 146.5 c 128,-1,5
 54 314 54 314 94 576 c 2,6,-1
 140 880 l 2,7,8
 181 1154 181 1154 368.5 1315.5 c 128,-1,9
 556 1477 556 1477 818 1477 c 0,10,11
 1086 1477 1086 1477 1215 1351 c 128,-1,12
 1344 1225 1344 1225 1307 1012 c 1,13,-1
 1305 1006 l 1,14,-1
 987 1006 l 1,15,16
 1003 1117 1003 1117 954.5 1167 c 128,-1,17
 906 1217 906 1217 790 1217 c 0,18,19
 676 1217 676 1217 587.5 1123 c 128,-1,20
 499 1029 499 1029 477 882 c 2,21,-1
 431 576 l 2,22,23
 407 419 407 419 465 329 c 128,-1,24
 523 239 523 239 653 239 c 0,25,26
 742 239 742 239 800.5 254 c 128,-1,27
 859 269 859 269 892 294 c 1,28,-1
 931 554 l 1,29,-1
 673 554 l 1,30,-1
 707 778 l 1,31,-1
 1303 778 l 1,32,-1
 1216 201 l 1,0,1
EndSplineSet
Validated: 33
Substitution2: "'smcp' Lowercase to Small Capitals lookup 0 subtable" G.smcp
EndChar

StartChar: H
Encoding: 72 72 43
Width: 1446
GlyphClass: 1
Flags: W
LayerCount: 2
Fore
SplineSet
1250 0 m 1,0,-1
 913 0 l 1,1,-1
 1000 586 l 1,2,-1
 461 586 l 1,3,-1
 374 0 l 1,4,-1
 36 0 l 1,5,-1
 254 1456 l 1,6,-1
 592 1456 l 1,7,-1
 500 846 l 1,8,-1
 1039 846 l 1,9,-1
 1131 1456 l 1,10,-1
 1468 1456 l 1,11,-1
 1250 0 l 1,0,-1
EndSplineSet
Validated: 1
Substitution2: "'smcp' Lowercase to Small Capitals lookup 0 subtable" H.smcp
EndChar

StartChar: I
Encoding: 73 73 44
Width: 611
GlyphClass: 1
Flags: W
LayerCount: 2
Fore
SplineSet
394 0 m 1,0,-1
 57 0 l 1,1,-1
 275 1456 l 1,2,-1
 612 1456 l 1,3,-1
 394 0 l 1,0,-1
EndSplineSet
Validated: 1
Substitution2: "'smcp' Lowercase to Small Capitals lookup 0 subtable" I.smcp
EndChar

StartChar: J
Encoding: 74 74 45
Width: 1144
GlyphClass: 1
Flags: W
LayerCount: 2
Fore
SplineSet
830 1456 m 1,0,-1
 1168 1456 l 1,1,-1
 1020 467 l 2,2,3
 985 236 985 236 830.5 107.5 c 128,-1,4
 676 -21 676 -21 459 -21 c 0,5,6
 222 -21 222 -21 92.5 98.5 c 128,-1,7
 -37 218 -37 218 1 440 c 1,8,-1
 3 446 l 1,9,-1
 334 446 l 1,10,11
 317 334 317 334 363.5 286.5 c 128,-1,12
 410 239 410 239 498 239 c 0,13,14
 561 239 561 239 613.5 300 c 128,-1,15
 666 361 666 361 682 467 c 2,16,-1
 830 1456 l 1,0,-1
EndSplineSet
Validated: 33
Substitution2: "'smcp' Lowercase to Small Capitals lookup 0 subtable" J.smcp
EndChar

StartChar: K
Encoding: 75 75 46
Width: 1269
GlyphClass: 1
Flags: W
LayerCount: 2
Fore
SplineSet
558 578 m 1,0,-1
 462 578 l 1,1,-1
 376 0 l 1,2,-1
 38 0 l 1,3,-1
 256 1456 l 1,4,-1
 594 1456 l 1,5,-1
 507 880 l 1,6,-1
 598 880 l 1,7,-1
 944 1456 l 1,8,-1
 1390 1456 l 1,9,-1
 863 735 l 1,10,-1
 1191 0 l 1,11,-1
 801 0 l 1,12,-1
 558 578 l 1,0,-1
EndSplineSet
Validated: 1
Substitution2: "'smcp' Lowercase to Small Capitals lookup 0 subtable" K.smcp
EndChar

StartChar: L
Encoding: 76 76 47
Width: 1144
GlyphClass: 1
Flags: W
LayerCount: 2
Fore
SplineSet
413 260 m 1,0,-1
 1038 260 l 1,1,-1
 999 0 l 1,2,-1
 36 0 l 1,3,-1
 254 1456 l 1,4,-1
 592 1456 l 1,5,-1
 413 260 l 1,0,-1
EndSplineSet
Validated: 1
Substitution2: "'smcp' Lowercase to Small Capitals lookup 0 subtable" L.smcp
EndChar

StartChar: M
Encoding: 77 77 48
Width: 1783
GlyphClass: 1
Flags: W
LayerCount: 2
Fore
SplineSet
870 438 m 1,0,-1
 876 437 l 1,1,-1
 1358 1456 l 1,2,-1
 1805 1456 l 1,3,-1
 1587 0 l 1,4,-1
 1249 0 l 1,5,-1
 1389 937 l 1,6,-1
 1383 938 l 1,7,-1
 922 0 l 1,8,-1
 695 0 l 1,9,-1
 518 924 l 1,10,-1
 512 924 l 1,11,-1
 374 0 l 1,12,-1
 36 0 l 1,13,-1
 254 1456 l 1,14,-1
 697 1456 l 1,15,-1
 870 438 l 1,0,-1
EndSplineSet
Validated: 1
Substitution2: "'smcp' Lowercase to Small Capitals lookup 0 subtable" M.smcp
EndChar

StartChar: N
Encoding: 78 78 49
Width: 1446
GlyphClass: 1
Flags: W
LayerCount: 2
Fore
SplineSet
1250 0 m 1,0,-1
 913 0 l 1,1,-1
 516 916 l 1,2,-1
 510 915 l 1,3,-1
 374 0 l 1,4,-1
 36 0 l 1,5,-1
 254 1456 l 1,6,-1
 592 1456 l 1,7,-1
 988 541 l 1,8,-1
 994 542 l 1,9,-1
 1131 1456 l 1,10,-1
 1468 1456 l 1,11,-1
 1250 0 l 1,0,-1
EndSplineSet
Validated: 1
Substitution2: "'smcp' Lowercase to Small Capitals lookup 0 subtable" N.smcp
EndChar

StartChar: O
Encoding: 79 79 50
Width: 1416
GlyphClass: 1
Flags: W
LayerCount: 2
Fore
SplineSet
1336 597 m 2,0,1
 1293 317 1293 317 1099 148 c 128,-1,2
 905 -21 905 -21 627 -21 c 0,3,4
 361 -21 361 -21 209.5 155.5 c 128,-1,5
 58 332 58 332 99 597 c 2,6,-1
 138 859 l 2,7,8
 179 1137 179 1137 374.5 1307 c 128,-1,9
 570 1477 570 1477 850 1477 c 0,10,11
 1114 1477 1114 1477 1264 1300.5 c 128,-1,12
 1414 1124 1414 1124 1375 859 c 2,13,-1
 1336 597 l 2,0,1
1038 861 m 2,14,15
 1062 1023 1062 1023 1004 1120 c 128,-1,16
 946 1217 946 1217 811 1217 c 0,17,18
 679 1217 679 1217 588.5 1116.5 c 128,-1,19
 498 1016 498 1016 475 861 c 2,20,-1
 436 597 l 2,21,22
 411 433 411 433 469.5 336 c 128,-1,23
 528 239 528 239 666 239 c 0,24,25
 794 239 794 239 884.5 340 c 128,-1,26
 975 441 975 441 999 597 c 2,27,-1
 1038 861 l 2,14,15
EndSplineSet
Validated: 33
Substitution2: "'smcp' Lowercase to Small Capitals lookup 0 subtable" O.smcp
EndChar

StartChar: P
Encoding: 80 80 51
Width: 1306
GlyphClass: 1
Flags: W
LayerCount: 2
Fore
SplineSet
448 499 m 1,0,-1
 374 0 l 1,1,-1
 36 0 l 1,2,-1
 254 1456 l 1,3,-1
 810 1456 l 2,4,5
 1059 1456 1059 1456 1196 1322.5 c 128,-1,6
 1333 1189 1333 1189 1302 977 c 0,7,8
 1268 754 1268 754 1098.5 626.5 c 128,-1,9
 929 499 929 499 667 499 c 2,10,-1
 448 499 l 1,0,-1
487 759 m 1,11,-1
 706 759 l 2,12,13
 812 759 812 759 881 820.5 c 128,-1,14
 950 882 950 882 964 975 c 0,15,16
 978 1075 978 1075 930 1135.5 c 128,-1,17
 882 1196 882 1196 771 1196 c 2,18,-1
 553 1196 l 1,19,-1
 487 759 l 1,11,-1
EndSplineSet
Validated: 33
Substitution2: "'smcp' Lowercase to Small Capitals lookup 0 subtable" P.smcp
EndChar

StartChar: Q
Encoding: 81 81 52
Width: 1447
GlyphClass: 1
Flags: W
LayerCount: 2
Fore
SplineSet
1336 597 m 2,0,1
 1318 487 1318 487 1276 391.5 c 128,-1,2
 1234 296 1234 296 1170 220 c 1,3,-1
 1352 2 l 1,4,-1
 1110 -165 l 1,5,-1
 934 42 l 1,6,7
 864 11 864 11 786.5 -5 c 128,-1,8
 709 -21 709 -21 627 -21 c 0,9,10
 361 -21 361 -21 209.5 155.5 c 128,-1,11
 58 332 58 332 99 597 c 2,12,-1
 138 859 l 2,13,14
 179 1137 179 1137 374.5 1307 c 128,-1,15
 570 1477 570 1477 850 1477 c 0,16,17
 1114 1477 1114 1477 1264 1300.5 c 128,-1,18
 1414 1124 1414 1124 1375 859 c 2,19,-1
 1336 597 l 2,0,1
1038 861 m 2,20,21
 1062 1023 1062 1023 1004 1120 c 128,-1,22
 946 1217 946 1217 811 1217 c 0,23,24
 679 1217 679 1217 588.5 1116.5 c 128,-1,25
 498 1016 498 1016 475 861 c 2,26,-1
 436 597 l 2,27,28
 411 433 411 433 469.5 336 c 128,-1,29
 528 239 528 239 666 239 c 0,30,31
 794 239 794 239 884.5 340 c 128,-1,32
 975 441 975 441 999 597 c 2,33,-1
 1038 861 l 2,20,21
EndSplineSet
Validated: 33
Substitution2: "'smcp' Lowercase to Small Capitals lookup 0 subtable" Q.smcp
EndChar

StartChar: R
Encoding: 82 82 53
Width: 1306
GlyphClass: 1
Flags: W
LayerCount: 2
Fore
SplineSet
457 558 m 1,0,-1
 374 0 l 1,1,-1
 36 0 l 1,2,-1
 254 1456 l 1,3,-1
 761 1456 l 2,4,5
 1005 1456 1005 1456 1140 1338 c 128,-1,6
 1275 1220 1275 1220 1245 1019 c 0,7,8
 1226 901 1226 901 1155 821 c 128,-1,9
 1084 741 1084 741 959 692 c 1,10,11
 1083 653 1083 653 1130.5 563.5 c 128,-1,12
 1178 474 1178 474 1160 346 c 2,13,-1
 1146 254 l 2,14,15
 1137 195 1137 195 1143.5 123 c 128,-1,16
 1150 51 1150 51 1187 20 c 1,17,-1
 1184 0 l 1,18,-1
 835 0 l 1,19,20
 800 31 800 31 799 108 c 128,-1,21
 798 185 798 185 809 256 c 2,22,-1
 823 344 l 2,23,24
 839 452 839 452 793 505 c 128,-1,25
 747 558 747 558 639 558 c 2,26,-1
 457 558 l 1,0,-1
496 818 m 1,27,-1
 668 818 l 2,28,29
 766 818 766 818 828.5 865 c 128,-1,30
 891 912 891 912 905 998 c 0,31,32
 918 1090 918 1090 871 1143 c 128,-1,33
 824 1196 824 1196 722 1196 c 2,34,-1
 553 1196 l 1,35,-1
 496 818 l 1,27,-1
EndSplineSet
Validated: 33
Substitution2: "'smcp' Lowercase to Small Capitals lookup 0 subtable" R.smcp
EndChar

StartChar: S
Encoding: 83 83 54
Width: 1267
GlyphClass: 1
Flags: W
LayerCount: 2
Fore
SplineSet
867 363 m 0,0,1
 880 452 880 452 829 495.5 c 128,-1,2
 778 539 778 539 631 594 c 1,3,4
 372 679 372 679 243 796 c 128,-1,5
 114 913 114 913 141 1091 c 0,6,7
 168 1270 168 1270 329.5 1373.5 c 128,-1,8
 491 1477 491 1477 719 1477 c 0,9,10
 967 1477 967 1477 1108 1358 c 128,-1,11
 1249 1239 1249 1239 1213 1031 c 1,12,-1
 1211 1025 l 1,13,-1
 882 1025 l 1,14,15
 894 1111 894 1111 837.5 1164 c 128,-1,16
 781 1217 781 1217 680 1217 c 0,17,18
 606 1217 606 1217 547 1181 c 128,-1,19
 488 1145 488 1145 480 1093 c 0,20,21
 468 1012 468 1012 525 972 c 128,-1,22
 582 932 582 932 767 867 c 1,23,24
 1003 790 1003 790 1118 672 c 128,-1,25
 1233 554 1233 554 1205 365 c 0,26,27
 1176 178 1176 178 1017.5 78.5 c 128,-1,28
 859 -21 859 -21 625 -21 c 0,29,30
 385 -21 385 -21 218.5 88 c 128,-1,31
 52 197 52 197 92 425 c 1,32,-1
 94 431 l 1,33,-1
 422 431 l 1,34,35
 405 324 405 324 480.5 281.5 c 128,-1,36
 556 239 556 239 664 239 c 0,37,38
 738 239 738 239 798.5 274.5 c 128,-1,39
 859 310 859 310 867 363 c 0,0,1
EndSplineSet
Validated: 33
Substitution2: "'smcp' Lowercase to Small Capitals lookup 0 subtable" S.smcp
EndChar

StartChar: T
Encoding: 84 84 55
Width: 1150
GlyphClass: 1
Flags: W
LayerCount: 2
Fore
SplineSet
1228 1196 m 1,0,-1
 843 1196 l 1,1,-1
 664 0 l 1,2,-1
 326 0 l 1,3,-1
 505 1196 l 1,4,-1
 127 1196 l 1,5,-1
 166 1456 l 1,6,-1
 1267 1456 l 1,7,-1
 1228 1196 l 1,0,-1
EndSplineSet
Validated: 1
Substitution2: "'smcp' Lowercase to Small Capitals lookup 0 subtable" T.smcp
EndChar

StartChar: U
Encoding: 85 85 56
Width: 1417
GlyphClass: 1
Flags: W
LayerCount: 2
Fore
SplineSet
1447 1456 m 1,0,-1
 1306 512 l 2,1,2
 1266 252 1266 252 1081.5 115.5 c 128,-1,3
 897 -21 897 -21 627 -21 c 0,4,5
 368 -21 368 -21 217 122 c 128,-1,6
 66 265 66 265 104 512 c 2,7,-1
 245 1456 l 1,8,-1
 584 1456 l 1,9,-1
 443 512 l 2,10,11
 421 372 421 372 480.5 305.5 c 128,-1,12
 540 239 540 239 666 239 c 0,13,14
 785 239 785 239 865.5 308 c 128,-1,15
 946 377 946 377 967 512 c 2,16,-1
 1108 1456 l 1,17,-1
 1447 1456 l 1,0,-1
EndSplineSet
Validated: 33
Substitution2: "'smcp' Lowercase to Small Capitals lookup 0 subtable" U.smcp
EndChar

StartChar: V
Encoding: 86 86 57
Width: 1307
GlyphClass: 1
Flags: W
LayerCount: 2
Fore
SplineSet
617 395 m 1,0,-1
 619 342 l 1,1,-1
 625 341 l 1,2,-1
 643 391 l 1,3,-1
 1091 1456 l 1,4,-1
 1445 1456 l 1,5,-1
 755 0 l 1,6,-1
 390 0 l 1,7,-1
 138 1456 l 1,8,-1
 491 1456 l 1,9,-1
 617 395 l 1,0,-1
EndSplineSet
Validated: 1
Substitution2: "'smcp' Lowercase to Small Capitals lookup 0 subtable" V.smcp
EndChar

StartChar: W
Encoding: 87 87 58
Width: 1825
GlyphClass: 1
Flags: W
LayerCount: 2
Fore
SplineSet
1283 513 m 1,0,-1
 1289 512 l 1,1,-1
 1607 1456 l 1,2,-1
 1949 1456 l 1,3,-1
 1397 0 l 1,4,-1
 1079 0 l 1,5,-1
 969 899 l 1,6,-1
 963 900 l 1,7,-1
 585 0 l 1,8,-1
 267 0 l 1,9,-1
 150 1456 l 1,10,-1
 493 1456 l 1,11,-1
 527 511 l 1,12,-1
 533 510 l 1,13,-1
 922 1456 l 1,14,-1
 1177 1456 l 1,15,-1
 1283 513 l 1,0,-1
EndSplineSet
Validated: 1
Substitution2: "'smcp' Lowercase to Small Capitals lookup 0 subtable" W.smcp
EndChar

StartChar: X
Encoding: 88 88 59
Width: 1307
GlyphClass: 1
Flags: W
LayerCount: 2
Fore
SplineSet
711 972 m 1,0,-1
 717 971 l 1,1,-1
 1026 1456 l 1,2,-1
 1416 1456 l 1,3,-1
 891 734 l 1,4,-1
 1230 0 l 1,5,-1
 820 0 l 1,6,-1
 647 501 l 1,7,-1
 324 0 l 1,8,-1
 -66 0 l 1,9,-1
 472 734 l 1,10,-1
 163 1456 l 1,11,-1
 550 1456 l 1,12,-1
 711 972 l 1,0,-1
EndSplineSet
Validated: 1
Substitution2: "'smcp' Lowercase to Small Capitals lookup 0 subtable" X.smcp
EndChar

StartChar: Y
Encoding: 89 89 60
Width: 1307
GlyphClass: 1
Flags: W
LayerCount: 2
Fore
SplineSet
692 819 m 1,0,-1
 698 818 l 1,1,-1
 1084 1456 l 1,2,-1
 1450 1456 l 1,3,-1
 814 512 l 1,4,-1
 738 0 l 1,5,-1
 401 0 l 1,6,-1
 480 528 l 1,7,-1
 133 1456 l 1,8,-1
 499 1456 l 1,9,-1
 692 819 l 1,0,-1
EndSplineSet
Validated: 1
Substitution2: "'smcp' Lowercase to Small Capitals lookup 0 subtable" Y.smcp
EndChar

StartChar: Z
Encoding: 90 90 61
Width: 1160
GlyphClass: 1
Flags: W
LayerCount: 2
Fore
SplineSet
445 260 m 1,0,-1
 1076 260 l 1,1,-1
 1037 0 l 1,2,-1
 15 0 l 1,3,-1
 -6 152 l 1,4,-1
 707 1196 l 1,5,-1
 173 1196 l 1,6,-1
 212 1456 l 1,7,-1
 1184 1456 l 1,8,-1
 1163 1310 l 1,9,-1
 445 260 l 1,0,-1
EndSplineSet
Validated: 1
Substitution2: "'smcp' Lowercase to Small Capitals lookup 0 subtable" Z.smcp
EndChar

StartChar: bracketleft
Encoding: 91 91 62
Width: 577
GlyphClass: 1
Flags: W
LayerCount: 2
Fore
SplineSet
693 1460 m 1,0,-1
 575 1460 l 1,1,-1
 356 -104 l 1,2,-1
 474 -104 l 1,3,-1
 440 -349 l 1,4,-1
 -16 -349 l 1,5,-1
 272 1706 l 1,6,-1
 728 1706 l 1,7,-1
 693 1460 l 1,0,-1
EndSplineSet
Validated: 1
EndChar

StartChar: backslash
Encoding: 92 92 63
Width: 871
GlyphClass: 1
Flags: W
LayerCount: 2
Fore
SplineSet
122 1456 m 1,0,-1
 460 1456 l 1,1,-1
 831 -125 l 1,2,-1
 492 -125 l 1,3,-1
 122 1456 l 1,0,-1
EndSplineSet
Validated: 1
EndChar

StartChar: bracketright
Encoding: 93 93 64
Width: 577
GlyphClass: 1
Flags: W
LayerCount: 2
Fore
SplineSet
178 1706 m 1,0,-1
 634 1706 l 1,1,-1
 346 -349 l 1,2,-1
 -110 -349 l 1,3,-1
 -76 -104 l 1,4,-1
 43 -104 l 1,5,-1
 262 1460 l 1,6,-1
 143 1460 l 1,7,-1
 178 1706 l 1,0,-1
EndSplineSet
Validated: 1
EndChar

StartChar: asciicircum
Encoding: 94 94 65
Width: 916
GlyphClass: 1
Flags: W
LayerCount: 2
Fore
SplineSet
318 729 m 1,0,-1
 65 729 l 1,1,-1
 473 1456 l 1,2,-1
 722 1456 l 1,3,-1
 913 729 l 1,4,-1
 659 729 l 1,5,-1
 556 1142 l 1,6,-1
 555 1159 l 1,7,-1
 549 1160 l 1,8,-1
 542 1142 l 1,9,-1
 318 729 l 1,0,-1
EndSplineSet
Validated: 1
EndChar

StartChar: underscore
Encoding: 95 95 66
Width: 904
GlyphClass: 1
Flags: W
LayerCount: 2
Fore
SplineSet
785 -251 m 1,0,-1
 -118 -251 l 1,1,-1
 -80 0 l 1,2,-1
 823 0 l 1,3,-1
 785 -251 l 1,0,-1
EndSplineSet
Validated: 1
EndChar

StartChar: grave
Encoding: 96 96 67
Width: 695
GlyphClass: 1
Flags: W
LayerCount: 2
Fore
SplineSet
720 1252 m 1,0,-1
 423 1252 l 1,1,-1
 177 1512 l 1,2,-1
 180 1518 l 1,3,-1
 550 1518 l 1,4,-1
 720 1252 l 1,0,-1
EndSplineSet
Validated: 1
EndChar

StartChar: a
Encoding: 97 97 68
Width: 1086
GlyphClass: 1
Flags: W
LayerCount: 2
Fore
SplineSet
641 1 m 1,0,1
 628 35 628 35 620.5 78 c 128,-1,2
 613 121 613 121 613 168 c 1,3,4
 556 82 556 82 484 30.5 c 128,-1,5
 412 -21 412 -21 308 -21 c 0,6,7
 144 -21 144 -21 60 67.5 c 128,-1,8
 -24 156 -24 156 -2 305 c 0,9,10
 23 472 23 472 155 556.5 c 128,-1,11
 287 641 287 641 536 641 c 2,12,-1
 675 641 l 1,13,-1
 687 718 l 2,14,15
 697 790 697 790 670 825.5 c 128,-1,16
 643 861 643 861 574 861 c 0,17,18
 517 861 517 861 483 833 c 128,-1,19
 449 805 449 805 441 748 c 1,20,-1
 113 749 l 1,21,-1
 112 755 l 1,22,23
 129 909 129 909 272.5 1005.5 c 128,-1,24
 416 1102 416 1102 632 1102 c 0,25,26
 826 1102 826 1102 939 1001 c 128,-1,27
 1052 900 1052 900 1024 716 c 2,28,-1
 963 308 l 2,29,30
 949 219 949 219 953 147.5 c 128,-1,31
 957 76 957 76 975 0 c 1,32,-1
 641 1 l 1,0,1
436 220 m 0,33,34
 495 220 495 220 548.5 249.5 c 128,-1,35
 602 279 602 279 627 319 c 1,36,-1
 648 461 l 1,37,-1
 512 461 l 2,38,39
 435 461 435 461 391 421.5 c 128,-1,40
 347 382 347 382 338 323 c 0,41,42
 331 275 331 275 358.5 247.5 c 128,-1,43
 386 220 386 220 436 220 c 0,33,34
EndSplineSet
Validated: 33
Substitution2: "'smcp' Lowercase to Small Capitals lookup 0 subtable" A.smcp
EndChar

StartChar: b
Encoding: 98 98 69
Width: 1151
GlyphClass: 1
Flags: W
LayerCount: 2
Fore
SplineSet
1096 518 m 2,0,1
 1057 262 1057 262 931 120.5 c 128,-1,2
 805 -21 805 -21 595 -21 c 0,3,4
 509 -21 509 -21 449 18.5 c 128,-1,5
 389 58 389 58 352 133 c 1,6,-1
 311 0 l 1,7,-1
 16 0 l 1,8,-1
 250 1560 l 1,9,-1
 588 1560 l 1,10,-1
 500 977 l 1,11,12
 554 1037 554 1037 618.5 1069.5 c 128,-1,13
 683 1102 683 1102 761 1102 c 0,14,15
 962 1102 962 1102 1049 947.5 c 128,-1,16
 1136 793 1136 793 1099 539 c 2,17,-1
 1096 518 l 2,0,1
762 539 m 2,18,19
 784 688 784 688 760 765 c 128,-1,20
 736 842 736 842 637 842 c 0,21,22
 583 842 583 842 540.5 820.5 c 128,-1,23
 498 799 498 799 467 759 c 1,24,-1
 400 307 l 1,25,26
 418 273 418 273 455.5 256 c 128,-1,27
 493 239 493 239 549 239 c 0,28,29
 645 239 645 239 691 310 c 128,-1,30
 737 381 737 381 759 518 c 2,31,-1
 762 539 l 2,18,19
EndSplineSet
Validated: 33
Substitution2: "'smcp' Lowercase to Small Capitals lookup 0 subtable" B.smcp
EndChar

StartChar: c
Encoding: 99 99 70
Width: 1048
GlyphClass: 1
Flags: W
LayerCount: 2
Fore
SplineSet
515 239 m 0,0,1
 581 239 581 239 622 277 c 128,-1,2
 663 315 663 315 674 385 c 1,3,-1
 981 385 l 1,4,-1
 983 379 l 1,5,6
 959 195 959 195 817.5 87 c 128,-1,7
 676 -21 676 -21 476 -21 c 0,8,9
 239 -21 239 -21 123 133.5 c 128,-1,10
 7 288 7 288 44 529 c 1,11,-1
 48 552 l 1,12,13
 85 805 85 805 239.5 953.5 c 128,-1,14
 394 1102 394 1102 642 1102 c 0,15,16
 841 1102 841 1102 950.5 986 c 128,-1,17
 1060 870 1060 870 1027 673 c 1,18,-1
 1025 668 l 1,19,-1
 716 668 l 1,20,21
 728 748 728 748 700.5 795 c 128,-1,22
 673 842 673 842 603 842 c 0,23,24
 509 842 509 842 456.5 762 c 128,-1,25
 404 682 404 682 385 552 c 2,26,-1
 381 529 l 2,27,28
 360 388 360 388 387 313.5 c 128,-1,29
 414 239 414 239 515 239 c 0,0,1
EndSplineSet
Validated: 33
Substitution2: "'smcp' Lowercase to Small Capitals lookup 0 subtable" C.smcp
EndChar

StartChar: d
Encoding: 100 100 71
Width: 1151
GlyphClass: 1
Flags: W
LayerCount: 2
Fore
SplineSet
52 539 m 2,0,1
 91 801 91 801 223 951.5 c 128,-1,2
 355 1102 355 1102 558 1102 c 0,3,4
 631 1102 631 1102 687 1065.5 c 128,-1,5
 743 1029 743 1029 781 961 c 1,6,-1
 871 1560 l 1,7,-1
 1209 1560 l 1,8,-1
 975 0 l 1,9,-1
 679 0 l 1,10,-1
 676 131 l 1,11,12
 617 58 617 58 544.5 18.5 c 128,-1,13
 472 -21 472 -21 388 -21 c 0,14,15
 196 -21 196 -21 104 129 c 128,-1,16
 12 279 12 279 49 518 c 2,17,-1
 52 539 l 2,0,1
387 518 m 2,18,19
 366 382 366 382 393.5 310.5 c 128,-1,20
 421 239 421 239 513 239 c 0,21,22
 564 239 564 239 608 259.5 c 128,-1,23
 652 280 652 280 684 319 c 1,24,-1
 750 753 l 1,25,26
 731 796 731 796 694 819 c 128,-1,27
 657 842 657 842 605 842 c 0,28,29
 519 842 519 842 464.5 757.5 c 128,-1,30
 410 673 410 673 390 539 c 2,31,-1
 387 518 l 2,18,19
EndSplineSet
Validated: 33
Substitution2: "'smcp' Lowercase to Small Capitals lookup 0 subtable" D.smcp
EndChar

StartChar: e
Encoding: 101 101 72
Width: 1070
GlyphClass: 1
Flags: W
LayerCount: 2
Fore
SplineSet
493 -21 m 0,0,1
 257 -21 257 -21 135 129.5 c 128,-1,2
 13 280 13 280 47 505 c 1,3,-1
 52 543 l 1,4,5
 90 800 90 800 243.5 951.5 c 128,-1,6
 397 1103 397 1103 648 1102 c 0,7,8
 858 1102 858 1102 963 969.5 c 128,-1,9
 1068 837 1068 837 1035 612 c 2,10,-1
 1008 435 l 1,11,-1
 387 435 l 1,12,-1
 385 429 l 1,13,14
 380 342 380 342 427 290.5 c 128,-1,15
 474 239 474 239 578 239 c 0,16,17
 671 239 671 239 741 255.5 c 128,-1,18
 811 272 811 272 897 306 c 1,19,-1
 947 100 l 1,20,21
 870 49 870 49 746.5 14 c 128,-1,22
 623 -21 623 -21 493 -21 c 0,0,1
609 842 m 0,23,24
 531 842 531 842 484.5 790.5 c 128,-1,25
 438 739 438 739 417 652 c 1,26,-1
 419 646 l 1,27,-1
 710 646 l 1,28,-1
 714 672 l 2,29,30
 727 759 727 759 703.5 800.5 c 128,-1,31
 680 842 680 842 609 842 c 0,23,24
EndSplineSet
Validated: 33
Substitution2: "'smcp' Lowercase to Small Capitals lookup 0 subtable" E.smcp
EndChar

StartChar: f
Encoding: 102 102 73
Width: 734
GlyphClass: 1
Flags: W
LayerCount: 2
Fore
SplineSet
89 0 m 1,0,-1
 216 848 l 1,1,-1
 60 848 l 1,2,-1
 95 1082 l 1,3,-1
 251 1082 l 1,4,-1
 268 1194 l 2,5,6
 297 1388 297 1388 422.5 1484.5 c 128,-1,7
 548 1581 548 1581 755 1581 c 0,8,9
 792 1581 792 1581 832.5 1575 c 128,-1,10
 873 1569 873 1569 919 1560 c 1,11,-1
 857 1311 l 1,12,13
 830 1316 830 1316 809 1318.5 c 128,-1,14
 788 1321 788 1321 758 1321 c 0,15,16
 696 1321 696 1321 655.5 1287.5 c 128,-1,17
 615 1254 615 1254 607 1194 c 2,18,-1
 590 1082 l 1,19,-1
 804 1082 l 1,20,-1
 769 848 l 1,21,-1
 555 848 l 1,22,-1
 428 0 l 1,23,-1
 89 0 l 1,0,-1
EndSplineSet
Validated: 1
Substitution2: "'smcp' Lowercase to Small Capitals lookup 0 subtable" F.smcp
EndChar

StartChar: g
Encoding: 103 103 74
Width: 1151
GlyphClass: 1
Flags: W
LayerCount: 2
Fore
SplineSet
51 539 m 2,0,1
 90 801 90 801 222 951.5 c 128,-1,2
 354 1102 354 1102 557 1102 c 0,3,4
 640 1102 640 1102 698.5 1060 c 128,-1,5
 757 1018 757 1018 794 941 c 1,6,-1
 838 1082 l 1,7,-1
 1136 1082 l 1,8,-1
 976 12 l 2,9,10
 942 -210 942 -210 780 -323.5 c 128,-1,11
 618 -437 618 -437 358 -437 c 0,12,13
 277 -437 277 -437 186 -414 c 128,-1,14
 95 -391 95 -391 19 -352 c 1,15,-1
 115 -102 l 1,16,17
 183 -134 183 -134 247 -149.5 c 128,-1,18
 311 -165 311 -165 397 -165 c 0,19,20
 501 -165 501 -165 562 -121.5 c 128,-1,21
 623 -78 623 -78 637 14 c 2,22,-1
 649 97 l 1,23,24
 594 39 594 39 529 9 c 128,-1,25
 464 -21 464 -21 387 -21 c 0,26,27
 195 -21 195 -21 103 129 c 128,-1,28
 11 279 11 279 48 518 c 2,29,-1
 51 539 l 2,0,1
385 518 m 2,30,31
 364 382 364 382 391.5 310.5 c 128,-1,32
 419 239 419 239 512 239 c 0,33,34
 566 239 566 239 608.5 257 c 128,-1,35
 651 275 651 275 681 311 c 1,36,-1
 749 762 l 1,37,38
 730 801 730 801 694 821.5 c 128,-1,39
 658 842 658 842 604 842 c 0,40,41
 518 842 518 842 463 757.5 c 128,-1,42
 408 673 408 673 388 539 c 2,43,-1
 385 518 l 2,30,31
EndSplineSet
Validated: 33
Substitution2: "'smcp' Lowercase to Small Capitals lookup 0 subtable" G.smcp
EndChar

StartChar: h
Encoding: 104 104 75
Width: 1151
GlyphClass: 1
Flags: W
LayerCount: 2
Fore
SplineSet
487 955 m 1,0,1
 547 1026 547 1026 622.5 1064 c 128,-1,2
 698 1102 698 1102 784 1102 c 0,3,4
 946 1102 946 1102 1027.5 983.5 c 128,-1,5
 1109 865 1109 865 1072 622 c 2,6,-1
 979 0 l 1,7,-1
 641 0 l 1,8,-1
 735 624 l 2,9,10
 753 753 753 753 728.5 797.5 c 128,-1,11
 704 842 704 842 638 842 c 0,12,13
 582 842 582 842 538 824.5 c 128,-1,14
 494 807 494 807 460 775 c 1,15,-1
 344 0 l 1,16,-1
 6 0 l 1,17,-1
 240 1560 l 1,18,-1
 578 1560 l 1,19,-1
 487 955 l 1,0,1
EndSplineSet
Validated: 33
Substitution2: "'smcp' Lowercase to Small Capitals lookup 0 subtable" H.smcp
EndChar

StartChar: i
Encoding: 105 105 76
Width: 561
GlyphClass: 1
Flags: W
LayerCount: 2
Fore
SplineSet
370 0 m 1,0,-1
 31 0 l 1,1,-1
 193 1082 l 1,2,-1
 532 1082 l 1,3,-1
 370 0 l 1,0,-1
570 1333 m 1,4,-1
 231 1333 l 1,5,-1
 265 1560 l 1,6,-1
 604 1560 l 1,7,-1
 570 1333 l 1,4,-1
EndSplineSet
Validated: 1
Substitution2: "'smcp' Lowercase to Small Capitals lookup 0 subtable" I.smcp
EndChar

StartChar: j
Encoding: 106 106 77
Width: 548
GlyphClass: 1
Flags: W
LayerCount: 2
Fore
SplineSet
536 1082 m 1,0,-1
 372 -15 l 2,1,2
 340 -225 340 -225 216.5 -331 c 128,-1,3
 93 -437 93 -437 -102 -437 c 0,4,5
 -144 -437 -144 -437 -181 -433 c 128,-1,6
 -218 -429 -218 -429 -258 -420 c 1,7,-1
 -206 -165 l 1,8,9
 -178 -171 -178 -171 -158 -174 c 128,-1,10
 -138 -177 -138 -177 -107 -177 c 0,11,12
 -52 -177 -52 -177 -15.5 -135.5 c 128,-1,13
 21 -94 21 -94 33 -15 c 2,14,-1
 197 1082 l 1,15,-1
 536 1082 l 1,0,-1
568 1334 m 1,16,-1
 229 1334 l 1,17,-1
 263 1560 l 1,18,-1
 602 1560 l 1,19,-1
 568 1334 l 1,16,-1
EndSplineSet
Validated: 1
Substitution2: "'smcp' Lowercase to Small Capitals lookup 0 subtable" J.smcp
EndChar

StartChar: k
Encoding: 107 107 78
Width: 1119
GlyphClass: 1
Flags: W
LayerCount: 2
Fore
SplineSet
479 430 m 1,0,-1
 418 430 l 1,1,-1
 354 0 l 1,2,-1
 16 0 l 1,3,-1
 250 1560 l 1,4,-1
 588 1560 l 1,5,-1
 456 685 l 1,6,-1
 505 685 l 1,7,-1
 792 1082 l 1,8,-1
 1172 1082 l 1,9,-1
 1174 1077 l 1,10,-1
 774 594 l 1,11,-1
 1072 0 l 1,12,-1
 687 0 l 1,13,-1
 479 430 l 1,0,-1
EndSplineSet
Validated: 1
Substitution2: "'smcp' Lowercase to Small Capitals lookup 0 subtable" K.smcp
EndChar

StartChar: l
Encoding: 108 108 79
Width: 561
GlyphClass: 1
Flags: W
LayerCount: 2
Fore
SplineSet
370 0 m 1,0,-1
 31 0 l 1,1,-1
 265 1560 l 1,2,-1
 604 1560 l 1,3,-1
 370 0 l 1,0,-1
EndSplineSet
Validated: 1
Substitution2: "'smcp' Lowercase to Small Capitals lookup 0 subtable" L.smcp
EndChar

StartChar: m
Encoding: 109 109 80
Width: 1764
GlyphClass: 1
Flags: W
LayerCount: 2
Fore
SplineSet
487 944 m 1,0,1
 549 1020 549 1020 632.5 1061 c 128,-1,2
 716 1102 716 1102 817 1102 c 0,3,4
 913 1102 913 1102 980 1058.5 c 128,-1,5
 1047 1015 1047 1015 1072 926 c 1,6,7
 1134 1011 1134 1011 1220 1056.5 c 128,-1,8
 1306 1102 1306 1102 1413 1102 c 0,9,10
 1565 1102 1565 1102 1641.5 987.5 c 128,-1,11
 1718 873 1718 873 1683 639 c 2,12,-1
 1587 0 l 1,13,-1
 1248 0 l 1,14,-1
 1344 639 l 2,15,16
 1362 760 1362 760 1336.5 801 c 128,-1,17
 1311 842 1311 842 1244 842 c 0,18,19
 1196 842 1196 842 1155.5 823.5 c 128,-1,20
 1115 805 1115 805 1084 773 c 1,21,-1
 1078 722 l 1,22,-1
 970 0 l 1,23,-1
 632 0 l 1,24,-1
 728 639 l 2,25,26
 746 760 746 760 720.5 801 c 128,-1,27
 695 842 695 842 627 842 c 0,28,29
 583 842 583 842 543 824 c 128,-1,30
 503 806 503 806 470 774 c 1,31,-1
 354 0 l 1,32,-1
 16 0 l 1,33,-1
 178 1082 l 1,34,-1
 496 1082 l 1,35,-1
 487 944 l 1,0,1
EndSplineSet
Validated: 33
Substitution2: "'smcp' Lowercase to Small Capitals lookup 0 subtable" M.smcp
EndChar

StartChar: n
Encoding: 110 110 81
Width: 1151
GlyphClass: 1
Flags: W
LayerCount: 2
Fore
SplineSet
480 935 m 1,0,1
 545 1015 545 1015 629.5 1058.5 c 128,-1,2
 714 1102 714 1102 810 1102 c 0,3,4
 963 1102 963 1102 1039 993 c 128,-1,5
 1115 884 1115 884 1081 651 c 2,6,-1
 983 0 l 1,7,-1
 645 0 l 1,8,-1
 743 652 l 2,9,10
 759 759 759 759 732.5 800.5 c 128,-1,11
 706 842 706 842 642 842 c 0,12,13
 589 842 589 842 543 822 c 128,-1,14
 497 802 497 802 462 767 c 1,15,-1
 347 0 l 1,16,-1
 10 0 l 1,17,-1
 172 1082 l 1,18,-1
 489 1082 l 1,19,-1
 480 935 l 1,0,1
EndSplineSet
Validated: 33
Substitution2: "'smcp' Lowercase to Small Capitals lookup 0 subtable" N.smcp
EndChar

StartChar: o
Encoding: 111 111 82
Width: 1151
GlyphClass: 1
Flags: W
LayerCount: 2
Fore
SplineSet
54 551 m 2,0,1
 91 804 91 804 250 953 c 128,-1,2
 409 1102 409 1102 659 1102 c 0,3,4
 897 1102 897 1102 1016.5 947 c 128,-1,5
 1136 792 1136 792 1101 551 c 2,6,-1
 1098 530 l 2,7,8
 1059 276 1059 276 900.5 127.5 c 128,-1,9
 742 -21 742 -21 493 -21 c 0,10,11
 254 -21 254 -21 134 133.5 c 128,-1,12
 14 288 14 288 51 530 c 2,13,-1
 54 551 l 2,0,1
389 530 m 2,14,15
 367 390 367 390 398 314.5 c 128,-1,16
 429 239 429 239 532 239 c 0,17,18
 627 239 627 239 683.5 318 c 128,-1,19
 740 397 740 397 761 530 c 2,20,-1
 764 551 l 2,21,22
 784 687 784 687 753 764.5 c 128,-1,23
 722 842 722 842 620 842 c 0,24,25
 524 842 524 842 467 761 c 128,-1,26
 410 680 410 680 392 551 c 2,27,-1
 389 530 l 2,14,15
EndSplineSet
Validated: 33
Substitution2: "'smcp' Lowercase to Small Capitals lookup 0 subtable" O.smcp
EndChar

StartChar: p
Encoding: 112 112 83
Width: 1151
GlyphClass: 1
Flags: W
LayerCount: 2
Fore
SplineSet
1096 518 m 2,0,1
 1057 265 1057 265 927 122 c 128,-1,2
 797 -21 797 -21 595 -21 c 0,3,4
 518 -21 518 -21 462 10.5 c 128,-1,5
 406 42 406 42 369 103 c 1,6,-1
 292 -416 l 1,7,-1
 -46 -416 l 1,8,-1
 178 1082 l 1,9,-1
 497 1082 l 1,10,-1
 490 964 l 1,11,12
 545 1030 545 1030 612.5 1066 c 128,-1,13
 680 1102 680 1102 761 1102 c 0,14,15
 954 1102 954 1102 1045 945.5 c 128,-1,16
 1136 789 1136 789 1099 539 c 2,17,-1
 1096 518 l 2,0,1
762 539 m 2,18,19
 782 680 782 680 754.5 761 c 128,-1,20
 727 842 727 842 639 842 c 0,21,22
 584 842 584 842 541 820 c 128,-1,23
 498 798 498 798 467 756 c 1,24,-1
 400 308 l 1,25,26
 419 273 419 273 456.5 256 c 128,-1,27
 494 239 494 239 551 239 c 0,28,29
 637 239 637 239 687.5 313.5 c 128,-1,30
 738 388 738 388 759 518 c 2,31,-1
 762 539 l 2,18,19
EndSplineSet
Validated: 33
Substitution2: "'smcp' Lowercase to Small Capitals lookup 0 subtable" P.smcp
EndChar

StartChar: q
Encoding: 113 113 84
Width: 1151
GlyphClass: 1
Flags: W
LayerCount: 2
Fore
SplineSet
52 539 m 2,0,1
 91 801 91 801 223 951.5 c 128,-1,2
 355 1102 355 1102 558 1102 c 0,3,4
 640 1102 640 1102 699 1060.5 c 128,-1,5
 758 1019 758 1019 795 942 c 1,6,-1
 843 1082 l 1,7,-1
 1138 1082 l 1,8,-1
 914 -416 l 1,9,-1
 576 -416 l 1,10,-1
 653 100 l 1,11,12
 597 41 597 41 531.5 10 c 128,-1,13
 466 -21 466 -21 388 -21 c 0,14,15
 196 -21 196 -21 104 129 c 128,-1,16
 12 279 12 279 49 518 c 2,17,-1
 52 539 l 2,0,1
387 518 m 2,18,19
 366 382 366 382 393.5 310.5 c 128,-1,20
 421 239 421 239 513 239 c 0,21,22
 568 239 568 239 611 257.5 c 128,-1,23
 654 276 654 276 685 313 c 1,24,-1
 752 760 l 1,25,26
 733 800 733 800 696.5 821 c 128,-1,27
 660 842 660 842 605 842 c 0,28,29
 519 842 519 842 464.5 757.5 c 128,-1,30
 410 673 410 673 390 539 c 2,31,-1
 387 518 l 2,18,19
EndSplineSet
Validated: 33
Substitution2: "'smcp' Lowercase to Small Capitals lookup 0 subtable" Q.smcp
EndChar

StartChar: r
Encoding: 114 114 85
Width: 722
GlyphClass: 1
Flags: W
LayerCount: 2
Fore
SplineSet
733 794 m 1,0,-1
 623 795 l 2,1,2
 567 795 567 795 526 772.5 c 128,-1,3
 485 750 485 750 460 710 c 1,4,-1
 354 0 l 1,5,-1
 16 0 l 1,6,-1
 178 1082 l 1,7,-1
 496 1082 l 1,8,-1
 485 934 l 1,9,-1
 490 931 l 1,10,11
 532 1013 532 1013 594 1057.5 c 128,-1,12
 656 1102 656 1102 732 1102 c 0,13,14
 754 1102 754 1102 772.5 1099 c 128,-1,15
 791 1096 791 1096 810 1090 c 1,16,-1
 733 794 l 1,0,-1
EndSplineSet
Validated: 1
Substitution2: "'smcp' Lowercase to Small Capitals lookup 0 subtable" R.smcp
EndChar

StartChar: s
Encoding: 115 115 86
Width: 1048
GlyphClass: 1
Flags: W
LayerCount: 2
Fore
SplineSet
628 304 m 0,0,1
 633 345 633 345 592.5 376 c 128,-1,2
 552 407 552 407 434 432 c 0,3,4
 250 469 250 469 165 546.5 c 128,-1,5
 80 624 80 624 99 760 c 0,6,7
 119 908 119 908 252 1005 c 128,-1,8
 385 1102 385 1102 592 1102 c 0,9,10
 800 1102 800 1102 918 1004.5 c 128,-1,11
 1036 907 1036 907 1010 756 c 1,12,-1
 1008 750 l 1,13,-1
 679 750 l 1,14,15
 688 816 688 816 660.5 848 c 128,-1,16
 633 880 633 880 560 880 c 0,17,18
 508 880 508 880 467 851 c 128,-1,19
 426 822 426 822 421 777 c 0,20,21
 414 733 414 733 451.5 703.5 c 128,-1,22
 489 674 489 674 612 650 c 0,23,24
 805 611 805 611 889 533.5 c 128,-1,25
 973 456 973 456 954 314 c 0,26,27
 932 162 932 162 791.5 70.5 c 128,-1,28
 651 -21 651 -21 435 -21 c 0,29,30
 224 -21 224 -21 107 92 c 128,-1,31
 -10 205 -10 205 15 341 c 1,32,-1
 17 347 l 1,33,-1
 323 347 l 1,34,35
 314 270 314 270 353.5 236 c 128,-1,36
 393 202 393 202 475 202 c 0,37,38
 541 202 541 202 581 229 c 128,-1,39
 621 256 621 256 628 304 c 0,0,1
EndSplineSet
Validated: 33
Substitution2: "'smcp' Lowercase to Small Capitals lookup 0 subtable" S.smcp
EndChar

StartChar: t
Encoding: 116 116 87
Width: 723
GlyphClass: 1
Flags: W
LayerCount: 2
Fore
SplineSet
607 1351 m 1,0,-1
 566 1082 l 1,1,-1
 737 1082 l 1,2,-1
 702 848 l 1,3,-1
 531 848 l 1,4,-1
 457 352 l 2,5,6
 447 291 447 291 466.5 267 c 128,-1,7
 486 243 486 243 527 243 c 0,8,9
 552 243 552 243 569 245 c 128,-1,10
 586 247 586 247 610 253 c 1,11,-1
 595 3 l 1,12,13
 543 -10 543 -10 501 -15.5 c 128,-1,14
 459 -21 459 -21 403 -21 c 0,15,16
 242 -21 242 -21 166 69 c 128,-1,17
 90 159 90 159 119 350 c 2,18,-1
 193 848 l 1,19,-1
 42 848 l 1,20,-1
 77 1082 l 1,21,-1
 228 1082 l 1,22,-1
 269 1351 l 1,23,-1
 607 1351 l 1,0,-1
EndSplineSet
Validated: 33
Substitution2: "'smcp' Lowercase to Small Capitals lookup 0 subtable" T.smcp
EndChar

StartChar: u
Encoding: 117 117 88
Width: 1151
GlyphClass: 1
Flags: W
LayerCount: 2
Fore
SplineSet
693 157 m 1,0,1
 631 70 631 70 548 24.5 c 128,-1,2
 465 -21 465 -21 364 -21 c 0,3,4
 202 -21 202 -21 121 98 c 128,-1,5
 40 217 40 217 77 462 c 2,6,-1
 170 1082 l 1,7,-1
 507 1082 l 1,8,-1
 414 460 l 2,9,10
 394 328 394 328 419.5 283.5 c 128,-1,11
 445 239 445 239 514 239 c 0,12,13
 567 239 567 239 611 255 c 128,-1,14
 655 271 655 271 688 302 c 1,15,-1
 805 1082 l 1,16,-1
 1143 1082 l 1,17,-1
 981 0 l 1,18,-1
 709 0 l 1,19,-1
 693 157 l 1,0,1
EndSplineSet
Validated: 33
Substitution2: "'smcp' Lowercase to Small Capitals lookup 0 subtable" U.smcp
EndChar

StartChar: v
Encoding: 118 118 89
Width: 1053
GlyphClass: 1
Flags: W
LayerCount: 2
Fore
SplineSet
488 446 m 1,0,-1
 491 331 l 1,1,-1
 497 330 l 1,2,-1
 536 446 l 1,3,-1
 774 1082 l 1,4,-1
 1129 1082 l 1,5,-1
 615 0 l 1,6,-1
 272 0 l 1,7,-1
 82 1082 l 1,8,-1
 438 1082 l 1,9,-1
 488 446 l 1,0,-1
EndSplineSet
Validated: 1
Substitution2: "'smcp' Lowercase to Small Capitals lookup 0 subtable" V.smcp
EndChar

StartChar: w
Encoding: 119 119 90
Width: 1485
GlyphClass: 1
Flags: W
LayerCount: 2
Fore
SplineSet
1016 477 m 1,0,-1
 1022 477 l 1,1,-1
 1220 1082 l 1,2,-1
 1542 1082 l 1,3,-1
 1126 0 l 1,4,-1
 840 0 l 1,5,-1
 748 554 l 1,6,-1
 742 555 l 1,7,-1
 481 0 l 1,8,-1
 196 0 l 1,9,-1
 103 1082 l 1,10,-1
 425 1082 l 1,11,-1
 442 474 l 1,12,-1
 448 473 l 1,13,-1
 716 1082 l 1,14,-1
 929 1082 l 1,15,-1
 1016 477 l 1,0,-1
EndSplineSet
Validated: 1
Substitution2: "'smcp' Lowercase to Small Capitals lookup 0 subtable" W.smcp
EndChar

StartChar: x
Encoding: 120 120 91
Width: 1053
GlyphClass: 1
Flags: W
LayerCount: 2
Fore
SplineSet
558 764 m 1,0,-1
 564 763 l 1,1,-1
 749 1082 l 1,2,-1
 1128 1082 l 1,3,-1
 734 547 l 1,4,-1
 977 0 l 1,5,-1
 598 0 l 1,6,-1
 503 329 l 1,7,-1
 497 329 l 1,8,-1
 304 0 l 1,9,-1
 -75 0 l 1,10,-1
 332 547 l 1,11,-1
 97 1082 l 1,12,-1
 474 1082 l 1,13,-1
 558 764 l 1,0,-1
EndSplineSet
Validated: 1
Substitution2: "'smcp' Lowercase to Small Capitals lookup 0 subtable" X.smcp
EndChar

StartChar: y
Encoding: 121 121 92
Width: 1053
GlyphClass: 1
Flags: W
LayerCount: 2
Fore
SplineSet
507 477 m 1,0,-1
 507 472 l 1,1,-1
 513 470 l 1,2,-1
 783 1082 l 1,3,-1
 1143 1082 l 1,4,-1
 526 -161 l 1,5,6
 459 -281 459 -281 367.5 -359 c 128,-1,7
 276 -437 276 -437 104 -437 c 0,8,9
 62 -437 62 -437 33 -431 c 128,-1,10
 4 -425 4 -425 -52 -411 c 1,11,-1
 26 -170 l 1,12,13
 38 -173 38 -173 45.5 -174.5 c 128,-1,14
 53 -176 53 -176 64 -176 c 0,15,16
 140 -176 140 -176 182.5 -152 c 128,-1,17
 225 -128 225 -128 250 -82 c 2,18,-1
 287 -12 l 1,19,-1
 77 1082 l 1,20,-1
 436 1082 l 1,21,-1
 507 477 l 1,0,-1
EndSplineSet
Validated: 1
Substitution2: "'smcp' Lowercase to Small Capitals lookup 0 subtable" Y.smcp
EndChar

StartChar: z
Encoding: 122 122 93
Width: 1053
GlyphClass: 1
Flags: W
LayerCount: 2
Fore
SplineSet
456 265 m 1,0,-1
 458 260 l 1,1,-1
 943 260 l 1,2,-1
 904 0 l 1,3,-1
 -15 0 l 1,4,-1
 13 188 l 1,5,-1
 584 817 l 1,6,-1
 582 822 l 1,7,-1
 129 822 l 1,8,-1
 168 1082 l 1,9,-1
 1056 1082 l 1,10,-1
 1029 900 l 1,11,-1
 456 265 l 1,0,-1
EndSplineSet
Validated: 1
Substitution2: "'smcp' Lowercase to Small Capitals lookup 0 subtable" Z.smcp
EndChar

StartChar: braceleft
Encoding: 123 123 94
Width: 665
GlyphClass: 1
Flags: W
LayerCount: 2
Fore
SplineSet
437 -360 m 1,0,1
 249 -305 249 -305 183 -185 c 128,-1,2
 117 -65 117 -65 142 106 c 2,3,-1
 170 309 l 2,4,5
 183 405 183 405 151 455 c 128,-1,6
 119 505 119 505 36 505 c 1,7,-1
 44 566 l 1,8,-1
 67 732 l 1,9,10
 146 732 146 732 194.5 784 c 128,-1,11
 243 836 243 836 257 929 c 2,12,-1
 285 1132 l 2,13,14
 309 1309 309 1309 407.5 1425.5 c 128,-1,15
 506 1542 506 1542 711 1597 c 1,16,-1
 749 1421 l 1,17,18
 672 1392 672 1392 632.5 1318 c 128,-1,19
 593 1244 593 1244 577 1132 c 2,20,-1
 549 929 l 2,21,22
 533 820 533 820 476 740 c 128,-1,23
 419 660 419 660 318 616 c 1,24,25
 403 569 403 569 439 488.5 c 128,-1,26
 475 408 475 408 462 309 c 2,27,-1
 434 106 l 2,28,29
 417 -10 417 -10 436 -81.5 c 128,-1,30
 455 -153 455 -153 524 -183 c 1,31,-1
 437 -360 l 1,0,1
EndSplineSet
Validated: 33
EndChar

StartChar: bar
Encoding: 124 124 95
Width: 523
GlyphClass: 1
Flags: W
LayerCount: 2
Fore
SplineSet
268 -270 m 1,0,-1
 22 -270 l 1,1,-1
 280 1456 l 1,2,-1
 526 1456 l 1,3,-1
 268 -270 l 1,0,-1
EndSplineSet
Validated: 1
EndChar

StartChar: braceright
Encoding: 125 125 96
Width: 665
GlyphClass: 1
Flags: W
LayerCount: 2
Fore
SplineSet
-60 -183 m 1,0,1
 16 -154 16 -154 56 -80 c 128,-1,2
 96 -6 96 -6 112 106 c 2,3,-1
 140 309 l 2,4,5
 154 417 154 417 211.5 497 c 128,-1,6
 269 577 269 577 371 622 c 1,7,8
 285 668 285 668 249 748 c 128,-1,9
 213 828 213 828 227 929 c 2,10,-1
 255 1132 l 2,11,12
 271 1247 271 1247 252 1319 c 128,-1,13
 233 1391 233 1391 165 1421 c 1,14,-1
 253 1597 l 1,15,16
 439 1542 439 1542 505 1422.5 c 128,-1,17
 571 1303 571 1303 547 1132 c 2,18,-1
 519 929 l 2,19,20
 505 832 505 832 537 782 c 128,-1,21
 569 732 569 732 653 732 c 1,22,-1
 644 671 l 1,23,-1
 645 671 l 1,24,-1
 622 505 l 1,25,26
 542 505 542 505 493.5 452.5 c 128,-1,27
 445 400 445 400 432 309 c 2,28,-1
 404 106 l 2,29,30
 379 -71 379 -71 280.5 -188 c 128,-1,31
 182 -305 182 -305 -21 -360 c 1,32,-1
 -60 -183 l 1,0,1
EndSplineSet
Validated: 33
EndChar

StartChar: asciitilde
Encoding: 126 126 97
Width: 1295
GlyphClass: 1
Flags: W
LayerCount: 2
Fore
SplineSet
1230 769 m 1,0,1
 1204 588 1204 588 1100.5 477.5 c 128,-1,2
 997 367 997 367 858 367 c 0,3,4
 778 367 778 367 709.5 398 c 128,-1,5
 641 429 641 429 577 497 c 0,6,7
 536 540 536 540 506 558 c 128,-1,8
 476 576 476 576 435 576 c 0,9,10
 393 576 393 576 354.5 525.5 c 128,-1,11
 316 475 316 475 307 405 c 1,12,-1
 80 435 l 1,13,14
 105 617 105 617 207 726.5 c 128,-1,15
 309 836 309 836 449 836 c 0,16,17
 527 836 527 836 599.5 803 c 128,-1,18
 672 770 672 770 734 707 c 0,19,20
 772 664 772 664 802.5 646 c 128,-1,21
 833 628 833 628 872 628 c 0,22,23
 914 628 914 628 953 678.5 c 128,-1,24
 992 729 992 729 1002 800 c 1,25,-1
 1230 769 l 1,0,1
EndSplineSet
Validated: 1
EndChar

StartChar: exclamdown
Encoding: 161 161 99
Width: 615
GlyphClass: 1
Flags: W
LayerCount: 2
Fore
SplineSet
344 -374 m 1,0,-1
 5 -374 l 1,1,-1
 146 566 l 1,2,-1
 485 566 l 1,3,-1
 344 -374 l 1,0,-1
520 799 m 1,4,-1
 181 799 l 1,5,-1
 223 1082 l 1,6,-1
 562 1082 l 1,7,-1
 520 799 l 1,4,-1
EndSplineSet
Validated: 1
EndChar

StartChar: cent
Encoding: 162 162 100
Width: 1210
GlyphClass: 1
Flags: W
LayerCount: 2
Fore
SplineSet
515 239 m 0,0,1
 581 239 581 239 622 277 c 128,-1,2
 663 315 663 315 674 385 c 1,3,-1
 982 385 l 1,4,-1
 985 379 l 1,5,6
 965 233 965 233 869.5 133.5 c 128,-1,7
 774 34 774 34 630 -2 c 1,8,-1
 594 -245 l 1,9,-1
 394 -245 l 1,10,-1
 428 -19 l 1,11,12
 214 -2 214 -2 112 149.5 c 128,-1,13
 10 301 10 301 44 529 c 1,14,-1
 48 552 l 1,15,16
 83 792 83 792 225 939 c 128,-1,17
 367 1086 367 1086 596 1100 c 1,18,-1
 629 1318 l 1,19,-1
 829 1318 l 1,20,-1
 793 1081 l 1,21,22
 924 1040 924 1040 989.5 933 c 128,-1,23
 1055 826 1055 826 1032 668 c 1,24,-1
 716 668 l 1,25,26
 728 748 728 748 700.5 795 c 128,-1,27
 673 842 673 842 603 842 c 0,28,29
 509 842 509 842 456.5 762 c 128,-1,30
 404 682 404 682 385 552 c 2,31,-1
 381 529 l 2,32,33
 360 388 360 388 387 313.5 c 128,-1,34
 414 239 414 239 515 239 c 0,0,1
EndSplineSet
Validated: 33
EndChar

StartChar: sterling
Encoding: 163 163 101
Width: 1227
GlyphClass: 1
Flags: W
LayerCount: 2
Fore
SplineSet
617 575 m 1,0,-1
 612 524 l 1,1,2
 600 448 600 448 556.5 380.5 c 128,-1,3
 513 313 513 313 442 260 c 1,4,-1
 1131 260 l 1,5,-1
 1092 0 l 1,6,-1
 86 0 l 1,7,-1
 125 260 l 1,8,-1
 135 260 l 1,9,10
 184 272 184 272 218 346.5 c 128,-1,11
 252 421 252 421 265 503 c 2,12,-1
 273 575 l 1,13,-1
 109 575 l 1,14,-1
 148 836 l 1,15,-1
 302 836 l 1,16,-1
 323 1021 l 1,17,18
 355 1242 355 1242 496.5 1359.5 c 128,-1,19
 638 1477 638 1477 850 1477 c 0,20,21
 1064 1477 1064 1477 1173 1361 c 128,-1,22
 1282 1245 1282 1245 1250 1058 c 1,23,-1
 1247 1052 l 1,24,-1
 917 1052 l 1,25,26
 930 1141 930 1141 899 1179 c 128,-1,27
 868 1217 868 1217 810 1217 c 0,28,29
 755 1217 755 1217 714.5 1165.5 c 128,-1,30
 674 1114 674 1114 661 1021 c 2,31,-1
 642 836 l 1,32,-1
 967 836 l 1,33,-1
 928 575 l 1,34,-1
 617 575 l 1,0,-1
EndSplineSet
Validated: 33
EndChar

StartChar: currency
Encoding: 164 164 102
Width: 1397
GlyphClass: 1
Flags: W
LayerCount: 2
Fore
SplineSet
1000 105 m 1,0,1
 915 44 915 44 817 12 c 128,-1,2
 719 -20 719 -20 617 -20 c 0,3,4
 519 -20 519 -20 432.5 13 c 128,-1,5
 346 46 346 46 278 109 c 1,6,-1
 126 -26 l 1,7,-1
 7 118 l 1,8,-1
 165 258 l 1,9,10
 127 334 127 334 113.5 423 c 128,-1,11
 100 512 100 512 115 608 c 0,12,13
 130 713 130 713 171.5 806 c 128,-1,14
 213 899 213 899 276 976 c 1,15,-1
 157 1120 l 1,16,-1
 320 1264 l 1,17,-1
 438 1122 l 1,18,19
 520 1176 520 1176 614 1205 c 128,-1,20
 708 1234 708 1234 805 1234 c 0,21,22
 898 1234 898 1234 982 1202.5 c 128,-1,23
 1066 1171 1066 1171 1133 1114 c 1,24,-1
 1303 1265 l 1,25,-1
 1423 1120 l 1,26,-1
 1250 967 l 1,27,28
 1290 889 1290 889 1304.5 798 c 128,-1,29
 1319 707 1319 707 1305 608 c 0,30,31
 1289 508 1289 508 1251 419.5 c 128,-1,32
 1213 331 1213 331 1157 256 c 1,33,-1
 1273 118 l 1,34,-1
 1109 -27 l 1,35,-1
 1000 105 l 1,0,1
301 608 m 0,36,37
 272 417 272 417 372 295 c 128,-1,38
 472 173 472 173 646 173 c 0,39,40
 810 173 810 173 951 299.5 c 128,-1,41
 1092 426 1092 426 1120 608 c 0,42,43
 1148 798 1148 798 1048 920 c 128,-1,44
 948 1042 948 1042 776 1042 c 0,45,46
 610 1042 610 1042 469 915.5 c 128,-1,47
 328 789 328 789 301 608 c 0,36,37
EndSplineSet
Validated: 33
EndChar

StartChar: yen
Encoding: 165 165 103
Width: 1258
GlyphClass: 1
Flags: W
LayerCount: 2
Fore
SplineSet
680 878 m 1,0,-1
 686 877 l 1,1,-1
 1016 1456 l 1,2,-1
 1382 1456 l 1,3,-1
 909 742 l 1,4,-1
 1122 742 l 1,5,-1
 1095 558 l 1,6,-1
 799 558 l 1,7,-1
 784 452 l 1,8,-1
 1079 452 l 1,9,-1
 1051 269 l 1,10,-1
 756 269 l 1,11,-1
 716 0 l 1,12,-1
 379 0 l 1,13,-1
 419 269 l 1,14,-1
 96 269 l 1,15,-1
 124 452 l 1,16,-1
 447 452 l 1,17,-1
 462 558 l 1,18,-1
 140 558 l 1,19,-1
 167 742 l 1,20,-1
 416 742 l 1,21,-1
 156 1456 l 1,22,-1
 523 1456 l 1,23,-1
 680 878 l 1,0,-1
EndSplineSet
Validated: 1
EndChar

StartChar: brokenbar
Encoding: 166 166 104
Width: 524
GlyphClass: 1
Flags: W
LayerCount: 2
Fore
SplineSet
-2 -270 m 1,0,-1
 118 525 l 1,1,-1
 410 525 l 1,2,-1
 291 -270 l 1,3,-1
 -2 -270 l 1,0,-1
436 698 m 1,4,-1
 144 698 l 1,5,-1
 257 1456 l 1,6,-1
 549 1456 l 1,7,-1
 436 698 l 1,4,-1
EndSplineSet
Validated: 1
EndChar

StartChar: section
Encoding: 167 167 105
Width: 1301
GlyphClass: 1
Flags: W
LayerCount: 2
Fore
SplineSet
1191 500 m 0,0,1
 1177 407 1177 407 1128 339.5 c 128,-1,2
 1079 272 1079 272 999 229 c 1,3,4
 1058 177 1058 177 1081 106.5 c 128,-1,5
 1104 36 1104 36 1090 -61 c 0,6,7
 1061 -248 1061 -248 905 -345.5 c 128,-1,8
 749 -443 749 -443 502 -443 c 0,9,10
 272 -443 272 -443 126 -344.5 c 128,-1,11
 -20 -246 -20 -246 17 -31 c 1,12,-1
 19 -25 l 1,13,-1
 348 -25 l 1,14,15
 334 -116 334 -116 388.5 -149 c 128,-1,16
 443 -182 443 -182 541 -182 c 0,17,18
 631 -182 631 -182 687 -149.5 c 128,-1,19
 743 -117 743 -117 752 -62 c 0,20,21
 760 -3 760 -3 711.5 31 c 128,-1,22
 663 65 663 65 515 109 c 0,23,24
 278 173 278 173 173 266 c 128,-1,25
 68 359 68 359 93 528 c 0,26,27
 107 619 107 619 156.5 687.5 c 128,-1,28
 206 756 206 756 288 800 c 1,29,30
 227 851 227 851 203 921.5 c 128,-1,31
 179 992 179 992 194 1090 c 0,32,33
 220 1272 220 1272 380 1374.5 c 128,-1,34
 540 1477 540 1477 786 1477 c 0,35,36
 1026 1477 1026 1477 1154 1365.5 c 128,-1,37
 1282 1254 1282 1254 1248 1057 c 1,38,-1
 1246 1051 l 1,39,-1
 917 1051 l 1,40,41
 927 1127 927 1127 884 1172 c 128,-1,42
 841 1217 841 1217 747 1217 c 0,43,44
 652 1217 652 1217 596 1181.5 c 128,-1,45
 540 1146 540 1146 533 1092 c 0,46,47
 523 1026 523 1026 567 994.5 c 128,-1,48
 611 963 611 963 766 920 c 0,49,50
 1005 858 1005 858 1110.5 763.5 c 128,-1,51
 1216 669 1216 669 1191 500 c 0,0,1
615 652 m 0,52,53
 588 659 588 659 562 667.5 c 128,-1,54
 536 676 536 676 505 687 c 1,55,56
 476 666 476 666 458.5 635 c 128,-1,57
 441 604 441 604 436 568 c 0,58,59
 424 495 424 495 466.5 460.5 c 128,-1,60
 509 426 509 426 666 376 c 0,61,62
 698 366 698 366 725 358 c 128,-1,63
 752 350 752 350 777 342 c 1,64,65
 808 363 808 363 827.5 393.5 c 128,-1,66
 847 424 847 424 853 462 c 0,67,68
 862 526 862 526 812.5 565 c 128,-1,69
 763 604 763 604 615 652 c 0,52,53
EndSplineSet
Validated: 33
EndChar

StartChar: dieresis
Encoding: 168 168 106
Width: 1123
GlyphClass: 1
Flags: W
LayerCount: 2
Fore
SplineSet
1053 1252 m 1,0,-1
 763 1252 l 1,1,-1
 792 1456 l 1,2,-1
 1082 1456 l 1,3,-1
 1053 1252 l 1,0,-1
538 1252 m 1,4,-1
 248 1252 l 1,5,-1
 277 1456 l 1,6,-1
 567 1456 l 1,7,-1
 538 1252 l 1,4,-1
EndSplineSet
Validated: 1
EndChar

StartChar: copyright
Encoding: 169 169 107
Width: 1608
GlyphClass: 1
Flags: W
LayerCount: 2
Fore
SplineSet
1116 596 m 1,0,-1
 1118 590 l 1,1,2
 1099 434 1099 434 1000.5 358 c 128,-1,3
 902 282 902 282 743 282 c 0,4,5
 589 282 589 282 507.5 389.5 c 128,-1,6
 426 497 426 497 452 669 c 2,7,-1
 470 788 l 2,8,9
 496 967 496 967 605.5 1071 c 128,-1,10
 715 1175 715 1175 877 1175 c 0,11,12
 1029 1175 1029 1175 1108 1094.5 c 128,-1,13
 1187 1014 1187 1014 1161 866 c 1,14,-1
 1159 861 l 1,15,-1
 1010 861 l 1,16,17
 1024 958 1024 958 986 999 c 128,-1,18
 948 1040 948 1040 857 1040 c 256,19,20
 766 1040 766 1040 703.5 970.5 c 128,-1,21
 641 901 641 901 625 789 c 2,22,-1
 607 669 l 2,23,24
 589 550 589 550 629 483.5 c 128,-1,25
 669 417 669 417 764 417 c 0,26,27
 851 417 851 417 903 459 c 128,-1,28
 955 501 955 501 969 596 c 1,29,-1
 1116 596 l 1,0,-1
236 729 m 0,30,31
 195 455 195 455 339 279.5 c 128,-1,32
 483 104 483 104 731 104 c 0,33,34
 966 104 966 104 1168.5 286 c 128,-1,35
 1371 468 1371 468 1411 729 c 0,36,37
 1452 1002 1452 1002 1308.5 1176.5 c 128,-1,38
 1165 1351 1165 1351 918 1351 c 0,39,40
 681 1351 681 1351 478 1170 c 128,-1,41
 275 989 275 989 236 729 c 0,30,31
114 729 m 0,42,43
 163 1056 163 1056 399.5 1266 c 128,-1,44
 636 1476 636 1476 936 1476 c 0,45,46
 1219 1476 1219 1476 1400 1258 c 128,-1,47
 1581 1040 1581 1040 1534 729 c 0,48,49
 1485 401 1485 401 1247.5 190 c 128,-1,50
 1010 -21 1010 -21 712 -21 c 0,51,52
 428 -21 428 -21 247.5 197.5 c 128,-1,53
 67 416 67 416 114 729 c 0,42,43
EndSplineSet
Validated: 33
EndChar

StartChar: ordfeminine
Encoding: 170 170 108
Width: 904
GlyphClass: 1
Flags: W
LayerCount: 2
Fore
SplineSet
626 706 m 1,0,1
 621 727 621 727 619.5 750.5 c 128,-1,2
 618 774 618 774 619 800 c 1,3,4
 579 753 579 753 518.5 722.5 c 128,-1,5
 458 692 458 692 381 692 c 0,6,7
 267 692 267 692 208.5 754 c 128,-1,8
 150 816 150 816 166 920 c 0,9,10
 183 1034 183 1034 275.5 1092.5 c 128,-1,11
 368 1151 368 1151 532 1151 c 2,12,-1
 668 1151 l 1,13,-1
 676 1202 l 2,14,15
 685 1266 685 1266 661 1297.5 c 128,-1,16
 637 1329 637 1329 579 1329 c 0,17,18
 516 1329 516 1329 474.5 1303 c 128,-1,19
 433 1277 433 1277 427 1230 c 1,20,-1
 265 1243 l 1,21,-1
 264 1249 l 1,22,23
 273 1351 273 1351 366.5 1414 c 128,-1,24
 460 1477 460 1477 602 1477 c 0,25,26
 731 1477 731 1477 801 1405 c 128,-1,27
 871 1333 871 1333 851 1201 c 2,28,-1
 804 887 l 2,29,30
 796 835 796 835 795.5 791.5 c 128,-1,31
 795 748 795 748 803 706 c 1,32,-1
 626 706 l 1,0,1
445 836 m 0,33,34
 493 836 493 836 552.5 865.5 c 128,-1,35
 612 895 612 895 635 930 c 1,36,-1
 651 1034 l 1,37,-1
 515 1034 l 2,38,39
 444 1034 444 1034 396 1001.5 c 128,-1,40
 348 969 348 969 342 924 c 0,41,42
 335 880 335 880 360 858 c 128,-1,43
 385 836 385 836 445 836 c 0,33,34
EndSplineSet
Validated: 33
EndChar

StartChar: logicalnot
Encoding: 172 172 110
Width: 1124
GlyphClass: 1
Flags: W
LayerCount: 2
Fore
SplineSet
975 634 m 1,0,-1
 936 374 l 1,1,-1
 736 374 l 1,2,-1
 775 634 l 1,3,-1
 140 634 l 1,4,-1
 166 805 l 1,5,-1
 1001 805 l 1,6,-1
 975 634 l 1,0,-1
EndSplineSet
Validated: 1
EndChar

StartChar: registered
Encoding: 174 174 112
Width: 1608
GlyphClass: 1
Flags: W
LayerCount: 2
Fore
SplineSet
114 729 m 0,0,1
 163 1056 163 1056 399.5 1266 c 128,-1,2
 636 1476 636 1476 936 1476 c 0,3,4
 1219 1476 1219 1476 1400 1258 c 128,-1,5
 1581 1040 1581 1040 1534 729 c 0,6,7
 1485 401 1485 401 1247.5 190 c 128,-1,8
 1010 -21 1010 -21 712 -21 c 0,9,10
 428 -21 428 -21 247.5 197.5 c 128,-1,11
 67 416 67 416 114 729 c 0,0,1
236 729 m 0,12,13
 195 455 195 455 339 279.5 c 128,-1,14
 483 104 483 104 731 104 c 0,15,16
 966 104 966 104 1168.5 286 c 128,-1,17
 1371 468 1371 468 1411 729 c 0,18,19
 1452 1002 1452 1002 1308.5 1176.5 c 128,-1,20
 1165 1351 1165 1351 918 1351 c 0,21,22
 681 1351 681 1351 478 1170 c 128,-1,23
 275 989 275 989 236 729 c 0,12,13
669 653 m 1,24,-1
 618 316 l 1,25,-1
 467 316 l 1,26,-1
 595 1166 l 1,27,-1
 876 1166 l 2,28,29
 1021 1166 1021 1166 1100 1096.5 c 128,-1,30
 1179 1027 1179 1027 1161 902 c 0,31,32
 1152 843 1152 843 1118 800.5 c 128,-1,33
 1084 758 1084 758 1027 730 c 1,34,35
 1076 698 1076 698 1093 643 c 128,-1,36
 1110 588 1110 588 1100 515 c 2,37,-1
 1092 459 l 2,38,39
 1085 416 1085 416 1084 384.5 c 128,-1,40
 1083 353 1083 353 1090 332 c 1,41,-1
 1087 316 l 1,42,-1
 932 316 l 1,43,44
 927 337 927 337 930.5 375 c 128,-1,45
 934 413 934 413 941 460 c 2,46,-1
 949 514 l 2,47,48
 960 588 960 588 932 620.5 c 128,-1,49
 904 653 904 653 827 653 c 2,50,-1
 669 653 l 1,24,-1
689 787 m 1,51,-1
 817 787 l 2,52,53
 889 787 889 787 946 817.5 c 128,-1,54
 1003 848 1003 848 1011 903 c 0,55,56
 1022 978 1022 978 988.5 1005.5 c 128,-1,57
 955 1033 955 1033 856 1033 c 2,58,-1
 726 1033 l 1,59,-1
 689 787 l 1,51,-1
EndSplineSet
Validated: 33
EndChar

StartChar: macron
Encoding: 175 175 113
AltUni2: 0002c9.ffffffff.0 0002c9.ffffffff.0
Width: 1065
GlyphClass: 1
Flags: W
LayerCount: 2
Fore
SplineSet
1000 1285 m 1,0,-1
 266 1285 l 1,1,-1
 290 1458 l 1,2,-1
 1024 1458 l 1,3,-1
 1000 1285 l 1,0,-1
EndSplineSet
Validated: 1
EndChar

StartChar: degree
Encoding: 176 176 114
Width: 813
GlyphClass: 1
Flags: W
LayerCount: 2
Fore
SplineSet
225 1197 m 0,0,1
 242 1317 242 1317 336.5 1397.5 c 128,-1,2
 431 1478 431 1478 548 1478 c 0,3,4
 656 1478 656 1478 727 1394.5 c 128,-1,5
 798 1311 798 1311 781 1197 c 0,6,7
 762 1077 762 1077 670 998.5 c 128,-1,8
 578 920 578 920 464 920 c 0,9,10
 352 920 352 920 279.5 1001.5 c 128,-1,11
 207 1083 207 1083 225 1197 c 0,0,1
380 1197 m 0,12,13
 371 1142 371 1142 402.5 1107.5 c 128,-1,14
 434 1073 434 1073 487 1073 c 0,15,16
 536 1073 536 1073 577 1108 c 128,-1,17
 618 1143 618 1143 627 1197 c 0,18,19
 635 1253 635 1253 605.5 1289 c 128,-1,20
 576 1325 576 1325 525 1325 c 0,21,22
 475 1325 475 1325 431.5 1287.5 c 128,-1,23
 388 1250 388 1250 380 1197 c 0,12,13
EndSplineSet
Validated: 33
EndChar

StartChar: plusminus
Encoding: 177 177 115
Width: 1103
GlyphClass: 1
Flags: W
LayerCount: 2
Fore
SplineSet
752 994 m 1,0,-1
 1064 994 l 1,1,-1
 1026 723 l 1,2,-1
 714 723 l 1,3,-1
 663 355 l 1,4,-1
 370 355 l 1,5,-1
 421 723 l 1,6,-1
 110 723 l 1,7,-1
 148 994 l 1,8,-1
 459 994 l 1,9,-1
 507 1333 l 1,10,-1
 800 1333 l 1,11,-1
 752 994 l 1,0,-1
854 -66 m 1,12,-1
 20 -66 l 1,13,-1
 59 198 l 1,14,-1
 893 198 l 1,15,-1
 854 -66 l 1,12,-1
EndSplineSet
Validated: 1
EndChar

StartChar: twosuperior
Encoding: 178 178 116
Width: 856
GlyphClass: 1
Flags: W
LayerCount: 2
Fore
SplineSet
766 667 m 1,0,-1
 129 667 l 1,1,-1
 154 834 l 1,2,-1
 504 1081 l 2,3,4
 568 1127 568 1127 588 1158.5 c 128,-1,5
 608 1190 608 1190 615 1231 c 0,6,7
 619 1267 619 1267 601.5 1290 c 128,-1,8
 584 1313 584 1313 538 1313 c 0,9,10
 491 1313 491 1313 461 1284 c 128,-1,11
 431 1255 431 1255 425 1209 c 1,12,-1
 207 1209 l 1,13,-1
 205 1215 l 1,14,15
 217 1328 217 1328 318 1403.5 c 128,-1,16
 419 1479 419 1479 571 1479 c 0,17,18
 713 1479 713 1479 786.5 1412.5 c 128,-1,19
 860 1346 860 1346 843 1230 c 0,20,21
 829 1143 829 1143 763.5 1080 c 128,-1,22
 698 1017 698 1017 550 913 c 1,23,-1
 453 840 l 1,24,-1
 454 834 l 1,25,-1
 791 834 l 1,26,-1
 766 667 l 1,0,-1
EndSplineSet
Validated: 33
EndChar

StartChar: threesuperior
Encoding: 179 179 117
Width: 846
GlyphClass: 1
Flags: W
LayerCount: 2
Fore
SplineSet
390 1139 m 1,0,-1
 491 1139 l 2,1,2
 549 1139 549 1139 581.5 1162.5 c 128,-1,3
 614 1186 614 1186 621 1229 c 0,4,5
 626 1265 626 1265 606 1288.5 c 128,-1,6
 586 1312 586 1312 536 1312 c 0,7,8
 489 1312 489 1312 459.5 1291 c 128,-1,9
 430 1270 430 1270 426 1243 c 1,10,-1
 208 1243 l 1,11,-1
 207 1249 l 1,12,13
 217 1358 217 1358 315 1418 c 128,-1,14
 413 1478 413 1478 553 1478 c 0,15,16
 702 1478 702 1478 786 1418 c 128,-1,17
 870 1358 870 1358 854 1249 c 0,18,19
 845 1192 845 1192 803.5 1146.5 c 128,-1,20
 762 1101 762 1101 697 1076 c 1,21,22
 762 1052 762 1052 793 1004.5 c 128,-1,23
 824 957 824 957 815 891 c 0,24,25
 797 774 797 774 700 714.5 c 128,-1,26
 603 655 603 655 445 655 c 0,27,28
 296 655 296 655 207 720.5 c 128,-1,29
 118 786 118 786 142 900 c 1,30,-1
 144 906 l 1,31,-1
 364 906 l 1,32,33
 357 863 357 863 382.5 842.5 c 128,-1,34
 408 822 408 822 467 822 c 0,35,36
 514 822 514 822 548 843.5 c 128,-1,37
 582 865 582 865 589 907 c 0,38,39
 595 953 595 953 565 979 c 128,-1,40
 535 1005 535 1005 471 1005 c 2,41,-1
 370 1005 l 1,42,-1
 384 1099 l 1,43,-1
 390 1139 l 1,0,-1
EndSplineSet
Validated: 33
EndChar

StartChar: acute
Encoding: 180 180 118
Width: 762
GlyphClass: 1
Flags: W
LayerCount: 2
Fore
SplineSet
451 1518 m 1,0,-1
 821 1518 l 1,1,-1
 823 1512 l 1,2,-1
 505 1252 l 1,3,-1
 214 1252 l 1,4,-1
 212 1257 l 1,5,-1
 451 1518 l 1,0,-1
EndSplineSet
Validated: 1
EndChar

StartChar: mu
Encoding: 181 181 119
Width: 1313
GlyphClass: 1
Flags: W
LayerCount: 2
Fore
SplineSet
552 1082 m 1,0,-1
 459 462 l 2,1,2
 439 330 439 330 471 286.5 c 128,-1,3
 503 243 503 243 589 243 c 0,4,5
 654 243 654 243 702.5 267.5 c 128,-1,6
 751 292 751 292 785 339 c 1,7,-1
 896 1082 l 1,8,-1
 1233 1082 l 1,9,-1
 1071 0 l 1,10,-1
 754 0 l 1,11,-1
 757 49 l 1,12,13
 709 14 709 14 653.5 -3.5 c 128,-1,14
 598 -21 598 -21 536 -21 c 0,15,16
 495 -21 495 -21 458.5 -11.5 c 128,-1,17
 422 -2 422 -2 392 15 c 1,18,-1
 328 -416 l 1,19,-1
 -10 -416 l 1,20,-1
 214 1082 l 1,21,-1
 552 1082 l 1,0,-1
EndSplineSet
Validated: 33
EndChar

StartChar: paragraph
Encoding: 182 182 120
Width: 1113
GlyphClass: 1
Flags: W
LayerCount: 2
Fore
SplineSet
555 0 m 1,0,-1
 633 520 l 1,1,-1
 550 520 l 2,2,3
 326 520 326 520 211.5 651 c 128,-1,4
 97 782 97 782 128 988 c 0,5,6
 160 1202 160 1202 307.5 1329 c 128,-1,7
 455 1456 455 1456 690 1456 c 2,8,-1
 1112 1456 l 1,9,-1
 894 0 l 1,10,-1
 555 0 l 1,0,-1
EndSplineSet
Validated: 33
EndChar

StartChar: periodcentered
Encoding: 183 183 121
Width: 657
GlyphClass: 1
Flags: W
LayerCount: 2
Fore
SplineSet
497 539 m 1,0,-1
 159 539 l 1,1,-1
 201 823 l 1,2,-1
 539 823 l 1,3,-1
 497 539 l 1,0,-1
EndSplineSet
Validated: 1
EndChar

StartChar: cedilla
Encoding: 184 184 122
Width: 569
GlyphClass: 1
Flags: W
LayerCount: 2
Fore
SplineSet
295 10 m 1,0,-1
 275 -51 l 1,1,2
 337 -62 337 -62 374 -103.5 c 128,-1,3
 411 -145 411 -145 399 -224 c 0,4,5
 381 -342 381 -342 275.5 -407 c 128,-1,6
 170 -472 170 -472 -12 -472 c 1,7,-1
 9 -286 l 1,8,9
 48 -286 48 -286 75 -267 c 128,-1,10
 102 -248 102 -248 109 -209 c 0,11,12
 114 -170 114 -170 87 -155 c 128,-1,13
 60 -140 60 -140 -14 -136 c 1,14,-1
 39 10 l 1,15,-1
 295 10 l 1,0,-1
EndSplineSet
Validated: 33
EndChar

StartChar: onesuperior
Encoding: 185 185 123
Width: 579
GlyphClass: 1
Flags: W
LayerCount: 2
Fore
SplineSet
445 665 m 1,0,-1
 217 665 l 1,1,-1
 310 1284 l 1,2,-1
 183 1284 l 1,3,-1
 208 1454 l 1,4,-1
 567 1477 l 1,5,-1
 445 665 l 1,0,-1
EndSplineSet
Validated: 1
EndChar

StartChar: ordmasculine
Encoding: 186 186 124
Width: 938
GlyphClass: 1
Flags: W
LayerCount: 2
Fore
SplineSet
208 1142 m 2,0,1
 231 1295 231 1295 338.5 1386 c 128,-1,2
 446 1477 446 1477 605 1477 c 0,3,4
 757 1477 757 1477 840 1382.5 c 128,-1,5
 923 1288 923 1288 901 1142 c 2,6,-1
 884 1025 l 2,7,8
 860 870 860 870 754 780.5 c 128,-1,9
 648 691 648 691 489 691 c 0,10,11
 336 691 336 691 252.5 784.5 c 128,-1,12
 169 878 169 878 191 1025 c 2,13,-1
 208 1142 l 2,0,1
366 1025 m 2,14,15
 352 937 352 937 388.5 887 c 128,-1,16
 425 837 425 837 511 837 c 0,17,18
 590 837 590 837 643 889 c 128,-1,19
 696 941 696 941 709 1025 c 2,20,-1
 726 1142 l 2,21,22
 739 1228 739 1228 702.5 1278.5 c 128,-1,23
 666 1329 666 1329 582 1329 c 0,24,25
 502 1329 502 1329 448.5 1276 c 128,-1,26
 395 1223 395 1223 383 1142 c 2,27,-1
 366 1025 l 2,14,15
EndSplineSet
Validated: 33
EndChar

StartChar: questiondown
Encoding: 191 191 129
Width: 1047
GlyphClass: 1
Flags: W
LayerCount: 2
Fore
SplineSet
786 666 m 1,0,1
 763 526 763 526 703.5 456 c 128,-1,2
 644 386 644 386 501 296 c 0,3,4
 427 253 427 253 379.5 191 c 128,-1,5
 332 129 332 129 320 49 c 0,6,7
 307 -37 307 -37 344.5 -86 c 128,-1,8
 382 -135 382 -135 467 -135 c 0,9,10
 530 -135 530 -135 582 -93.5 c 128,-1,11
 634 -52 634 -52 649 28 c 1,12,-1
 978 28 l 1,13,-1
 979 22 l 1,14,15
 950 -186 950 -186 799 -290.5 c 128,-1,16
 648 -395 648 -395 428 -395 c 0,17,18
 197 -395 197 -395 75 -274 c 128,-1,19
 -47 -153 -47 -153 -18 49 c 0,20,21
 1 178 1 178 90 280 c 128,-1,22
 179 382 179 382 306 444 c 1,23,24
 375 485 375 485 405 533.5 c 128,-1,25
 435 582 435 582 448 666 c 1,26,-1
 786 666 l 1,0,1
511 1082 m 1,27,-1
 847 1082 l 1,28,-1
 807 812 l 1,29,-1
 471 812 l 1,30,-1
 511 1082 l 1,27,-1
EndSplineSet
Validated: 33
EndChar

StartChar: AE
Encoding: 198 198 136
Width: 1916
GlyphClass: 1
Flags: W
LayerCount: 2
Fore
SplineSet
1767 0 m 1,0,-1
 870 0 l 1,1,-1
 905 329 l 1,2,-1
 523 329 l 1,3,-1
 321 0 l 1,4,-1
 -69 0 l 1,5,-1
 884 1456 l 1,6,-1
 1924 1456 l 1,7,-1
 1885 1192 l 1,8,-1
 1335 1192 l 1,9,-1
 1301 876 l 1,10,-1
 1756 876 l 1,11,-1
 1717 612 l 1,12,-1
 1273 612 l 1,13,-1
 1235 264 l 1,14,-1
 1807 264 l 1,15,-1
 1767 0 l 1,0,-1
934 599 m 1,16,-1
 986 1072 l 1,17,-1
 980 1074 l 1,18,-1
 688 599 l 1,19,-1
 934 599 l 1,16,-1
EndSplineSet
Validated: 1
EndChar

StartChar: Eth
Encoding: 208 208 146
Width: 1338
GlyphClass: 1
Flags: W
LayerCount: 2
Fore
SplineSet
787 1456 m 2,0,1
 1034 1456 1034 1456 1186.5 1287 c 128,-1,2
 1339 1118 1339 1118 1301 859 c 2,3,-1
 1262 597 l 2,4,5
 1220 324 1220 324 1024.5 162 c 128,-1,6
 829 0 829 0 569 0 c 2,7,-1
 36 0 l 1,8,-1
 133 647 l 1,9,-1
 13 647 l 1,10,-1
 42 838 l 1,11,-1
 161 838 l 1,12,-1
 254 1456 l 1,13,-1
 787 1456 l 2,0,1
699 647 m 1,14,-1
 471 647 l 1,15,-1
 413 260 l 1,16,-1
 608 260 l 2,17,18
 718 260 718 260 809 355 c 128,-1,19
 900 450 900 450 923 597 c 2,20,-1
 962 861 l 2,21,22
 984 1014 984 1014 924 1105 c 128,-1,23
 864 1196 864 1196 748 1196 c 2,24,-1
 553 1196 l 1,25,-1
 499 838 l 1,26,-1
 728 838 l 1,27,-1
 699 647 l 1,14,-1
EndSplineSet
Validated: 33
Substitution2: "'smcp' Lowercase to Small Capitals lookup 0 subtable" Eth.smcp
EndChar

StartChar: multiply
Encoding: 215 215 153
Width: 1083
GlyphClass: 1
Flags: W
LayerCount: 2
Fore
SplineSet
30 381 m 1,0,-1
 376 686 l 1,1,-1
 122 992 l 1,2,-1
 342 1175 l 1,3,-1
 590 876 l 1,4,-1
 928 1175 l 1,5,-1
 1094 992 l 1,6,-1
 748 686 l 1,7,-1
 1002 381 l 1,8,-1
 782 198 l 1,9,-1
 533 497 l 1,10,-1
 196 198 l 1,11,-1
 30 381 l 1,0,-1
EndSplineSet
Validated: 1
EndChar

StartChar: Oslash
Encoding: 216 216 154
Width: 1416
GlyphClass: 1
Flags: W
LayerCount: 2
Fore
SplineSet
1336 597 m 2,0,1
 1293 317 1293 317 1099 148 c 128,-1,2
 905 -21 905 -21 627 -21 c 0,3,4
 551 -21 551 -21 482.5 -5.5 c 128,-1,5
 414 10 414 10 356 41 c 1,6,-1
 257 -95 l 1,7,-1
 117 -95 l 1,8,-1
 262 104 l 1,9,10
 162 187 162 187 118.5 315.5 c 128,-1,11
 75 444 75 444 99 597 c 2,12,-1
 138 859 l 2,13,14
 179 1137 179 1137 374.5 1307 c 128,-1,15
 570 1477 570 1477 850 1477 c 0,16,17
 948 1477 948 1477 1033.5 1450 c 128,-1,18
 1119 1423 1119 1423 1187 1373 c 1,19,-1
 1292 1518 l 1,20,-1
 1432 1518 l 1,21,-1
 1269 1295 l 1,22,23
 1338 1211 1338 1211 1366 1099 c 128,-1,24
 1394 987 1394 987 1375 859 c 2,25,-1
 1336 597 l 2,0,1
436 597 m 2,26,27
 425 528 425 528 429.5 471 c 128,-1,28
 434 414 434 414 453 376 c 1,29,-1
 459 374 l 1,30,-1
 1003 1122 l 1,31,32
 973 1167 973 1167 925 1192 c 128,-1,33
 877 1217 877 1217 811 1217 c 0,34,35
 679 1217 679 1217 588.5 1116.5 c 128,-1,36
 498 1016 498 1016 475 861 c 2,37,-1
 436 597 l 2,26,27
1038 861 m 2,38,39
 1043 894 1043 894 1044 924 c 128,-1,40
 1045 954 1045 954 1043 975 c 1,41,-1
 1038 977 l 1,42,-1
 527 276 l 1,43,44
 554 257 554 257 588.5 248 c 128,-1,45
 623 239 623 239 666 239 c 0,46,47
 794 239 794 239 884.5 340 c 128,-1,48
 975 441 975 441 999 597 c 2,49,-1
 1038 861 l 2,38,39
EndSplineSet
Validated: 33
EndChar

StartChar: Thorn
Encoding: 222 222 160
Width: 1266
GlyphClass: 1
Flags: W
LayerCount: 2
Fore
SplineSet
593 1456 m 1,0,-1
 554 1198 l 1,1,-1
 753 1198 l 2,2,3
 1008 1198 1008 1198 1141.5 1070 c 128,-1,4
 1275 942 1275 942 1245 738 c 0,5,6
 1213 524 1213 524 1048 401 c 128,-1,7
 883 278 883 278 615 278 c 2,8,-1
 416 278 l 1,9,-1
 375 0 l 1,10,-1
 36 0 l 1,11,-1
 254 1456 l 1,12,-1
 593 1456 l 1,0,-1
515 938 m 1,13,-1
 455 538 l 1,14,-1
 654 538 l 2,15,16
 762 538 762 538 827 595 c 128,-1,17
 892 652 892 652 905 736 c 0,18,19
 918 826 918 826 872.5 882 c 128,-1,20
 827 938 827 938 714 938 c 2,21,-1
 516 938 l 1,22,-1
 515 938 l 1,13,-1
EndSplineSet
Validated: 33
EndChar

StartChar: germandbls
Encoding: 223 223 161
Width: 1330
GlyphClass: 1
Flags: W
LayerCount: 2
Fore
SplineSet
392 0 m 1,0,-1
 54 0 l 1,1,-1
 221 1112 l 2,2,3
 256 1347 256 1347 406 1464 c 128,-1,4
 556 1581 556 1581 802 1581 c 0,5,6
 986 1581 986 1581 1101.5 1479.5 c 128,-1,7
 1217 1378 1217 1378 1190 1201 c 0,8,9
 1173 1093 1173 1093 1112.5 1005 c 128,-1,10
 1052 917 1052 917 1041 842 c 0,11,12
 1034 795 1034 795 1151 656 c 128,-1,13
 1268 517 1268 517 1248 377 c 0,14,15
 1216 170 1216 170 1083.5 74.5 c 128,-1,16
 951 -21 951 -21 711 -21 c 0,17,18
 634 -21 634 -21 559.5 -8.5 c 128,-1,19
 485 4 485 4 450 27 c 1,20,-1
 547 283 l 1,21,22
 580 264 580 264 632 251.5 c 128,-1,23
 684 239 684 239 752 239 c 0,24,25
 811 239 811 239 856 272.5 c 128,-1,26
 901 306 901 306 910 364 c 0,27,28
 920 434 920 434 800.5 561.5 c 128,-1,29
 681 689 681 689 702 827 c 0,30,31
 717 929 717 929 778 1021 c 128,-1,32
 839 1113 839 1113 850 1187 c 0,33,34
 858 1242 858 1242 821.5 1282 c 128,-1,35
 785 1322 785 1322 730 1322 c 0,36,37
 671 1322 671 1322 621.5 1262.5 c 128,-1,38
 572 1203 572 1203 558 1106 c 2,39,-1
 392 0 l 1,0,-1
EndSplineSet
Validated: 33
Substitution2: "'smcp' Lowercase to Small Capitals lookup 0 subtable" germandbls.smcp
EndChar

StartChar: ae
Encoding: 230 230 168
Width: 1763
GlyphClass: 1
Flags: W
LayerCount: 2
Fore
SplineSet
1192 -21 m 0,0,1
 1071 -21 1071 -21 978.5 17.5 c 128,-1,2
 886 56 886 56 827 128 c 1,3,4
 757 62 757 62 653.5 20.5 c 128,-1,5
 550 -21 550 -21 418 -21 c 0,6,7
 223 -21 223 -21 122 72.5 c 128,-1,8
 21 166 21 166 46 324 c 0,9,10
 70 489 70 489 213.5 572 c 128,-1,11
 357 655 357 655 615 655 c 2,12,-1
 772 655 l 1,13,-1
 779 701 l 2,14,15
 789 769 789 769 760 805.5 c 128,-1,16
 731 842 731 842 667 842 c 0,17,18
 600 842 600 842 554.5 812.5 c 128,-1,19
 509 783 509 783 503 740 c 1,20,-1
 178 758 l 1,21,-1
 176 764 l 1,22,23
 193 916 193 916 339 1009 c 128,-1,24
 485 1102 485 1102 710 1102 c 0,25,26
 803 1102 803 1102 880.5 1079 c 128,-1,27
 958 1056 958 1056 1013 1013 c 1,28,29
 1081 1057 1081 1057 1165.5 1079.5 c 128,-1,30
 1250 1102 1250 1102 1349 1102 c 0,31,32
 1552 1102 1552 1102 1659.5 968.5 c 128,-1,33
 1767 835 1767 835 1734 612 c 2,34,-1
 1707 435 l 1,35,-1
 1086 435 l 1,36,-1
 1084 429 l 1,37,38
 1075 338 1075 338 1120.5 288.5 c 128,-1,39
 1166 239 1166 239 1277 239 c 0,40,41
 1361 239 1361 239 1427 255.5 c 128,-1,42
 1493 272 1493 272 1572 306 c 1,43,-1
 1622 100 l 1,44,45
 1548 49 1548 49 1430 14 c 128,-1,46
 1312 -21 1312 -21 1192 -21 c 0,0,1
517 211 m 0,47,48
 564 211 564 211 621.5 235 c 128,-1,49
 679 259 679 259 717 293 c 1,50,-1
 741 451 l 1,51,-1
 587 451 l 2,52,53
 503 451 503 451 446.5 412 c 128,-1,54
 390 373 390 373 383 320 c 0,55,56
 375 266 375 266 408 238.5 c 128,-1,57
 441 211 441 211 517 211 c 0,47,48
1310 842 m 0,58,59
 1228 842 1228 842 1181.5 791.5 c 128,-1,60
 1135 741 1135 741 1117 652 c 1,61,-1
 1119 646 l 1,62,-1
 1410 646 l 1,63,-1
 1414 672 l 2,64,65
 1426 755 1426 755 1399 798.5 c 128,-1,66
 1372 842 1372 842 1310 842 c 0,58,59
EndSplineSet
Validated: 33
EndChar

StartChar: eth
Encoding: 240 240 178
Width: 1226
GlyphClass: 1
Flags: W
LayerCount: 2
Fore
SplineSet
1058 1286 m 1,0,1
 1148 1180 1148 1180 1185 1040.5 c 128,-1,2
 1222 901 1222 901 1198 736 c 2,3,-1
 1171 553 l 2,4,5
 1131 290 1131 290 946 134.5 c 128,-1,6
 761 -21 761 -21 513 -21 c 0,7,8
 275 -21 275 -21 136 120.5 c 128,-1,9
 -3 262 -3 262 27 468 c 0,10,11
 62 702 62 702 212 831.5 c 128,-1,12
 362 961 362 961 605 961 c 0,13,14
 681 961 681 961 747 938 c 128,-1,15
 813 915 813 915 860 874 c 1,16,-1
 864 879 l 1,17,18
 861 956 861 956 832.5 1019.5 c 128,-1,19
 804 1083 804 1083 755 1133 c 1,20,-1
 510 1010 l 1,21,-1
 449 1128 l 1,22,-1
 625 1217 l 1,23,-1
 625 1223 l 1,24,25
 599 1236 599 1236 565.5 1248.5 c 128,-1,26
 532 1261 532 1261 495 1273 c 1,27,-1
 639 1517 l 1,28,29
 729 1498 729 1498 808.5 1464 c 128,-1,30
 888 1430 888 1430 954 1382 c 1,31,-1
 1157 1484 l 1,32,-1
 1216 1366 l 1,33,-1
 1058 1286 l 1,0,1
556 239 m 256,34,35
 660 239 660 239 736 327.5 c 128,-1,36
 812 416 812 416 833 553 c 2,37,-1
 847 649 l 1,38,39
 819 680 819 680 766 700 c 128,-1,40
 713 720 713 720 638 720 c 0,41,42
 525 720 525 720 453.5 653 c 128,-1,43
 382 586 382 586 364 468 c 0,44,45
 348 363 348 363 400 301 c 128,-1,46
 452 239 452 239 556 239 c 256,34,35
EndSplineSet
Validated: 33
Substitution2: "'smcp' Lowercase to Small Capitals lookup 0 subtable" Eth.smcp
EndChar

StartChar: divide
Encoding: 247 247 185
Width: 1166
GlyphClass: 1
Flags: W
LayerCount: 2
Fore
SplineSet
1107 563 m 1,0,-1
 63 563 l 1,1,-1
 100 807 l 1,2,-1
 1144 807 l 1,3,-1
 1107 563 l 1,0,-1
816 961 m 1,4,-1
 477 961 l 1,5,-1
 514 1206 l 1,6,-1
 853 1206 l 1,7,-1
 816 961 l 1,4,-1
696 158 m 1,8,-1
 357 158 l 1,9,-1
 394 404 l 1,10,-1
 733 404 l 1,11,-1
 696 158 l 1,8,-1
EndSplineSet
Validated: 1
EndChar

StartChar: oslash
Encoding: 248 248 186
Width: 1152
GlyphClass: 1
Flags: W
LayerCount: 2
Fore
SplineSet
54 551 m 2,0,1
 91 804 91 804 250 953 c 128,-1,2
 409 1102 409 1102 659 1102 c 0,3,4
 705 1102 705 1102 748 1095 c 128,-1,5
 791 1088 791 1088 831 1075 c 1,6,-1
 923 1219 l 1,7,-1
 1100 1219 l 1,8,-1
 962 1003 l 1,9,10
 1049 929 1049 929 1085 811.5 c 128,-1,11
 1121 694 1121 694 1101 551 c 2,12,-1
 1098 530 l 2,13,14
 1059 276 1059 276 900.5 127.5 c 128,-1,15
 742 -21 742 -21 493 -21 c 0,16,17
 447 -21 447 -21 405.5 -14.5 c 128,-1,18
 364 -8 364 -8 326 3 c 1,19,-1
 232 -145 l 1,20,-1
 55 -145 l 1,21,-1
 194 73 l 1,22,23
 103 145 103 145 65.5 264 c 128,-1,24
 28 383 28 383 51 530 c 2,25,-1
 54 551 l 2,0,1
389 530 m 2,26,27
 381 480 381 480 379.5 442.5 c 128,-1,28
 378 405 378 405 383 382 c 1,29,-1
 389 381 l 1,30,-1
 678 834 l 1,31,32
 664 837 664 837 650 839.5 c 128,-1,33
 636 842 636 842 620 842 c 0,34,35
 524 842 524 842 467 761 c 128,-1,36
 410 680 410 680 392 551 c 2,37,-1
 389 530 l 2,26,27
764 551 m 2,38,39
 770 593 770 593 771.5 629 c 128,-1,40
 773 665 773 665 770 688 c 1,41,-1
 764 690 l 1,42,-1
 480 245 l 1,43,44
 491 242 491 242 504 240.5 c 128,-1,45
 517 239 517 239 532 239 c 0,46,47
 627 239 627 239 683.5 318 c 128,-1,48
 740 397 740 397 761 530 c 2,49,-1
 764 551 l 2,38,39
EndSplineSet
Validated: 33
EndChar

StartChar: thorn
Encoding: 254 254 192
Width: 1149
GlyphClass: 1
Flags: W
LayerCount: 2
Fore
SplineSet
1106 518 m 2,0,1
 1067 265 1067 265 937 122 c 128,-1,2
 807 -21 807 -21 605 -21 c 0,3,4
 528 -21 528 -21 472 11 c 128,-1,5
 416 43 416 43 379 103 c 1,6,-1
 364 0 l 1,7,-1
 302 -416 l 1,8,-1
 -36 -416 l 1,9,-1
 26 0 l 1,10,-1
 25 0 l 1,11,-1
 259 1560 l 1,12,-1
 598 1560 l 1,13,-1
 510 976 l 1,14,15
 564 1037 564 1037 628.5 1069.5 c 128,-1,16
 693 1102 693 1102 771 1102 c 0,17,18
 964 1102 964 1102 1055 945.5 c 128,-1,19
 1146 789 1146 789 1109 539 c 2,20,-1
 1106 518 l 2,0,1
772 539 m 2,21,22
 792 680 792 680 764.5 761 c 128,-1,23
 737 842 737 842 649 842 c 0,24,25
 594 842 594 842 551 820 c 128,-1,26
 508 798 508 798 477 756 c 1,27,-1
 410 308 l 1,28,29
 428 273 428 273 466 256 c 128,-1,30
 504 239 504 239 561 239 c 0,31,32
 647 239 647 239 697.5 313.5 c 128,-1,33
 748 388 748 388 769 518 c 2,34,-1
 772 539 l 2,21,22
EndSplineSet
Validated: 33
EndChar

StartChar: Dcroat
Encoding: 272 272 210
Width: 1338
GlyphClass: 1
Flags: W
LayerCount: 2
Fore
SplineSet
787 1456 m 2,0,1
 1034 1456 1034 1456 1186.5 1287 c 128,-1,2
 1339 1118 1339 1118 1301 859 c 2,3,-1
 1262 597 l 2,4,5
 1220 324 1220 324 1024.5 162 c 128,-1,6
 829 0 829 0 569 0 c 2,7,-1
 36 0 l 1,8,-1
 133 647 l 1,9,-1
 13 647 l 1,10,-1
 42 838 l 1,11,-1
 161 838 l 1,12,-1
 254 1456 l 1,13,-1
 787 1456 l 2,0,1
699 647 m 1,14,-1
 471 647 l 1,15,-1
 413 260 l 1,16,-1
 608 260 l 2,17,18
 718 260 718 260 809 355 c 128,-1,19
 900 450 900 450 923 597 c 2,20,-1
 962 861 l 2,21,22
 984 1014 984 1014 924 1105 c 128,-1,23
 864 1196 864 1196 748 1196 c 2,24,-1
 553 1196 l 1,25,-1
 499 838 l 1,26,-1
 728 838 l 1,27,-1
 699 647 l 1,14,-1
EndSplineSet
Validated: 33
Substitution2: "'smcp' Lowercase to Small Capitals lookup 0 subtable" Dcroat.smcp
EndChar

StartChar: dcroat
Encoding: 273 273 211
Width: 1151
GlyphClass: 1
Flags: W
LayerCount: 2
Fore
SplineSet
1274 1215 m 1,0,-1
 1157 1215 l 1,1,-1
 975 0 l 1,2,-1
 679 0 l 1,3,-1
 676 131 l 1,4,5
 617 58 617 58 544.5 18.5 c 128,-1,6
 472 -21 472 -21 388 -21 c 0,7,8
 196 -21 196 -21 104 129 c 128,-1,9
 12 279 12 279 49 518 c 2,10,-1
 52 539 l 2,11,12
 91 801 91 801 223 951.5 c 128,-1,13
 355 1102 355 1102 558 1102 c 0,14,15
 631 1102 631 1102 687 1065.5 c 128,-1,16
 743 1029 743 1029 781 961 c 1,17,-1
 819 1215 l 1,18,-1
 588 1215 l 1,19,-1
 617 1406 l 1,20,-1
 848 1406 l 1,21,-1
 871 1560 l 1,22,-1
 1209 1560 l 1,23,-1
 1186 1406 l 1,24,-1
 1303 1406 l 1,25,-1
 1274 1215 l 1,0,-1
387 518 m 2,26,27
 366 382 366 382 393.5 310.5 c 128,-1,28
 421 239 421 239 513 239 c 0,29,30
 564 239 564 239 608 259.5 c 128,-1,31
 652 280 652 280 684 319 c 1,32,-1
 750 753 l 1,33,34
 731 796 731 796 694 819 c 128,-1,35
 657 842 657 842 605 842 c 0,36,37
 519 842 519 842 464.5 757.5 c 128,-1,38
 410 673 410 673 390 539 c 2,39,-1
 387 518 l 2,26,27
EndSplineSet
Validated: 33
Substitution2: "'smcp' Lowercase to Small Capitals lookup 0 subtable" Dcroat.smcp
EndChar

StartChar: Hbar
Encoding: 294 294 232
Width: 1447
GlyphClass: 1
Flags: W
LayerCount: 2
Fore
SplineSet
1439 1213 m 1,0,-1
 1546 1213 l 1,1,-1
 1519 1030 l 1,2,-1
 1412 1030 l 1,3,-1
 1258 0 l 1,4,-1
 921 0 l 1,5,-1
 1008 586 l 1,6,-1
 469 586 l 1,7,-1
 382 0 l 1,8,-1
 44 0 l 1,9,-1
 198 1030 l 1,10,-1
 84 1030 l 1,11,-1
 111 1213 l 1,12,-1
 225 1213 l 1,13,-1
 262 1456 l 1,14,-1
 600 1456 l 1,15,-1
 563 1213 l 1,16,-1
 1102 1213 l 1,17,-1
 1139 1456 l 1,18,-1
 1476 1456 l 1,19,-1
 1439 1213 l 1,0,-1
508 846 m 1,20,-1
 1047 846 l 1,21,-1
 1075 1030 l 1,22,-1
 536 1030 l 1,23,-1
 508 846 l 1,20,-1
EndSplineSet
Validated: 1
EndChar

StartChar: hbar
Encoding: 295 295 233
Width: 1151
GlyphClass: 1
Flags: W
LayerCount: 2
Fore
SplineSet
782 1211 m 1,0,-1
 526 1211 l 1,1,-1
 487 955 l 1,2,3
 547 1026 547 1026 622.5 1064 c 128,-1,4
 698 1102 698 1102 784 1102 c 0,5,6
 946 1102 946 1102 1027.5 983.5 c 128,-1,7
 1109 865 1109 865 1072 622 c 2,8,-1
 979 0 l 1,9,-1
 641 0 l 1,10,-1
 735 624 l 2,11,12
 753 753 753 753 728.5 797.5 c 128,-1,13
 704 842 704 842 638 842 c 0,14,15
 582 842 582 842 538 824.5 c 128,-1,16
 494 807 494 807 460 775 c 1,17,-1
 344 0 l 1,18,-1
 6 0 l 1,19,-1
 187 1211 l 1,20,-1
 96 1211 l 1,21,-1
 124 1402 l 1,22,-1
 216 1402 l 1,23,-1
 240 1560 l 1,24,-1
 578 1560 l 1,25,-1
 554 1402 l 1,26,-1
 810 1402 l 1,27,-1
 782 1211 l 1,0,-1
EndSplineSet
Validated: 33
EndChar

StartChar: dotlessi
Encoding: 305 305 243
Width: 584
GlyphClass: 1
Flags: W
LayerCount: 2
Fore
SplineSet
382 0 m 1,0,-1
 43 0 l 1,1,-1
 205 1082 l 1,2,-1
 544 1082 l 1,3,-1
 382 0 l 1,0,-1
EndSplineSet
Validated: 1
EndChar

StartChar: kgreenlandic
Encoding: 312 312 250
Width: 1242
GlyphClass: 1
Flags: W
LayerCount: 2
Fore
SplineSet
552 378 m 1,0,-1
 431 378 l 1,1,-1
 375 0 l 1,2,-1
 38 0 l 1,3,-1
 200 1082 l 1,4,-1
 537 1082 l 1,5,-1
 478 693 l 1,6,-1
 569 693 l 1,7,-1
 852 1082 l 1,8,-1
 1277 1082 l 1,9,-1
 1279 1077 l 1,10,-1
 853 577 l 1,11,-1
 863 582 l 1,12,-1
 1130 0 l 1,13,-1
 696 0 l 1,14,-1
 552 378 l 1,0,-1
EndSplineSet
Validated: 1
EndChar

StartChar: Lslash
Encoding: 321 321 259
Width: 1022
GlyphClass: 1
Flags: W
LayerCount: 2
Fore
SplineSet
502 903 m 1,0,-1
 743 967 l 1,1,-1
 712 759 l 1,2,-1
 471 695 l 1,3,-1
 406 260 l 1,4,-1
 1031 260 l 1,5,-1
 992 0 l 1,6,-1
 29 0 l 1,7,-1
 119 602 l 1,8,-1
 3 572 l 1,9,-1
 34 780 l 1,10,-1
 150 810 l 1,11,-1
 247 1456 l 1,12,-1
 585 1456 l 1,13,-1
 502 903 l 1,0,-1
EndSplineSet
Validated: 1
EndChar

StartChar: lslash
Encoding: 322 322 260
Width: 611
GlyphClass: 1
Flags: W
LayerCount: 2
Fore
SplineSet
528 924 m 1,0,-1
 672 967 l 1,1,-1
 641 759 l 1,2,-1
 497 716 l 1,3,-1
 390 0 l 1,4,-1
 51 0 l 1,5,-1
 142 611 l 1,6,-1
 10 572 l 1,7,-1
 41 780 l 1,8,-1
 173 819 l 1,9,-1
 285 1560 l 1,10,-1
 624 1560 l 1,11,-1
 528 924 l 1,0,-1
EndSplineSet
Validated: 1
EndChar

StartChar: Eng
Encoding: 330 330 268
Width: 1449
GlyphClass: 1
Flags: W
LayerCount: 2
Fore
SplineSet
1469 1456 m 1,0,-1
 1249 -15 l 2,1,2
 1217 -225 1217 -225 1094 -331 c 128,-1,3
 971 -437 971 -437 776 -437 c 0,4,5
 733 -437 733 -437 695.5 -433 c 128,-1,6
 658 -429 658 -429 619 -420 c 1,7,-1
 671 -165 l 1,8,9
 699 -171 699 -171 718 -174 c 128,-1,10
 737 -177 737 -177 769 -177 c 0,11,12
 823 -177 823 -177 861.5 -135 c 128,-1,13
 900 -93 900 -93 912 -15 c 2,14,-1
 914 0 l 1,15,-1
 517 916 l 1,16,-1
 511 915 l 1,17,-1
 375 0 l 1,18,-1
 37 0 l 1,19,-1
 255 1456 l 1,20,-1
 593 1456 l 1,21,-1
 989 540 l 1,22,-1
 995 541 l 1,23,-1
 1132 1456 l 1,24,-1
 1469 1456 l 1,0,-1
EndSplineSet
Validated: 1
EndChar

StartChar: eng
Encoding: 331 331 269
Width: 1151
GlyphClass: 1
Flags: W
LayerCount: 2
Fore
SplineSet
480 934 m 1,0,1
 545 1014 545 1014 630 1058 c 128,-1,2
 715 1102 715 1102 811 1102 c 0,3,4
 964 1102 964 1102 1040 993 c 128,-1,5
 1116 884 1116 884 1082 651 c 2,6,-1
 982 -15 l 2,7,8
 950 -225 950 -225 827 -331 c 128,-1,9
 704 -437 704 -437 509 -437 c 0,10,11
 466 -437 466 -437 428.5 -433 c 128,-1,12
 391 -429 391 -429 352 -420 c 1,13,-1
 404 -165 l 1,14,15
 432 -171 432 -171 450.5 -174 c 128,-1,16
 469 -177 469 -177 502 -177 c 0,17,18
 556 -177 556 -177 594 -135 c 128,-1,19
 632 -93 632 -93 644 -15 c 2,20,-1
 744 652 l 2,21,22
 760 759 760 759 733.5 800.5 c 128,-1,23
 707 842 707 842 643 842 c 0,24,25
 590 842 590 842 544 821.5 c 128,-1,26
 498 801 498 801 462 765 c 1,27,-1
 347 0 l 1,28,-1
 10 0 l 1,29,-1
 172 1082 l 1,30,-1
 489 1082 l 1,31,-1
 480 934 l 1,0,1
EndSplineSet
Validated: 33
EndChar

StartChar: OE
Encoding: 338 338 276
Width: 1995
GlyphClass: 1
Flags: W
LayerCount: 2
Fore
SplineSet
1724 0 m 1,0,-1
 930 0 l 1,1,2
 838 -10 838 -10 772 -15.5 c 128,-1,3
 706 -21 706 -21 639 -21 c 0,4,5
 370 -21 370 -21 214.5 146.5 c 128,-1,6
 59 314 59 314 99 576 c 2,7,-1
 145 880 l 2,8,9
 186 1155 186 1155 382.5 1316 c 128,-1,10
 579 1477 579 1477 862 1477 c 0,11,12
 928 1477 928 1477 1000.5 1471 c 128,-1,13
 1073 1465 1073 1465 1148 1456 c 1,14,-1
 1943 1456 l 1,15,-1
 1904 1196 l 1,16,-1
 1288 1196 l 1,17,-1
 1241 883 l 1,18,-1
 1754 883 l 1,19,-1
 1715 623 l 1,20,-1
 1202 623 l 1,21,-1
 1148 260 l 1,22,-1
 1763 260 l 1,23,-1
 1724 0 l 1,0,-1
678 239 m 0,24,25
 709 239 709 239 741.5 240.5 c 128,-1,26
 774 242 774 242 807 245 c 1,27,-1
 952 1211 l 1,28,29
 921 1213 921 1213 888.5 1215 c 128,-1,30
 856 1217 856 1217 823 1217 c 0,31,32
 690 1217 690 1217 598 1131 c 128,-1,33
 506 1045 506 1045 482 882 c 2,34,-1
 436 576 l 2,35,36
 410 404 410 404 474 321.5 c 128,-1,37
 538 239 538 239 678 239 c 0,24,25
EndSplineSet
Validated: 33
EndChar

StartChar: oe
Encoding: 339 339 277
Width: 1845
GlyphClass: 1
Flags: W
LayerCount: 2
Fore
SplineSet
1273 -21 m 0,0,1
 1153 -21 1153 -21 1061 20 c 128,-1,2
 969 61 969 61 910 136 c 1,3,4
 830 59 830 59 725 19 c 128,-1,5
 620 -21 620 -21 493 -21 c 0,6,7
 254 -21 254 -21 134 133.5 c 128,-1,8
 14 288 14 288 51 530 c 2,9,-1
 54 551 l 2,10,11
 91 804 91 804 250 953 c 128,-1,12
 409 1102 409 1102 659 1102 c 0,13,14
 777 1102 777 1102 868 1061 c 128,-1,15
 959 1020 959 1020 1018 946 c 1,16,17
 1094 1022 1094 1022 1197.5 1062 c 128,-1,18
 1301 1102 1301 1102 1428 1102 c 0,19,20
 1638 1102 1638 1102 1743 969.5 c 128,-1,21
 1848 837 1848 837 1815 612 c 2,22,-1
 1788 435 l 1,23,-1
 1167 435 l 1,24,-1
 1165 429 l 1,25,26
 1160 342 1160 342 1207 290.5 c 128,-1,27
 1254 239 1254 239 1358 239 c 0,28,29
 1451 239 1451 239 1521 255.5 c 128,-1,30
 1591 272 1591 272 1677 306 c 1,31,-1
 1727 100 l 1,32,33
 1650 49 1650 49 1526.5 14 c 128,-1,34
 1403 -21 1403 -21 1273 -21 c 0,0,1
389 530 m 2,35,36
 367 390 367 390 398 314.5 c 128,-1,37
 429 239 429 239 532 239 c 0,38,39
 627 239 627 239 683.5 318 c 128,-1,40
 740 397 740 397 761 530 c 2,41,-1
 764 551 l 2,42,43
 784 687 784 687 753 764.5 c 128,-1,44
 722 842 722 842 620 842 c 0,45,46
 524 842 524 842 467 761 c 128,-1,47
 410 680 410 680 392 551 c 2,48,-1
 389 530 l 2,35,36
1389 842 m 0,49,50
 1311 842 1311 842 1264.5 790.5 c 128,-1,51
 1218 739 1218 739 1197 652 c 1,52,-1
 1199 646 l 1,53,-1
 1490 646 l 1,54,-1
 1494 672 l 2,55,56
 1507 759 1507 759 1483.5 800.5 c 128,-1,57
 1460 842 1460 842 1389 842 c 0,49,50
EndSplineSet
Validated: 33
EndChar

StartChar: Tbar
Encoding: 358 358 296
Width: 1150
GlyphClass: 1
Flags: W
LayerCount: 2
Fore
SplineSet
958 723 m 1,0,-1
 772 723 l 1,1,-1
 664 0 l 1,2,-1
 326 0 l 1,3,-1
 434 723 l 1,4,-1
 272 723 l 1,5,-1
 301 914 l 1,6,-1
 463 914 l 1,7,-1
 505 1196 l 1,8,-1
 127 1196 l 1,9,-1
 166 1456 l 1,10,-1
 1267 1456 l 1,11,-1
 1228 1196 l 1,12,-1
 843 1196 l 1,13,-1
 801 914 l 1,14,-1
 987 914 l 1,15,-1
 958 723 l 1,0,-1
EndSplineSet
Validated: 1
Substitution2: "'smcp' Lowercase to Small Capitals lookup 0 subtable" Tbar.smcp
EndChar

StartChar: tbar
Encoding: 359 359 297
Width: 723
GlyphClass: 1
Flags: W
LayerCount: 2
Fore
SplineSet
607 1351 m 1,0,-1
 566 1082 l 1,1,-1
 737 1082 l 1,2,-1
 702 848 l 1,3,-1
 531 848 l 1,4,-1
 509 698 l 1,5,-1
 693 698 l 1,6,-1
 664 507 l 1,7,-1
 480 507 l 1,8,-1
 457 352 l 2,9,10
 447 291 447 291 466.5 267 c 128,-1,11
 486 243 486 243 527 243 c 0,12,13
 552 243 552 243 569 245 c 128,-1,14
 586 247 586 247 610 253 c 1,15,-1
 595 3 l 1,16,17
 543 -10 543 -10 501 -15.5 c 128,-1,18
 459 -21 459 -21 403 -21 c 0,19,20
 242 -21 242 -21 166 69 c 128,-1,21
 90 159 90 159 119 350 c 2,22,-1
 142 507 l 1,23,-1
 -22 507 l 1,24,-1
 7 698 l 1,25,-1
 171 698 l 1,26,-1
 193 848 l 1,27,-1
 42 848 l 1,28,-1
 77 1082 l 1,29,-1
 228 1082 l 1,30,-1
 269 1351 l 1,31,-1
 607 1351 l 1,0,-1
EndSplineSet
Validated: 33
Substitution2: "'smcp' Lowercase to Small Capitals lookup 0 subtable" Tbar.smcp
EndChar

StartChar: longs
Encoding: 383 383 321
Width: 539
GlyphClass: 1
Flags: W
LayerCount: 2
Fore
SplineSet
14 0 m 1,0,-1
 193 1194 l 2,1,2
 222 1388 222 1388 347 1484.5 c 128,-1,3
 472 1581 472 1581 679 1581 c 0,4,5
 716 1581 716 1581 756.5 1575 c 128,-1,6
 797 1569 797 1569 843 1560 c 1,7,-1
 782 1311 l 1,8,9
 754 1316 754 1316 733 1318.5 c 128,-1,10
 712 1321 712 1321 682 1321 c 0,11,12
 620 1321 620 1321 579.5 1287.5 c 128,-1,13
 539 1254 539 1254 531 1194 c 2,14,-1
 352 0 l 1,15,-1
 14 0 l 1,0,-1
EndSplineSet
Validated: 1
EndChar

StartChar: florin
Encoding: 402 402 322
Width: 758
GlyphClass: 1
Flags: W
LayerCount: 2
Fore
SplineSet
764 848 m 1,0,-1
 550 848 l 1,1,-1
 427 -15 l 2,2,3
 397 -225 397 -225 275.5 -331 c 128,-1,4
 154 -437 154 -437 -41 -437 c 0,5,6
 -83 -437 -83 -437 -120.5 -433 c 128,-1,7
 -158 -429 -158 -429 -198 -420 c 1,8,-1
 -147 -165 l 1,9,10
 -119 -171 -119 -171 -100.5 -174 c 128,-1,11
 -82 -177 -82 -177 -51 -177 c 0,12,13
 4 -177 4 -177 41 -135 c 128,-1,14
 78 -93 78 -93 90 -15 c 2,15,-1
 211 848 l 1,16,-1
 55 848 l 1,17,-1
 87 1082 l 1,18,-1
 243 1082 l 1,19,-1
 259 1194 l 2,20,21
 286 1388 286 1388 410 1484.5 c 128,-1,22
 534 1581 534 1581 742 1581 c 0,23,24
 779 1581 779 1581 819.5 1575 c 128,-1,25
 860 1569 860 1569 906 1560 c 1,26,-1
 847 1311 l 1,27,28
 819 1316 819 1316 798 1318.5 c 128,-1,29
 777 1321 777 1321 747 1321 c 0,30,31
 686 1321 686 1321 646 1287.5 c 128,-1,32
 606 1254 606 1254 598 1194 c 2,33,-1
 582 1082 l 1,34,-1
 796 1082 l 1,35,-1
 764 848 l 1,0,-1
EndSplineSet
Validated: 1
EndChar

StartChar: Ohorn
Encoding: 416 416 323
Width: 1452
GlyphClass: 1
Flags: W
LayerCount: 2
Fore
SplineSet
1331 597 m 2,0,1
 1288 317 1288 317 1094 148 c 128,-1,2
 900 -21 900 -21 622 -21 c 0,3,4
 356 -21 356 -21 204.5 155.5 c 128,-1,5
 53 332 53 332 94 597 c 2,6,-1
 133 859 l 2,7,8
 174 1137 174 1137 369.5 1307 c 128,-1,9
 565 1477 565 1477 845 1477 c 0,10,11
 980 1477 980 1477 1089.5 1427 c 128,-1,12
 1199 1377 1199 1377 1270 1287 c 1,13,14
 1368 1320 1368 1320 1430.5 1399.5 c 128,-1,15
 1493 1479 1493 1479 1511 1596 c 1,16,-1
 1735 1596 l 1,17,18
 1705 1397 1705 1397 1610.5 1269 c 128,-1,19
 1516 1141 1516 1141 1364 1085 c 1,20,21
 1375 1032 1375 1032 1376.5 975 c 128,-1,22
 1378 918 1378 918 1370 859 c 2,23,-1
 1331 597 l 2,0,1
1033 861 m 2,24,25
 1057 1023 1057 1023 999 1120 c 128,-1,26
 941 1217 941 1217 806 1217 c 0,27,28
 674 1217 674 1217 583.5 1116.5 c 128,-1,29
 493 1016 493 1016 470 861 c 2,30,-1
 431 597 l 2,31,32
 406 433 406 433 464.5 336 c 128,-1,33
 523 239 523 239 661 239 c 0,34,35
 789 239 789 239 879.5 340 c 128,-1,36
 970 441 970 441 994 597 c 2,37,-1
 1033 861 l 2,24,25
EndSplineSet
Validated: 33
EndChar

StartChar: ohorn
Encoding: 417 417 324
Width: 1199
GlyphClass: 1
Flags: W
LayerCount: 2
Fore
SplineSet
54 551 m 2,0,1
 91 804 91 804 250 953 c 128,-1,2
 409 1102 409 1102 659 1102 c 0,3,4
 769 1102 769 1102 856 1066 c 128,-1,5
 943 1030 943 1030 1002 965 c 1,6,7
 1057 1006 1057 1006 1093.5 1075 c 128,-1,8
 1130 1144 1130 1144 1145 1237 c 1,9,-1
 1371 1237 l 1,10,11
 1347 1082 1347 1082 1274 977 c 128,-1,12
 1201 872 1201 872 1084 819 c 1,13,14
 1103 760 1103 760 1107 692.5 c 128,-1,15
 1111 625 1111 625 1101 551 c 2,16,-1
 1098 530 l 2,17,18
 1059 276 1059 276 900.5 127.5 c 128,-1,19
 742 -21 742 -21 493 -21 c 0,20,21
 254 -21 254 -21 134 133.5 c 128,-1,22
 14 288 14 288 51 530 c 2,23,-1
 54 551 l 2,0,1
389 530 m 2,24,25
 367 390 367 390 398 314.5 c 128,-1,26
 429 239 429 239 532 239 c 0,27,28
 627 239 627 239 683.5 318 c 128,-1,29
 740 397 740 397 761 530 c 2,30,-1
 764 551 l 2,31,32
 784 687 784 687 753 764.5 c 128,-1,33
 722 842 722 842 620 842 c 0,34,35
 524 842 524 842 467 761 c 128,-1,36
 410 680 410 680 392 551 c 2,37,-1
 389 530 l 2,24,25
EndSplineSet
Validated: 33
EndChar

StartChar: Uhorn
Encoding: 431 431 325
Width: 1475
GlyphClass: 1
Flags: W
LayerCount: 2
Fore
SplineSet
1447 1456 m 1,0,-1
 1419 1274 l 1,1,-1
 1425 1272 l 1,2,3
 1510 1290 1510 1290 1554 1374.5 c 128,-1,4
 1598 1459 1598 1459 1622 1616 c 1,5,-1
 1838 1616 l 1,6,-1
 1840 1611 l 1,7,8
 1805 1356 1805 1356 1699 1223 c 128,-1,9
 1593 1090 1593 1090 1389 1066 c 1,10,-1
 1306 512 l 2,11,12
 1266 252 1266 252 1081.5 115.5 c 128,-1,13
 897 -21 897 -21 627 -21 c 0,14,15
 368 -21 368 -21 217 122 c 128,-1,16
 66 265 66 265 104 512 c 2,17,-1
 245 1456 l 1,18,-1
 584 1456 l 1,19,-1
 443 512 l 2,20,21
 421 372 421 372 480.5 305.5 c 128,-1,22
 540 239 540 239 666 239 c 0,23,24
 785 239 785 239 865.5 308 c 128,-1,25
 946 377 946 377 967 512 c 2,26,-1
 1108 1456 l 1,27,-1
 1447 1456 l 1,0,-1
EndSplineSet
Validated: 33
EndChar

StartChar: uhorn
Encoding: 432 432 326
Width: 1146
GlyphClass: 1
Flags: W
LayerCount: 2
Fore
SplineSet
1496 1181 m 1,0,-1
 1498 1175 l 1,1,2
 1474 994 1474 994 1376.5 896 c 128,-1,3
 1279 798 1279 798 1097 775 c 1,4,-1
 981 0 l 1,5,-1
 709 0 l 1,6,-1
 693 157 l 1,7,8
 631 70 631 70 548 24.5 c 128,-1,9
 465 -21 465 -21 364 -21 c 0,10,11
 202 -21 202 -21 121 98 c 128,-1,12
 40 217 40 217 77 462 c 2,13,-1
 170 1082 l 1,14,-1
 507 1082 l 1,15,-1
 414 460 l 2,16,17
 394 328 394 328 419.5 283.5 c 128,-1,18
 445 239 445 239 514 239 c 0,19,20
 567 239 567 239 611 255 c 128,-1,21
 655 271 655 271 688 302 c 1,22,-1
 805 1082 l 1,23,-1
 1143 1082 l 1,24,-1
 1124 955 l 1,25,-1
 1129 953 l 1,26,27
 1203 967 1203 967 1244.5 1024 c 128,-1,28
 1286 1081 1286 1081 1301 1181 c 1,29,-1
 1496 1181 l 1,0,-1
EndSplineSet
Validated: 33
EndChar

StartChar: uni0237
Encoding: 567 567 336
Width: 604
GlyphClass: 1
Flags: W
LayerCount: 2
Fore
SplineSet
558 1082 m 1,0,-1
 394 -15 l 2,1,2
 362 -225 362 -225 239 -331 c 128,-1,3
 116 -437 116 -437 -79 -437 c 0,4,5
 -121 -437 -121 -437 -158 -433 c 128,-1,6
 -195 -429 -195 -429 -235 -420 c 1,7,-1
 -182 -165 l 1,8,9
 -155 -171 -155 -171 -135.5 -174 c 128,-1,10
 -116 -177 -116 -177 -86 -177 c 0,11,12
 -30 -177 -30 -177 7.5 -135 c 128,-1,13
 45 -93 45 -93 57 -15 c 2,14,-1
 221 1082 l 1,15,-1
 558 1082 l 1,0,-1
EndSplineSet
Validated: 1
EndChar

StartChar: circumflex
Encoding: 710 710 338
Width: 1033
GlyphClass: 1
Flags: W
LayerCount: 2
Fore
SplineSet
1029 1274 m 1,0,-1
 1026 1252 l 1,1,-1
 761 1252 l 1,2,-1
 643 1378 l 1,3,-1
 488 1252 l 1,4,-1
 228 1252 l 1,5,-1
 232 1278 l 1,6,-1
 568 1518 l 1,7,-1
 761 1518 l 1,8,-1
 1029 1274 l 1,0,-1
EndSplineSet
Validated: 1
EndChar

StartChar: caron
Encoding: 711 711 339
Width: 985
GlyphClass: 1
Flags: W
LayerCount: 2
Fore
SplineSet
624 1412 m 1,0,-1
 743 1528 l 1,1,-1
 1052 1528 l 1,2,-1
 1050 1512 l 1,3,-1
 719 1252 l 1,4,-1
 480 1252 l 1,5,-1
 225 1514 l 1,6,-1
 227 1528 l 1,7,-1
 539 1528 l 1,8,-1
 624 1412 l 1,0,-1
EndSplineSet
Validated: 1
EndChar

StartChar: breve
Encoding: 728 728 340
Width: 927
GlyphClass: 1
Flags: W
LayerCount: 2
Fore
SplineSet
953 1456 m 1,0,-1
 955 1450 l 1,1,2
 940 1312 940 1312 830 1230.5 c 128,-1,3
 720 1149 720 1149 550 1149 c 0,4,5
 387 1149 387 1149 296 1233.5 c 128,-1,6
 205 1318 205 1318 229 1450 c 1,7,-1
 231 1456 l 1,8,-1
 475 1456 l 1,9,10
 468 1407 468 1407 492.5 1378 c 128,-1,11
 517 1349 517 1349 578 1349 c 0,12,13
 635 1349 635 1349 669 1379.5 c 128,-1,14
 703 1410 703 1410 710 1456 c 1,15,-1
 953 1456 l 1,0,-1
EndSplineSet
Validated: 33
EndChar

StartChar: dotaccent
Encoding: 729 729 341
Width: 664
GlyphClass: 1
Flags: W
LayerCount: 2
Fore
SplineSet
610 1215 m 1,0,-1
 229 1215 l 1,1,-1
 268 1475 l 1,2,-1
 649 1475 l 1,3,-1
 610 1215 l 1,0,-1
EndSplineSet
Validated: 1
EndChar

StartChar: ring
Encoding: 730 730 342
Width: 674
GlyphClass: 1
Flags: W
LayerCount: 2
Fore
SplineSet
265 1304 m 0,0,1
 276 1380 276 1380 338.5 1428.5 c 128,-1,2
 401 1477 401 1477 485 1477 c 0,3,4
 563 1477 563 1477 611.5 1426.5 c 128,-1,5
 660 1376 660 1376 650 1304 c 0,6,7
 638 1227 638 1227 576.5 1180.5 c 128,-1,8
 515 1134 515 1134 433 1134 c 0,9,10
 353 1134 353 1134 303 1182.5 c 128,-1,11
 253 1231 253 1231 265 1304 c 0,0,1
388 1304 m 0,12,13
 382 1272 382 1272 399 1253 c 128,-1,14
 416 1234 416 1234 448 1234 c 0,15,16
 476 1234 476 1234 497.5 1253.5 c 128,-1,17
 519 1273 519 1273 525 1304 c 0,18,19
 529 1337 529 1337 514 1356.5 c 128,-1,20
 499 1376 499 1376 469 1376 c 256,21,22
 439 1376 439 1376 415.5 1355.5 c 128,-1,23
 392 1335 392 1335 388 1304 c 0,12,13
EndSplineSet
Validated: 33
EndChar

StartChar: ogonek
Encoding: 731 731 343
Width: 645
GlyphClass: 1
Flags: W
LayerCount: 2
Fore
SplineSet
332 0 m 1,0,1
 281 -52 281 -52 257.5 -84.5 c 128,-1,2
 234 -117 234 -117 227 -164 c 0,3,4
 224 -183 224 -183 235.5 -203 c 128,-1,5
 247 -223 247 -223 299 -223 c 0,6,7
 326 -223 326 -223 348.5 -217.5 c 128,-1,8
 371 -212 371 -212 392 -205 c 1,9,-1
 403 -373 l 1,10,11
 365 -392 365 -392 318 -404.5 c 128,-1,12
 271 -417 271 -417 210 -417 c 0,13,14
 99 -417 99 -417 32 -360 c 128,-1,15
 -35 -303 -35 -303 -20 -203 c 0,16,17
 -9 -125 -9 -125 39.5 -59.5 c 128,-1,18
 88 6 88 6 179 60 c 1,19,-1
 332 0 l 1,0,1
EndSplineSet
Validated: 33
EndChar

StartChar: tilde
Encoding: 732 732 344
Width: 987
GlyphClass: 1
Flags: W
LayerCount: 2
Fore
SplineSet
1019 1480 m 1,0,1
 1005 1381 1005 1381 936.5 1314 c 128,-1,2
 868 1247 868 1247 777 1247 c 0,3,4
 711 1247 711 1247 620 1289 c 128,-1,5
 529 1331 529 1331 477 1331 c 0,6,7
 445 1331 445 1331 417.5 1298.5 c 128,-1,8
 390 1266 390 1266 385 1221 c 1,9,-1
 214 1271 l 1,10,11
 227 1368 227 1368 296 1436 c 128,-1,12
 365 1504 365 1504 456 1504 c 0,13,14
 509 1504 509 1504 605.5 1462.5 c 128,-1,15
 702 1421 702 1421 755 1421 c 0,16,17
 785 1421 785 1421 813.5 1453.5 c 128,-1,18
 842 1486 842 1486 848 1531 c 1,19,-1
 1019 1480 l 1,0,1
EndSplineSet
Validated: 1
EndChar

StartChar: hungarumlaut
Encoding: 733 733 345
Width: 933
GlyphClass: 1
Flags: W
LayerCount: 2
Fore
SplineSet
934 1518 m 1,0,-1
 1235 1518 l 1,1,-1
 1237 1512 l 1,2,-1
 920 1252 l 1,3,-1
 657 1252 l 1,4,-1
 655 1258 l 1,5,-1
 934 1518 l 1,0,-1
516 1518 m 1,6,-1
 820 1518 l 1,7,-1
 822 1512 l 1,8,-1
 543 1252 l 1,9,-1
 277 1252 l 1,10,-1
 275 1257 l 1,11,-1
 516 1518 l 1,6,-1
EndSplineSet
Validated: 1
EndChar

StartChar: uni02F3
Encoding: 755 755 346
Width: 659
GlyphClass: 1
Flags: W
LayerCount: 2
Fore
SplineSet
33 -225 m 0,0,1
 44 -148 44 -148 107 -100 c 128,-1,2
 170 -52 170 -52 255 -52 c 0,3,4
 334 -52 334 -52 383.5 -102 c 128,-1,5
 433 -152 433 -152 422 -225 c 0,6,7
 410 -301 410 -301 349 -348 c 128,-1,8
 288 -395 288 -395 204 -395 c 0,9,10
 123 -395 123 -395 72.5 -346 c 128,-1,11
 22 -297 22 -297 33 -225 c 0,0,1
158 -225 m 0,12,13
 153 -256 153 -256 170 -275.5 c 128,-1,14
 187 -295 187 -295 219 -295 c 0,15,16
 248 -295 248 -295 269.5 -275 c 128,-1,17
 291 -255 291 -255 296 -225 c 0,18,19
 301 -191 301 -191 285.5 -172 c 128,-1,20
 270 -153 270 -153 240 -153 c 0,21,22
 209 -153 209 -153 186 -173 c 128,-1,23
 163 -193 163 -193 158 -225 c 0,12,13
EndSplineSet
Validated: 33
EndChar

StartChar: hook
Encoding: 777 777 350
Width: 0
GlyphClass: 1
Flags: W
LayerCount: 2
Fore
SplineSet
-639 1276 m 1,0,-1
 -642 1402 l 1,1,2
 -568 1405 -568 1405 -534.5 1419 c 128,-1,3
 -501 1433 -501 1433 -501 1462 c 2,4,-1
 -501 1468 l 1,5,6
 -491 1502 -491 1502 -523.5 1516.5 c 128,-1,7
 -556 1531 -556 1531 -620 1531 c 1,8,-1
 -592 1676 l 1,9,10
 -385 1676 -385 1676 -285.5 1625.5 c 128,-1,11
 -186 1575 -186 1575 -201 1479 c 0,12,13
 -210 1417 -210 1417 -259 1381.5 c 128,-1,14
 -308 1346 -308 1346 -372 1338 c 1,15,-1
 -382 1276 l 1,16,-1
 -639 1276 l 1,0,-1
EndSplineSet
Validated: 33
EndChar

StartChar: uni030F
Encoding: 783 783 351
Width: 0
GlyphClass: 1
Flags: W
LayerCount: 2
Fore
SplineSet
-406 1252 m 1,0,-1
 -677 1252 l 1,1,-1
 -916 1513 l 1,2,-1
 -914 1518 l 1,3,-1
 -611 1518 l 1,4,-1
 -406 1252 l 1,0,-1
-26 1252 m 1,5,-1
 -300 1252 l 1,6,-1
 -505 1518 l 1,7,-1
 -193 1518 l 1,8,-1
 -26 1252 l 1,5,-1
EndSplineSet
Validated: 1
EndChar

StartChar: dotbelow
Encoding: 803 803 352
Width: 0
GlyphClass: 1
Flags: W
LayerCount: 2
Fore
SplineSet
-541 -362 m 1,0,-1
 -922 -362 l 1,1,-1
 -883 -102 l 1,2,-1
 -502 -102 l 1,3,-1
 -541 -362 l 1,0,-1
EndSplineSet
Validated: 1
EndChar

StartChar: tonos
Encoding: 900 900 353
Width: 779
GlyphClass: 1
Flags: W
LayerCount: 2
Fore
SplineSet
489 1558 m 1,0,-1
 794 1558 l 1,1,-1
 796 1553 l 1,2,-1
 540 1272 l 1,3,-1
 369 1272 l 1,4,-1
 489 1558 l 1,0,-1
EndSplineSet
Validated: 1
EndChar

StartChar: dieresistonos
Encoding: 901 901 354
Width: 1163
GlyphClass: 1
Flags: W
LayerCount: 2
Fore
SplineSet
1105 1252 m 1,0,-1
 825 1252 l 1,1,-1
 855 1456 l 1,2,-1
 1135 1456 l 1,3,-1
 1105 1252 l 1,0,-1
537 1252 m 1,4,-1
 257 1252 l 1,5,-1
 287 1456 l 1,6,-1
 567 1456 l 1,7,-1
 537 1252 l 1,4,-1
717 1770 m 1,8,-1
 1023 1770 l 1,9,-1
 1025 1765 l 1,10,-1
 786 1484 l 1,11,-1
 637 1484 l 1,12,-1
 717 1770 l 1,8,-1
EndSplineSet
Validated: 1
EndChar

StartChar: Gamma
Encoding: 915 915 366
Width: 1144
GlyphClass: 1
Flags: W
LayerCount: 2
Fore
SplineSet
1192 1196 m 1,0,-1
 554 1196 l 1,1,-1
 375 0 l 1,2,-1
 36 0 l 1,3,-1
 254 1456 l 1,4,-1
 1231 1456 l 1,5,-1
 1192 1196 l 1,0,-1
EndSplineSet
Validated: 1
EndChar

StartChar: Delta
Encoding: 916 916 367
AltUni2: 002206.ffffffff.0 002206.ffffffff.0
Width: 1517
GlyphClass: 1
Flags: W
LayerCount: 2
Fore
SplineSet
904 1456 m 1,0,-1
 904 1455 l 1,1,-1
 905 1456 l 1,2,-1
 1086 1456 l 1,3,-1
 1440 0 l 1,4,-1
 -62 0 l 1,5,-1
 723 1456 l 1,6,-1
 904 1456 l 1,0,-1
428 260 m 1,7,-1
 1026 260 l 1,8,-1
 849 1060 l 1,9,-1
 843 1061 l 1,10,-1
 428 260 l 1,7,-1
EndSplineSet
Validated: 1
EndChar

StartChar: Theta
Encoding: 920 920 371
Width: 1416
GlyphClass: 1
Flags: W
LayerCount: 2
Fore
SplineSet
878 589 m 1,0,-1
 563 589 l 1,1,-1
 602 848 l 1,2,-1
 917 848 l 1,3,-1
 878 589 l 1,0,-1
1336 597 m 2,4,5
 1293 317 1293 317 1099 148 c 128,-1,6
 905 -21 905 -21 627 -21 c 0,7,8
 361 -21 361 -21 209.5 155.5 c 128,-1,9
 58 332 58 332 99 597 c 2,10,-1
 138 859 l 2,11,12
 179 1137 179 1137 374.5 1307 c 128,-1,13
 570 1477 570 1477 850 1477 c 0,14,15
 1114 1477 1114 1477 1264 1300.5 c 128,-1,16
 1414 1124 1414 1124 1375 859 c 2,17,-1
 1336 597 l 2,4,5
1038 861 m 2,18,19
 1062 1023 1062 1023 1004 1120 c 128,-1,20
 946 1217 946 1217 811 1217 c 0,21,22
 679 1217 679 1217 588.5 1116.5 c 128,-1,23
 498 1016 498 1016 475 861 c 2,24,-1
 436 597 l 2,25,26
 411 433 411 433 469.5 336 c 128,-1,27
 528 239 528 239 666 239 c 0,28,29
 794 239 794 239 884.5 340 c 128,-1,30
 975 441 975 441 999 597 c 2,31,-1
 1038 861 l 2,18,19
EndSplineSet
Validated: 33
EndChar

StartChar: Lambda
Encoding: 923 923 374
Width: 1319
GlyphClass: 1
Flags: W
LayerCount: 2
Fore
SplineSet
281 0 m 1,0,-1
 -75 0 l 1,1,-1
 616 1456 l 1,2,-1
 979 1456 l 1,3,-1
 1234 0 l 1,4,-1
 879 0 l 1,5,-1
 762 1061 l 1,6,-1
 755 1146 l 1,7,-1
 749 1147 l 1,8,-1
 718 1065 l 1,9,-1
 281 0 l 1,0,-1
EndSplineSet
Validated: 1
EndChar

StartChar: Xi
Encoding: 926 926 377
Width: 1157
GlyphClass: 1
Flags: W
LayerCount: 2
Fore
SplineSet
44 260 m 1,0,-1
 1047 260 l 1,1,-1
 1008 0 l 1,2,-1
 5 0 l 1,3,-1
 44 260 l 1,0,-1
260 856 m 1,4,-1
 1012 856 l 1,5,-1
 975 608 l 1,6,-1
 223 608 l 1,7,-1
 260 856 l 1,4,-1
256 1456 m 1,8,-1
 1171 1456 l 1,9,-1
 1132 1196 l 1,10,-1
 217 1196 l 1,11,-1
 256 1456 l 1,8,-1
EndSplineSet
Validated: 1
EndChar

StartChar: Pi
Encoding: 928 928 379
Width: 1446
GlyphClass: 1
Flags: W
LayerCount: 2
Fore
SplineSet
1250 0 m 1,0,-1
 913 0 l 1,1,-1
 1092 1196 l 1,2,-1
 553 1196 l 1,3,-1
 374 0 l 1,4,-1
 36 0 l 1,5,-1
 254 1456 l 1,6,-1
 1468 1456 l 1,7,-1
 1250 0 l 1,0,-1
EndSplineSet
Validated: 1
EndChar

StartChar: Sigma
Encoding: 931 931 381
Width: 1157
GlyphClass: 1
Flags: W
LayerCount: 2
Fore
SplineSet
885 731 m 1,0,-1
 494 265 l 1,1,-1
 496 260 l 1,2,-1
 1068 260 l 1,3,-1
 1029 0 l 1,4,-1
 -7 0 l 1,5,-1
 16 152 l 1,6,-1
 529 738 l 1,7,-1
 189 1306 l 1,8,-1
 211 1456 l 1,9,-1
 1232 1456 l 1,10,-1
 1193 1196 l 1,11,-1
 634 1196 l 1,12,-1
 887 745 l 1,13,-1
 885 731 l 1,0,-1
EndSplineSet
Validated: 1
EndChar

StartChar: Phi
Encoding: 934 934 384
Width: 1541
GlyphClass: 1
Flags: W
LayerCount: 2
Fore
SplineSet
1062 1269 m 1,0,1
 1307 1249 1307 1249 1442.5 1100 c 128,-1,2
 1578 951 1578 951 1544 719 c 0,3,4
 1507 482 1507 482 1334 342.5 c 128,-1,5
 1161 203 1161 203 900 186 c 1,6,-1
 872 0 l 1,7,-1
 535 0 l 1,8,-1
 563 186 l 1,9,10
 315 204 315 204 177.5 347.5 c 128,-1,11
 40 491 40 491 74 717 c 0,12,13
 110 963 110 963 285.5 1107.5 c 128,-1,14
 461 1252 461 1252 725 1269 c 1,15,-1
 753 1456 l 1,16,-1
 1090 1456 l 1,17,-1
 1062 1269 l 1,0,1
405 717 m 0,18,19
 387 605 387 605 440 544.5 c 128,-1,20
 493 484 493 484 600 476 c 1,21,-1
 606 477 l 1,22,-1
 681 976 l 1,23,-1
 675 979 l 1,24,25
 570 967 570 967 495.5 899 c 128,-1,26
 421 831 421 831 405 717 c 0,18,19
1213 719 m 0,27,28
 1231 839 1231 839 1179.5 904 c 128,-1,29
 1128 969 1128 969 1024 980 c 1,30,-1
 1018 978 l 1,31,-1
 943 480 l 1,32,-1
 949 477 l 1,33,34
 1052 487 1052 487 1124 549.5 c 128,-1,35
 1196 612 1196 612 1213 719 c 0,27,28
EndSplineSet
Validated: 33
EndChar

StartChar: Psi
Encoding: 936 936 386
Width: 1517
GlyphClass: 1
Flags: W
LayerCount: 2
Fore
SplineSet
953 633 m 1,0,-1
 958 631 l 1,1,2
 1058 644 1058 644 1119.5 728.5 c 128,-1,3
 1181 813 1181 813 1205 969 c 2,4,-1
 1278 1456 l 1,5,-1
 1617 1456 l 1,6,-1
 1544 969 l 2,7,8
 1502 690 1502 690 1336 535.5 c 128,-1,9
 1170 381 1170 381 911 358 c 1,10,-1
 858 0 l 1,11,-1
 521 0 l 1,12,-1
 574 357 l 1,13,14
 324 377 324 377 194.5 538 c 128,-1,15
 65 699 65 699 106 969 c 2,16,-1
 179 1456 l 1,17,-1
 516 1456 l 1,18,-1
 443 969 l 2,19,20
 419 811 419 811 462 728 c 128,-1,21
 505 645 505 645 610 631 c 1,22,-1
 615 632 l 1,23,-1
 739 1456 l 1,24,-1
 1076 1456 l 1,25,-1
 953 633 l 1,0,-1
EndSplineSet
Validated: 33
EndChar

StartChar: Omega
Encoding: 937 937 387
AltUni2: 002126.ffffffff.0 002126.ffffffff.0
Width: 1380
GlyphClass: 1
Flags: W
LayerCount: 2
Fore
SplineSet
679 160 m 1,0,-1
 695 268 l 1,1,2
 769 308 769 308 828 433 c 128,-1,3
 887 558 887 558 921 788 c 2,4,-1
 933 869 l 2,5,6
 959 1043 959 1043 920 1128 c 128,-1,7
 881 1213 881 1213 784 1213 c 0,8,9
 693 1213 693 1213 625.5 1123.5 c 128,-1,10
 558 1034 558 1034 534 869 c 2,11,-1
 522 788 l 2,12,13
 486 547 486 547 508 427.5 c 128,-1,14
 530 308 530 308 597 268 c 1,15,-1
 596 264 l 1,16,-1
 597 264 l 1,17,-1
 581 160 l 1,18,-1
 557 0 l 1,19,-1
 50 0 l 1,20,-1
 90 264 l 1,21,-1
 340 264 l 1,22,23
 228 351 228 351 170.5 488.5 c 128,-1,24
 113 626 113 626 138 788 c 2,25,-1
 150 867 l 2,26,27
 191 1145 191 1145 376.5 1311 c 128,-1,28
 562 1477 562 1477 824 1477 c 0,29,30
 1072 1477 1072 1477 1213.5 1304 c 128,-1,31
 1355 1131 1355 1131 1316 867 c 2,32,-1
 1304 788 l 2,33,34
 1279 620 1279 620 1183 485 c 128,-1,35
 1087 350 1087 350 952 264 c 1,36,-1
 1204 264 l 1,37,-1
 1164 0 l 1,38,-1
 655 0 l 1,39,-1
 679 160 l 1,0,-1
EndSplineSet
Validated: 33
EndChar

StartChar: alpha
Encoding: 945 945 395
Width: 1152
GlyphClass: 1
Flags: W
LayerCount: 2
Fore
SplineSet
1124 1081 m 1,0,-1
 1015 350 l 2,1,2
 1005 288 1005 288 1017.5 264.5 c 128,-1,3
 1030 241 1030 241 1067 241 c 0,4,5
 1079 241 1079 241 1087 242.5 c 128,-1,6
 1095 244 1095 244 1105 248 c 1,7,-1
 1093 3 l 1,8,9
 1053 -10 1053 -10 1019.5 -15.5 c 128,-1,10
 986 -21 986 -21 943 -21 c 0,11,12
 843 -21 843 -21 776.5 22 c 128,-1,13
 710 65 710 65 685 150 c 1,14,15
 627 67 627 67 556 23 c 128,-1,16
 485 -21 485 -21 398 -21 c 0,17,18
 205 -21 205 -21 113 128.5 c 128,-1,19
 21 278 21 278 58 518 c 2,20,-1
 61 539 l 2,21,22
 100 801 100 801 232 951.5 c 128,-1,23
 364 1102 364 1102 568 1102 c 0,24,25
 647 1102 647 1102 702 1058.5 c 128,-1,26
 757 1015 757 1015 790 935 c 1,27,-1
 856 1081 l 1,28,-1
 1124 1081 l 1,0,-1
397 518 m 2,29,30
 376 381 376 381 403 310 c 128,-1,31
 430 239 430 239 522 239 c 0,32,33
 570 239 570 239 607.5 256.5 c 128,-1,34
 645 274 645 274 673 309 c 1,35,36
 673 317 673 317 674.5 326.5 c 128,-1,37
 676 336 676 336 678 350 c 2,38,-1
 740 767 l 1,39,40
 723 803 723 803 692 822.5 c 128,-1,41
 661 842 661 842 614 842 c 0,42,43
 529 842 529 842 474.5 757.5 c 128,-1,44
 420 673 420 673 400 539 c 2,45,-1
 397 518 l 2,29,30
EndSplineSet
Validated: 33
EndChar

StartChar: beta
Encoding: 946 946 396
Width: 1243
GlyphClass: 1
Flags: W
LayerCount: 2
Fore
SplineSet
779 1477 m 0,0,1
 996 1477 996 1477 1115.5 1373.5 c 128,-1,2
 1235 1270 1235 1270 1207 1082 c 0,3,4
 1190 974 1190 974 1127 890.5 c 128,-1,5
 1064 807 1064 807 966 759 c 1,6,7
 1081 715 1081 715 1134.5 625 c 128,-1,8
 1188 535 1188 535 1169 408 c 0,9,10
 1137 195 1137 195 1006.5 87 c 128,-1,11
 876 -21 876 -21 663 -21 c 0,12,13
 594 -21 594 -21 525 -3 c 128,-1,14
 456 15 456 15 399 52 c 1,15,-1
 329 -415 l 1,16,-1
 -8 -415 l 1,17,-1
 207 1018 l 2,18,19
 239 1234 239 1234 400 1355.5 c 128,-1,20
 561 1477 561 1477 779 1477 c 0,0,1
626 857 m 1,21,-1
 682 857 l 2,22,23
 759 857 759 857 805 906 c 128,-1,24
 851 955 851 955 866 1051 c 0,25,26
 876 1124 876 1124 844.5 1170.5 c 128,-1,27
 813 1217 813 1217 740 1217 c 0,28,29
 668 1217 668 1217 612.5 1163 c 128,-1,30
 557 1109 557 1109 544 1018 c 2,31,-1
 433 279 l 1,32,33
 464 259 464 259 510 249 c 128,-1,34
 556 239 556 239 614 239 c 0,35,36
 699 239 699 239 760.5 289.5 c 128,-1,37
 822 340 822 340 833 415 c 0,38,39
 849 527 849 527 806.5 576.5 c 128,-1,40
 764 626 764 626 663 626 c 2,41,-1
 591 626 l 1,42,-1
 616 795 l 1,43,-1
 626 857 l 1,21,-1
EndSplineSet
Validated: 33
EndChar

StartChar: gamma
Encoding: 947 947 397
Width: 1053
GlyphClass: 1
Flags: W
LayerCount: 2
Fore
SplineSet
774 1082 m 1,0,-1
 1129 1082 l 1,1,-1
 615 0 l 1,2,-1
 612 0 l 1,3,-1
 549 -417 l 1,4,-1
 211 -417 l 1,5,-1
 274 0 l 1,6,-1
 272 0 l 1,7,-1
 82 1082 l 1,8,-1
 438 1082 l 1,9,-1
 488 446 l 1,10,-1
 491 331 l 1,11,-1
 497 330 l 1,12,-1
 536 446 l 1,13,-1
 774 1082 l 1,0,-1
EndSplineSet
Validated: 1
EndChar

StartChar: delta
Encoding: 948 948 398
Width: 1151
GlyphClass: 1
Flags: W
LayerCount: 2
Fore
SplineSet
1137 1456 m 1,0,-1
 1098 1196 l 1,1,-1
 716 1196 l 1,2,-1
 714 1190 l 1,3,-1
 875 1048 l 2,4,5
 991 951 991 951 1057.5 831 c 128,-1,6
 1124 711 1124 711 1101 551 c 2,7,-1
 1098 530 l 2,8,9
 1059 276 1059 276 900.5 127.5 c 128,-1,10
 742 -21 742 -21 493 -21 c 0,11,12
 254 -21 254 -21 132 122 c 128,-1,13
 10 265 10 265 45 490 c 2,14,-1
 48 511 l 2,15,16
 78 712 78 712 206 842.5 c 128,-1,17
 334 973 334 973 502 1003 c 1,18,-1
 511 1004 l 1,19,-1
 513 1010 l 1,20,-1
 259 1249 l 1,21,-1
 290 1456 l 1,22,-1
 1137 1456 l 1,0,-1
620 842 m 0,23,24
 524 842 524 842 467 761 c 128,-1,25
 410 680 410 680 392 551 c 2,26,-1
 389 530 l 2,27,28
 367 390 367 390 398 314.5 c 128,-1,29
 429 239 429 239 532 239 c 0,30,31
 627 239 627 239 683.5 318 c 128,-1,32
 740 397 740 397 761 530 c 2,33,-1
 764 551 l 2,34,35
 784 687 784 687 753 764.5 c 128,-1,36
 722 842 722 842 620 842 c 0,23,24
EndSplineSet
Validated: 33
EndChar

StartChar: epsilon
Encoding: 949 949 399
Width: 1159
GlyphClass: 1
Flags: W
LayerCount: 2
Fore
SplineSet
59 306 m 0,0,1
 72 401 72 401 135 464 c 128,-1,2
 198 527 198 527 304 559 c 1,3,4
 223 595 223 595 181 655 c 128,-1,5
 139 715 139 715 150 786 c 0,6,7
 173 941 173 941 323.5 1021 c 128,-1,8
 474 1101 474 1101 706 1101 c 0,9,10
 897 1101 897 1101 1021.5 1010.5 c 128,-1,11
 1146 920 1146 920 1118 774 c 1,12,-1
 1116 768 l 1,13,-1
 788 768 l 1,14,15
 795 815 795 815 757 838 c 128,-1,16
 719 861 719 861 648 861 c 0,17,18
 575 861 575 861 531.5 829 c 128,-1,19
 488 797 488 797 482 755 c 0,20,21
 475 707 475 707 513.5 682 c 128,-1,22
 552 657 552 657 626 657 c 2,23,-1
 801 657 l 1,24,-1
 790 588 l 1,25,-1
 770 450 l 1,26,-1
 595 450 l 2,27,28
 514 450 514 450 461 422.5 c 128,-1,29
 408 395 408 395 399 336 c 0,30,31
 391 287 391 287 430 253.5 c 128,-1,32
 469 220 469 220 551 220 c 0,33,34
 632 220 632 220 681.5 248 c 128,-1,35
 731 276 731 276 738 320 c 1,36,-1
 1064 320 l 1,37,-1
 1066 314 l 1,38,39
 1046 145 1046 145 892.5 62.5 c 128,-1,40
 739 -20 739 -20 538 -20 c 0,41,42
 317 -20 317 -20 176.5 68.5 c 128,-1,43
 36 157 36 157 59 306 c 0,0,1
EndSplineSet
Validated: 33
EndChar

StartChar: zeta
Encoding: 950 950 400
Width: 1014
GlyphClass: 1
Flags: W
LayerCount: 2
Fore
SplineSet
1104 1456 m 1,0,-1
 1078 1278 l 1,1,-1
 643 843 l 2,2,3
 526 725 526 725 472 640 c 128,-1,4
 418 555 418 555 401 440 c 0,5,6
 386 343 386 343 426.5 298.5 c 128,-1,7
 467 254 467 254 571 254 c 2,8,-1
 636 254 l 2,9,10
 771 254 771 254 843.5 176 c 128,-1,11
 916 98 916 98 896 -37 c 0,12,13
 874 -170 874 -170 764.5 -278 c 128,-1,14
 655 -386 655 -386 479 -427 c 1,15,-1
 409 -201 l 1,16,17
 478 -174 478 -174 518 -143.5 c 128,-1,18
 558 -113 558 -113 565 -69 c 0,19,20
 569 -35 569 -35 545.5 -17.5 c 128,-1,21
 522 0 522 0 458 0 c 2,22,-1
 410 0 l 2,23,24
 219 0 219 0 126 113 c 128,-1,25
 33 226 33 226 57 381 c 0,26,27
 84 561 84 561 162 680 c 128,-1,28
 240 799 240 799 412 978 c 2,29,-1
 622 1192 l 1,30,-1
 619 1198 l 1,31,-1
 154 1198 l 1,32,-1
 192 1456 l 1,33,-1
 1104 1456 l 1,0,-1
EndSplineSet
Validated: 33
EndChar

StartChar: eta
Encoding: 951 951 401
Width: 1151
GlyphClass: 1
Flags: W
LayerCount: 2
Fore
SplineSet
480 934 m 1,0,1
 545 1014 545 1014 630 1058 c 128,-1,2
 715 1102 715 1102 811 1102 c 0,3,4
 964 1102 964 1102 1040 993 c 128,-1,5
 1116 884 1116 884 1082 651 c 2,6,-1
 922 -416 l 1,7,-1
 584 -416 l 1,8,-1
 744 652 l 2,9,10
 760 759 760 759 733.5 800.5 c 128,-1,11
 707 842 707 842 643 842 c 0,12,13
 590 842 590 842 544 821.5 c 128,-1,14
 498 801 498 801 462 765 c 1,15,-1
 347 0 l 1,16,-1
 10 0 l 1,17,-1
 172 1082 l 1,18,-1
 489 1082 l 1,19,-1
 480 934 l 1,0,1
EndSplineSet
Validated: 33
EndChar

StartChar: theta
Encoding: 952 952 402
Width: 1231
GlyphClass: 1
Flags: W
LayerCount: 2
Fore
SplineSet
1106 535 m 2,0,1
 1065 263 1065 263 906.5 121 c 128,-1,2
 748 -21 748 -21 517 -21 c 0,3,4
 296 -21 296 -21 174.5 127.5 c 128,-1,5
 53 276 53 276 92 535 c 2,6,-1
 150 921 l 2,7,8
 190 1192 190 1192 348.5 1334.5 c 128,-1,9
 507 1477 507 1477 740 1477 c 0,10,11
 960 1477 960 1477 1081 1328 c 128,-1,12
 1202 1179 1202 1179 1164 921 c 2,13,-1
 1106 535 l 2,0,1
780 611 m 1,14,-1
 440 611 l 1,15,-1
 426 514 l 2,16,17
 404 373 404 373 438.5 306 c 128,-1,18
 473 239 473 239 556 239 c 0,19,20
 633 239 633 239 689.5 309 c 128,-1,21
 746 379 746 379 766 514 c 2,22,-1
 780 611 l 1,14,-1
478 858 m 1,23,-1
 818 858 l 1,24,-1
 831 944 l 2,25,26
 851 1082 851 1082 816.5 1149.5 c 128,-1,27
 782 1217 782 1217 701 1217 c 0,28,29
 623 1217 623 1217 566.5 1146 c 128,-1,30
 510 1075 510 1075 491 944 c 2,31,-1
 478 858 l 1,23,-1
EndSplineSet
Validated: 33
EndChar

StartChar: iota
Encoding: 953 953 403
Width: 685
GlyphClass: 1
Flags: W
LayerCount: 2
Fore
SplineSet
527 1081 m 1,0,-1
 418 350 l 2,1,2
 408 287 408 287 424.5 263.5 c 128,-1,3
 441 240 441 240 489 240 c 0,4,5
 519 240 519 240 535.5 242 c 128,-1,6
 552 244 552 244 592 253 c 1,7,-1
 577 3 l 1,8,9
 528 -10 528 -10 486 -15.5 c 128,-1,10
 444 -21 444 -21 388 -21 c 0,11,12
 219 -21 219 -21 135 73.5 c 128,-1,13
 51 168 51 168 79 350 c 2,14,-1
 188 1081 l 1,15,-1
 527 1081 l 1,0,-1
EndSplineSet
Validated: 33
EndChar

StartChar: lambda
Encoding: 955 955 405
Width: 1071
GlyphClass: 1
Flags: W
LayerCount: 2
Fore
SplineSet
271 0 m 1,0,-1
 -89 0 l 1,1,-1
 438 1072 l 1,2,-1
 400 1167 l 2,3,4
 387 1208 387 1208 352.5 1232.5 c 128,-1,5
 318 1257 318 1257 268 1257 c 0,6,7
 254 1257 254 1257 233 1255 c 128,-1,8
 212 1253 212 1253 202 1251 c 1,9,-1
 229 1492 l 1,10,11
 283 1506 283 1506 316.5 1512 c 128,-1,12
 350 1518 350 1518 394 1518 c 0,13,14
 558 1518 558 1518 631.5 1437 c 128,-1,15
 705 1356 705 1356 732 1243 c 2,16,-1
 966 368 l 2,17,18
 976 324 976 324 998.5 294 c 128,-1,19
 1021 264 1021 264 1059 253 c 0,20,21
 1067 250 1067 250 1082.5 249 c 128,-1,22
 1098 248 1098 248 1113 248 c 1,23,-1
 1047 -4 l 1,24,25
 1004 -10 1004 -10 962.5 -11.5 c 128,-1,26
 921 -13 921 -13 879 -9 c 0,27,28
 747 4 747 4 688 109.5 c 128,-1,29
 629 215 629 215 608 343 c 1,30,-1
 545 657 l 1,31,-1
 539 658 l 1,32,-1
 522 604 l 1,33,-1
 271 0 l 1,0,-1
EndSplineSet
Validated: 33
EndChar

StartChar: xi
Encoding: 958 958 408
Width: 1125
GlyphClass: 1
Flags: W
LayerCount: 2
Fore
SplineSet
1148 1456 m 1,0,-1
 1108 1186 l 1,1,-1
 830 1186 l 2,2,3
 734 1184 734 1184 679 1152 c 128,-1,4
 624 1120 624 1120 616 1063 c 0,5,6
 606 996 606 996 644.5 958 c 128,-1,7
 683 920 683 920 778 920 c 2,8,-1
 933 920 l 1,9,-1
 906 737 l 1,10,-1
 905 737 l 1,11,-1
 892 649 l 1,12,-1
 749 649 l 2,13,14
 613 649 613 649 528 590.5 c 128,-1,15
 443 532 443 532 427 424 c 0,16,17
 414 343 414 343 461.5 296.5 c 128,-1,18
 509 250 509 250 606 250 c 2,19,-1
 758 250 l 2,20,21
 901 250 901 250 977.5 176.5 c 128,-1,22
 1054 103 1054 103 1033 -37 c 0,23,24
 1007 -194 1007 -194 904.5 -296 c 128,-1,25
 802 -398 802 -398 613 -448 c 1,26,-1
 560 -255 l 1,27,28
 619 -231 619 -231 664 -197.5 c 128,-1,29
 709 -164 709 -164 718 -110 c 0,30,31
 724 -66 724 -66 698.5 -43.5 c 128,-1,32
 673 -21 673 -21 611 -21 c 2,33,-1
 541 -21 l 2,34,35
 310 -21 310 -21 183.5 98.5 c 128,-1,36
 57 218 57 218 89 428 c 0,37,38
 109 560 109 560 194.5 648.5 c 128,-1,39
 280 737 280 737 427 782 c 1,40,41
 341 813 341 813 299.5 867.5 c 128,-1,42
 258 922 258 922 270 998 c 0,43,44
 280 1065 280 1065 324 1110.5 c 128,-1,45
 368 1156 368 1156 441 1180 c 1,46,-1
 438 1186 l 1,47,-1
 238 1186 l 1,48,-1
 278 1456 l 1,49,-1
 1148 1456 l 1,0,-1
EndSplineSet
Validated: 33
EndChar

StartChar: pi
Encoding: 960 960 410
Width: 1440
GlyphClass: 1
Flags: W
LayerCount: 2
Fore
SplineSet
1322 840 m 1,0,-1
 1092 840 l 1,1,-1
 1019 350 l 2,2,3
 1009 287 1009 287 1025.5 263.5 c 128,-1,4
 1042 240 1042 240 1090 240 c 0,5,6
 1120 240 1120 240 1136.5 242 c 128,-1,7
 1153 244 1153 244 1193 253 c 1,8,-1
 1178 3 l 1,9,10
 1129 -10 1129 -10 1087 -15.5 c 128,-1,11
 1045 -21 1045 -21 989 -21 c 0,12,13
 820 -21 820 -21 736 73.5 c 128,-1,14
 652 168 652 168 680 350 c 2,15,-1
 753 840 l 1,16,-1
 622 840 l 1,17,-1
 496 0 l 1,18,-1
 159 0 l 1,19,-1
 285 840 l 1,20,-1
 124 840 l 1,21,-1
 160 1082 l 1,22,-1
 1358 1082 l 1,23,-1
 1322 840 l 1,0,-1
EndSplineSet
Validated: 33
EndChar

StartChar: rho
Encoding: 961 961 411
Width: 1151
GlyphClass: 1
Flags: W
LayerCount: 2
Fore
SplineSet
1097 518 m 2,0,1
 1058 266 1058 266 927.5 122.5 c 128,-1,2
 797 -21 797 -21 595 -21 c 0,3,4
 518 -21 518 -21 462 11 c 128,-1,5
 406 43 406 43 369 105 c 1,6,-1
 292 -416 l 1,7,-1
 -46 -416 l 1,8,-1
 103 579 l 2,9,10
 138 815 138 815 294.5 958.5 c 128,-1,11
 451 1102 451 1102 699 1102 c 0,12,13
 919 1102 919 1102 1028 945 c 128,-1,14
 1137 788 1137 788 1100 539 c 2,15,-1
 1097 518 l 2,0,1
762 539 m 2,16,17
 782 680 782 680 754 761 c 128,-1,18
 726 842 726 842 638 842 c 0,19,20
 560 842 560 842 508 761.5 c 128,-1,21
 456 681 456 681 436 544 c 1,22,-1
 435 543 l 1,23,-1
 400 309 l 1,24,25
 418 274 418 274 455.5 256.5 c 128,-1,26
 493 239 493 239 551 239 c 0,27,28
 637 239 637 239 687.5 313.5 c 128,-1,29
 738 388 738 388 759 518 c 2,30,-1
 762 539 l 2,16,17
EndSplineSet
Validated: 33
EndChar

StartChar: sigma1
Encoding: 962 962 412
Width: 1027
GlyphClass: 1
Flags: W
LayerCount: 2
Fore
SplineSet
642 1102 m 0,0,1
 840 1102 840 1102 949.5 986 c 128,-1,2
 1059 870 1059 870 1026 673 c 1,3,-1
 1024 668 l 1,4,-1
 715 668 l 1,5,6
 727 747 727 747 699 794.5 c 128,-1,7
 671 842 671 842 603 842 c 0,8,9
 508 842 508 842 456 762 c 128,-1,10
 404 682 404 682 385 552 c 2,11,-1
 381 529 l 2,12,13
 360 390 360 390 407 332 c 128,-1,14
 454 274 454 274 588 254 c 0,15,16
 777 223 777 223 854 152.5 c 128,-1,17
 931 82 931 82 910 -58 c 0,18,19
 887 -191 887 -191 777.5 -299 c 128,-1,20
 668 -407 668 -407 493 -448 c 1,21,-1
 422 -222 l 1,22,23
 492 -194 492 -194 531.5 -163.5 c 128,-1,24
 571 -133 571 -133 578 -89 c 0,25,26
 582 -51 582 -51 551.5 -30.5 c 128,-1,27
 521 -10 521 -10 452 5 c 1,28,29
 209 41 209 41 109 171 c 128,-1,30
 9 301 9 301 44 529 c 1,31,-1
 48 552 l 1,32,33
 85 805 85 805 239 953.5 c 128,-1,34
 393 1102 393 1102 642 1102 c 0,0,1
EndSplineSet
Validated: 33
EndChar

StartChar: sigma
Encoding: 963 963 413
Width: 1176
GlyphClass: 1
Flags: W
LayerCount: 2
Fore
SplineSet
1193 822 m 1,0,-1
 946 822 l 1,1,2
 1012 760 1012 760 1047 678.5 c 128,-1,3
 1082 597 1082 597 1070 510 c 1,4,-1
 1066 489 l 1,5,6
 1030 253 1030 253 879.5 116 c 128,-1,7
 729 -21 729 -21 491 -21 c 0,8,9
 252 -21 252 -21 132 133.5 c 128,-1,10
 12 288 12 288 49 530 c 2,11,-1
 52 551 l 2,12,13
 88 795 88 795 246 938.5 c 128,-1,14
 404 1082 404 1082 654 1082 c 1,15,16
 654 1081 654 1081 654 1081 c 129,-1,17
 654 1081 654 1081 655 1081 c 1,18,-1
 655 1082 l 1,19,-1
 1232 1082 l 1,20,-1
 1193 822 l 1,0,-1
386 530 m 2,21,22
 364 390 364 390 395.5 314.5 c 128,-1,23
 427 239 427 239 530 239 c 0,24,25
 614 239 614 239 664.5 318 c 128,-1,26
 715 397 715 397 736 530 c 2,27,-1
 739 551 l 2,28,29
 757 675 757 675 733 746 c 128,-1,30
 709 817 709 817 625 822 c 1,31,-1
 616 822 l 2,32,33
 520 822 520 822 463 746 c 128,-1,34
 406 670 406 670 389 551 c 2,35,-1
 386 530 l 2,21,22
EndSplineSet
Validated: 33
EndChar

StartChar: tau
Encoding: 964 964 414
Width: 1077
GlyphClass: 1
Flags: W
LayerCount: 2
Fore
SplineSet
1096 824 m 1,0,-1
 753 824 l 1,1,-1
 630 0 l 1,2,-1
 292 0 l 1,3,-1
 415 824 l 1,4,-1
 79 824 l 1,5,-1
 117 1082 l 1,6,-1
 1134 1082 l 1,7,-1
 1096 824 l 1,0,-1
EndSplineSet
Validated: 1
EndChar

StartChar: upsilon
Encoding: 965 965 415
Width: 1151
GlyphClass: 1
Flags: W
LayerCount: 2
Fore
SplineSet
518 1082 m 1,0,-1
 427 470 l 2,1,2
 406 340 406 340 439.5 289.5 c 128,-1,3
 473 239 473 239 543 239 c 0,4,5
 628 239 628 239 682.5 334 c 128,-1,6
 737 429 737 429 758 566 c 0,7,8
 774 695 774 695 770.5 824.5 c 128,-1,9
 767 954 767 954 745 1082 c 1,10,-1
 1058 1082 l 1,11,12
 1093 979 1093 979 1105 849.5 c 128,-1,13
 1117 720 1117 720 1094 566 c 0,14,15
 1051 282 1051 282 915.5 130.5 c 128,-1,16
 780 -21 780 -21 514 -21 c 0,17,18
 289 -21 289 -21 171 102.5 c 128,-1,19
 53 226 53 226 90 472 c 2,20,-1
 181 1082 l 1,21,-1
 518 1082 l 1,0,-1
EndSplineSet
Validated: 33
EndChar

StartChar: phi
Encoding: 966 966 416
Width: 1567
GlyphClass: 1
Flags: W
LayerCount: 2
Fore
SplineSet
1026 1082 m 1,0,-1
 903 264 l 1,1,-1
 908 261 l 1,2,3
 1028 283 1028 283 1092 356 c 128,-1,4
 1156 429 1156 429 1174 545 c 0,5,6
 1191 671 1191 671 1144 746.5 c 128,-1,7
 1097 822 1097 822 987 822 c 1,8,-1
 1025 1075 l 1,9,-1
 1031 1077 l 1,10,11
 1301 1080 1301 1080 1420.5 913 c 128,-1,12
 1540 746 1540 746 1511 545 c 0,13,14
 1476 316 1476 316 1320.5 167 c 128,-1,15
 1165 18 1165 18 861 -13 c 1,16,-1
 792 -478 l 1,17,-1
 454 -478 l 1,18,-1
 524 -8 l 1,19,20
 243 34 243 34 129 203.5 c 128,-1,21
 15 373 15 373 50 607 c 0,22,23
 72 754 72 754 126 869.5 c 128,-1,24
 180 985 180 985 257 1082 c 1,25,-1
 558 1082 l 1,26,27
 493 954 493 954 449 837 c 128,-1,28
 405 720 405 720 387 607 c 0,29,30
 364 461 364 461 402.5 376.5 c 128,-1,31
 441 292 441 292 560 267 c 1,32,-1
 565 268 l 1,33,-1
 688 1082 l 1,34,-1
 1026 1082 l 1,0,-1
EndSplineSet
Validated: 33
EndChar

StartChar: chi
Encoding: 967 967 417
Width: 1071
GlyphClass: 1
Flags: W
LayerCount: 2
Fore
SplineSet
232 1099 m 0,0,1
 397 1099 397 1099 470.5 1018.5 c 128,-1,2
 544 938 544 938 572 824 c 2,3,-1
 603 714 l 1,4,-1
 609 713 l 1,5,-1
 843 1082 l 1,6,-1
 1186 1082 l 1,7,-1
 710 344 l 1,8,-1
 824 -51 l 2,9,10
 832 -93 832 -93 855.5 -123.5 c 128,-1,11
 879 -154 879 -154 916 -166 c 0,12,13
 924 -169 924 -169 939.5 -170.5 c 128,-1,14
 955 -172 955 -172 970 -172 c 1,15,-1
 906 -423 l 1,16,17
 864 -430 864 -430 822.5 -431.5 c 128,-1,18
 781 -433 781 -433 737 -428 c 0,19,20
 628 -414 628 -414 580.5 -316 c 128,-1,21
 533 -218 533 -218 500 -76 c 1,22,-1
 483 -18 l 1,23,-1
 477 -17 l 1,24,-1
 220 -416 l 1,25,-1
 -107 -416 l 1,26,-1
 377 348 l 1,27,-1
 262 748 l 2,28,29
 250 795 250 795 208 816.5 c 128,-1,30
 166 838 166 838 106 838 c 0,31,32
 92 838 92 838 71.5 836 c 128,-1,33
 51 834 51 834 41 832 c 1,34,-1
 68 1073 l 1,35,36
 121 1087 121 1087 154.5 1093 c 128,-1,37
 188 1099 188 1099 232 1099 c 0,0,1
EndSplineSet
Validated: 33
EndChar

StartChar: psi
Encoding: 968 968 418
Width: 1569
GlyphClass: 1
Flags: W
LayerCount: 2
Fore
SplineSet
1027 1082 m 1,0,-1
 906 271 l 1,1,-1
 911 269 l 1,2,3
 1029 297 1029 297 1096 384.5 c 128,-1,4
 1163 472 1163 472 1184 607 c 0,5,6
 1200 721 1200 721 1191 838 c 128,-1,7
 1182 955 1182 955 1155 1082 c 1,8,-1
 1456 1082 l 1,9,10
 1502 987 1502 987 1521.5 867.5 c 128,-1,11
 1541 748 1541 748 1521 607 c 0,12,13
 1483 355 1483 355 1325 189.5 c 128,-1,14
 1167 24 1167 24 863 -12 c 1,15,-1
 793 -478 l 1,16,-1
 456 -478 l 1,17,-1
 526 -8 l 1,18,19
 276 28 276 28 150.5 175.5 c 128,-1,20
 25 323 25 323 65 587 c 2,21,-1
 139 1082 l 1,22,-1
 477 1082 l 1,23,-1
 403 584 l 2,24,25
 380 439 380 439 424 363 c 128,-1,26
 468 287 468 287 562 267 c 1,27,-1
 567 268 l 1,28,-1
 690 1082 l 1,29,-1
 1027 1082 l 1,0,-1
EndSplineSet
Validated: 33
EndChar

StartChar: omega
Encoding: 969 969 419
Width: 1770
GlyphClass: 1
Flags: W
LayerCount: 2
Fore
SplineSet
614 1082 m 1,0,1
 535 953 535 953 482.5 823.5 c 128,-1,2
 430 694 430 694 408 566 c 0,3,4
 386 420 386 420 406.5 329.5 c 128,-1,5
 427 239 427 239 508 239 c 0,6,7
 573 239 573 239 625.5 302 c 128,-1,8
 678 365 678 365 699 501 c 2,9,-1
 755 872 l 1,10,-1
 1116 872 l 1,11,-1
 1060 501 l 2,12,13
 1039 358 1039 358 1071.5 298.5 c 128,-1,14
 1104 239 1104 239 1173 239 c 0,15,16
 1249 239 1249 239 1299.5 334 c 128,-1,17
 1350 429 1350 429 1371 566 c 1,18,19
 1386 696 1386 696 1372 825.5 c 128,-1,20
 1358 955 1358 955 1318 1082 c 1,21,-1
 1630 1082 l 1,22,23
 1684 980 1684 980 1707 850 c 128,-1,24
 1730 720 1730 720 1707 566 c 0,25,26
 1664 282 1664 282 1532.5 130.5 c 128,-1,27
 1401 -21 1401 -21 1144 -21 c 0,28,29
 1035 -21 1035 -21 955.5 32.5 c 128,-1,30
 876 86 876 86 836 188 c 1,31,32
 767 84 767 84 670.5 31.5 c 128,-1,33
 574 -21 574 -21 459 -21 c 0,34,35
 214 -21 214 -21 122 138 c 128,-1,36
 30 297 30 297 71 566 c 0,37,38
 95 725 95 725 155.5 850.5 c 128,-1,39
 216 976 216 976 302 1082 c 1,40,-1
 614 1082 l 1,0,1
EndSplineSet
Validated: 33
EndChar

StartChar: uni03D1
Encoding: 977 977 425
Width: 1461
GlyphClass: 2
Flags: W
LayerCount: 2
Fore
SplineSet
619 932 m 1,0,-1
 638 1057 l 2,1,2
 665 1246 665 1246 800 1361.5 c 128,-1,3
 935 1477 935 1477 1110 1477 c 0,4,5
 1291 1477 1291 1477 1377.5 1369 c 128,-1,6
 1464 1261 1464 1261 1434 1057 c 2,7,-1
 1355 535 l 2,8,9
 1317 286 1317 286 1124 132.5 c 128,-1,10
 931 -21 931 -21 671 -21 c 0,11,12
 389 -21 389 -21 239 132 c 128,-1,13
 89 285 89 285 127 535 c 2,14,-1
 235 1252 l 1,15,-1
 596 1254 l 1,16,-1
 488 535 l 2,17,18
 469 410 469 410 531.5 330 c 128,-1,19
 594 250 594 250 712 250 c 0,20,21
 823 250 823 250 896.5 320 c 128,-1,22
 970 390 970 390 993 524 c 1,23,24
 810 539 810 539 701 650.5 c 128,-1,25
 592 762 592 762 619 932 c 1,26,-1
 619 932 l 1,0,-1
1080 1098 m 2,27,28
 1086 1141 1086 1141 1076 1163.5 c 128,-1,29
 1066 1186 1066 1186 1043 1186 c 0,30,31
 1010 1186 1010 1186 987.5 1164 c 128,-1,32
 965 1142 965 1142 959 1098 c 2,33,-1
 934 930 l 2,34,35
 924 867 924 867 949 822 c 128,-1,36
 974 777 974 777 1024 767 c 1,37,-1
 1030 768 l 1,38,-1
 1080 1098 l 2,27,28
EndSplineSet
Validated: 37
EndChar

StartChar: uni03D2
Encoding: 978 978 426
Width: 1258
GlyphClass: 1
Flags: W
LayerCount: 2
Fore
SplineSet
882 1184 m 2,0,1
 973 1352 973 1352 1065.5 1419.5 c 128,-1,2
 1158 1487 1158 1487 1313 1487 c 0,3,4
 1341 1487 1341 1487 1366.5 1483 c 128,-1,5
 1392 1479 1392 1479 1411 1471 c 1,6,-1
 1347 1215 l 2,7,8
 1344 1215 1344 1215 1323 1216.5 c 128,-1,9
 1302 1218 1302 1218 1292 1218 c 0,10,11
 1254 1218 1254 1218 1220 1186.5 c 128,-1,12
 1186 1155 1186 1155 1159 1108 c 2,13,-1
 778 425 l 1,14,-1
 776 425 l 1,15,-1
 713 0 l 1,16,-1
 376 0 l 1,17,-1
 442 445 l 1,18,-1
 273 1108 l 2,19,20
 258 1157 258 1157 235 1187.5 c 128,-1,21
 212 1218 212 1218 173 1218 c 0,22,23
 162 1218 162 1218 140 1216.5 c 128,-1,24
 118 1215 118 1215 116 1215 c 1,25,-1
 132 1471 l 1,26,27
 150 1479 150 1479 176 1483 c 128,-1,28
 202 1487 202 1487 233 1487 c 0,29,30
 384 1487 384 1487 459.5 1422.5 c 128,-1,31
 535 1358 535 1358 573 1194 c 2,32,-1
 651 820 l 1,33,-1
 654 720 l 1,34,-1
 660 719 l 1,35,-1
 694 820 l 1,36,-1
 882 1184 l 2,0,1
EndSplineSet
Validated: 1
EndChar

StartChar: uni03D6
Encoding: 982 982 427
Width: 1740
GlyphClass: 1
Flags: W
LayerCount: 2
Fore
SplineSet
1806 890 m 1,0,-1
 1670 890 l 1,1,2
 1686 817 1686 817 1689 736 c 128,-1,3
 1692 655 1692 655 1679 566 c 0,4,5
 1636 282 1636 282 1508 130.5 c 128,-1,6
 1380 -21 1380 -21 1132 -21 c 0,7,8
 1023 -21 1023 -21 942 32.5 c 128,-1,9
 861 86 861 86 821 189 c 1,10,11
 752 84 752 84 655 31.5 c 128,-1,12
 558 -21 558 -21 441 -21 c 0,13,14
 204 -21 204 -21 115.5 138 c 128,-1,15
 27 297 27 297 68 566 c 0,16,17
 81 657 81 657 108 737.5 c 128,-1,18
 135 818 135 818 173 890 c 1,19,-1
 43 890 l 1,20,-1
 71 1082 l 1,21,-1
 1834 1082 l 1,22,-1
 1806 890 l 1,0,-1
1343 566 m 0,23,24
 1352 646 1352 646 1350 727 c 128,-1,25
 1348 808 1348 808 1335 890 c 1,26,-1
 510 890 l 1,27,28
 472 809 472 809 446 727.5 c 128,-1,29
 420 646 420 646 406 566 c 0,30,31
 384 420 384 420 400 330.5 c 128,-1,32
 416 241 416 241 488 246 c 1,33,-1
 494 245 l 1,34,35
 557 239 557 239 610 302 c 128,-1,36
 663 365 663 365 684 501 c 2,37,-1
 712 684 l 1,38,-1
 1072 684 l 1,39,-1
 1044 501 l 2,40,41
 1023 358 1023 358 1056.5 298.5 c 128,-1,42
 1090 239 1090 239 1160 239 c 0,43,44
 1229 239 1229 239 1275.5 333.5 c 128,-1,45
 1322 428 1322 428 1343 566 c 0,23,24
EndSplineSet
Validated: 33
EndChar

StartChar: uni0402
Encoding: 1026 1026 430
Width: 1584
GlyphClass: 1
Flags: W
LayerCount: 2
Fore
SplineSet
1248 1196 m 1,0,-1
 863 1196 l 1,1,-1
 824 936 l 1,2,-1
 998 936 l 2,3,4
 1270 936 1270 936 1421.5 811.5 c 128,-1,5
 1573 687 1573 687 1538 445 c 0,6,7
 1522 313 1522 313 1407.5 181.5 c 128,-1,8
 1293 50 1293 50 1104 -22 c 1,9,-1
 978 185 l 1,10,11
 1075 239 1075 239 1130.5 297.5 c 128,-1,12
 1186 356 1186 356 1201 445 c 0,13,14
 1218 561 1218 561 1155 618.5 c 128,-1,15
 1092 676 1092 676 959 676 c 2,16,-1
 785 676 l 1,17,-1
 684 0 l 1,18,-1
 346 0 l 1,19,-1
 525 1196 l 1,20,-1
 147 1196 l 1,21,-1
 186 1456 l 1,22,-1
 1287 1456 l 1,23,-1
 1248 1196 l 1,0,-1
EndSplineSet
Validated: 33
EndChar

StartChar: uni0404
Encoding: 1028 1028 432
Width: 1241
GlyphClass: 1
Flags: W
LayerCount: 2
Fore
SplineSet
1244 492 m 1,0,-1
 1246 486 l 1,1,2
 1211 227 1211 227 1050 103.5 c 128,-1,3
 889 -20 889 -20 620 -20 c 0,4,5
 361 -20 361 -20 217 146.5 c 128,-1,6
 73 313 73 313 113 577 c 2,7,-1
 158 881 l 2,8,9
 199 1157 199 1157 379.5 1317.5 c 128,-1,10
 560 1478 560 1478 822 1478 c 0,11,12
 1089 1478 1089 1478 1225.5 1348 c 128,-1,13
 1362 1218 1362 1218 1322 974 c 1,14,-1
 1319 968 l 1,15,-1
 989 968 l 1,16,17
 1010 1107 1010 1107 962.5 1162.5 c 128,-1,18
 915 1218 915 1218 783 1218 c 0,19,20
 674 1218 674 1218 596 1125.5 c 128,-1,21
 518 1033 518 1033 496 883 c 2,22,-1
 492 859 l 1,23,-1
 858 859 l 1,24,-1
 819 598 l 1,25,-1
 454 598 l 1,26,-1
 451 577 l 2,27,28
 427 419 427 419 480 329.5 c 128,-1,29
 533 240 533 240 659 240 c 0,30,31
 770 240 770 240 833 299 c 128,-1,32
 896 358 896 358 916 492 c 1,33,-1
 1244 492 l 1,0,-1
EndSplineSet
Validated: 33
EndChar

StartChar: uni0405
Encoding: 1029 1029 433
Width: 1273
GlyphClass: 1
Flags: W
LayerCount: 2
Fore
SplineSet
845 386 m 0,0,1
 857 466 857 466 813 506.5 c 128,-1,2
 769 547 769 547 640 594 c 0,3,4
 382 682 382 682 265 781.5 c 128,-1,5
 148 881 148 881 177 1068 c 0,6,7
 205 1258 205 1258 373.5 1367.5 c 128,-1,8
 542 1477 542 1477 781 1477 c 0,9,10
 1021 1477 1021 1477 1159.5 1359.5 c 128,-1,11
 1298 1242 1298 1242 1262 1032 c 1,12,-1
 1260 1026 l 1,13,-1
 931 1026 l 1,14,15
 946 1133 946 1133 898 1177.5 c 128,-1,16
 850 1222 850 1222 735 1222 c 0,17,18
 646 1222 646 1222 585 1176.5 c 128,-1,19
 524 1131 524 1131 514 1066 c 0,20,21
 504 1000 504 1000 551.5 963.5 c 128,-1,22
 599 927 599 927 742 867 c 1,23,24
 984 792 984 792 1097.5 684 c 128,-1,25
 1211 576 1211 576 1183 388 c 0,26,27
 1153 188 1153 188 989 83.5 c 128,-1,28
 825 -21 825 -21 574 -21 c 0,29,30
 335 -21 335 -21 177 96 c 128,-1,31
 19 213 19 213 61 462 c 1,32,-1
 63 468 l 1,33,-1
 393 468 l 1,34,35
 373 336 373 336 427 285 c 128,-1,36
 481 234 481 234 612 234 c 0,37,38
 714 234 714 234 774 276.5 c 128,-1,39
 834 319 834 319 845 386 c 0,0,1
EndSplineSet
Validated: 33
EndChar

StartChar: uni0409
Encoding: 1033 1033 437
Width: 2153
GlyphClass: 1
Flags: W
LayerCount: 2
Fore
SplineSet
1468 1456 m 1,0,-1
 1396 977 l 1,1,-1
 1593 977 l 2,2,3
 1842 977 1842 977 1983.5 838.5 c 128,-1,4
 2125 700 2125 700 2093 489 c 0,5,6
 2059 265 2059 265 1883.5 132.5 c 128,-1,7
 1708 0 1708 0 1446 0 c 2,8,-1
 913 0 l 1,9,-1
 1092 1196 l 1,10,-1
 763 1196 l 1,11,-1
 705 808 l 2,12,13
 637 355 637 355 464 177.5 c 128,-1,14
 291 0 291 0 -4 0 c 2,15,-1
 -42 0 l 1,16,-1
 -3 260 l 1,17,-1
 36 260 l 2,18,19
 182 260 182 260 250.5 376 c 128,-1,20
 319 492 319 492 367 808 c 2,21,-1
 464 1456 l 1,22,-1
 1468 1456 l 1,0,-1
1357 717 m 1,23,-1
 1289 260 l 1,24,-1
 1485 260 l 2,25,26
 1591 260 1591 260 1666.5 327.5 c 128,-1,27
 1742 395 1742 395 1757 491 c 0,28,29
 1771 588 1771 588 1718 652.5 c 128,-1,30
 1665 717 1665 717 1554 717 c 2,31,-1
 1357 717 l 1,23,-1
EndSplineSet
Validated: 33
EndChar

StartChar: uni040A
Encoding: 1034 1034 438
Width: 2152
GlyphClass: 1
Flags: W
LayerCount: 2
Fore
SplineSet
500 846 m 1,0,-1
 1038 846 l 1,1,-1
 1130 1456 l 1,2,-1
 1467 1456 l 1,3,-1
 1395 977 l 1,4,-1
 1592 977 l 2,5,6
 1841 977 1841 977 1982.5 838.5 c 128,-1,7
 2124 700 2124 700 2092 489 c 0,8,9
 2058 266 2058 266 1882.5 133 c 128,-1,10
 1707 0 1707 0 1445 0 c 2,11,-1
 912 0 l 1,12,-1
 999 586 l 1,13,-1
 461 586 l 1,14,-1
 374 0 l 1,15,-1
 36 0 l 1,16,-1
 254 1456 l 1,17,-1
 592 1456 l 1,18,-1
 500 846 l 1,0,-1
1356 717 m 1,19,-1
 1288 260 l 1,20,-1
 1484 260 l 2,21,22
 1590 260 1590 260 1665.5 327.5 c 128,-1,23
 1741 395 1741 395 1756 491 c 0,24,25
 1770 588 1770 588 1717 652.5 c 128,-1,26
 1664 717 1664 717 1553 717 c 2,27,-1
 1356 717 l 1,19,-1
EndSplineSet
Validated: 33
EndChar

StartChar: uni040B
Encoding: 1035 1035 439
Width: 1616
GlyphClass: 1
Flags: W
LayerCount: 2
Fore
SplineSet
1264 1196 m 1,0,-1
 879 1196 l 1,1,-1
 847 986 l 1,2,-1
 993 986 l 2,3,4
 1260 986 1260 986 1395.5 863 c 128,-1,5
 1531 740 1531 740 1494 495 c 2,6,-1
 1420 0 l 1,7,-1
 1083 0 l 1,8,-1
 1157 495 l 2,9,10
 1178 632 1178 632 1133 679 c 128,-1,11
 1088 726 1088 726 954 726 c 2,12,-1
 808 726 l 1,13,-1
 700 0 l 1,14,-1
 362 0 l 1,15,-1
 541 1196 l 1,16,-1
 163 1196 l 1,17,-1
 202 1456 l 1,18,-1
 1303 1456 l 1,19,-1
 1264 1196 l 1,0,-1
EndSplineSet
Validated: 33
EndChar

StartChar: uni040F
Encoding: 1039 1039 443
Width: 1426
GlyphClass: 1
Flags: W
LayerCount: 2
Fore
SplineSet
234 1456 m 1,0,-1
 571 1456 l 1,1,-1
 392 260 l 1,2,-1
 930 260 l 1,3,-1
 1109 1456 l 1,4,-1
 1448 1456 l 1,5,-1
 1230 0 l 1,6,-1
 807 0 l 1,7,-1
 753 -360 l 1,8,-1
 415 -360 l 1,9,-1
 469 0 l 1,10,-1
 16 0 l 1,11,-1
 234 1456 l 1,0,-1
EndSplineSet
Validated: 1
EndChar

StartChar: uni0411
Encoding: 1041 1041 445
Width: 1279
GlyphClass: 1
Flags: W
LayerCount: 2
Fore
SplineSet
1192 1196 m 1,0,-1
 554 1196 l 1,1,-1
 521 977 l 1,2,-1
 718 977 l 2,3,4
 967 977 967 977 1108.5 838.5 c 128,-1,5
 1250 700 1250 700 1218 489 c 0,6,7
 1184 266 1184 266 1008.5 133 c 128,-1,8
 833 0 833 0 571 0 c 2,9,-1
 36 0 l 1,10,-1
 254 1456 l 1,11,-1
 1231 1456 l 1,12,-1
 1192 1196 l 1,0,-1
482 717 m 1,13,-1
 414 260 l 1,14,-1
 610 260 l 2,15,16
 716 260 716 260 791.5 327.5 c 128,-1,17
 867 395 867 395 882 491 c 0,18,19
 896 588 896 588 843 652.5 c 128,-1,20
 790 717 790 717 679 717 c 2,21,-1
 482 717 l 1,13,-1
EndSplineSet
Validated: 33
EndChar

StartChar: uni0414
Encoding: 1044 1044 448
Width: 1409
GlyphClass: 1
Flags: W
LayerCount: 2
Fore
SplineSet
1314 -358 m 1,0,-1
 976 -358 l 1,1,-1
 1030 0 l 1,2,-1
 251 0 l 1,3,-1
 197 -358 l 1,4,-1
 -139 -358 l 1,5,-1
 -46 260 l 1,6,-1
 27 260 l 2,7,8
 128 260 128 260 194.5 400 c 128,-1,9
 261 540 261 540 321 860 c 1,10,-1
 443 1456 l 1,11,-1
 1428 1456 l 1,12,-1
 1249 260 l 1,13,-1
 1407 260 l 1,14,-1
 1314 -358 l 1,0,-1
659 860 m 2,15,16
 620 664 620 664 564.5 514 c 128,-1,17
 509 364 509 364 439 260 c 1,18,-1
 912 260 l 1,19,-1
 1052 1196 l 1,20,-1
 727 1196 l 1,21,-1
 659 860 l 2,15,16
EndSplineSet
Validated: 1
EndChar

StartChar: uni0416
Encoding: 1046 1046 450
Width: 1961
GlyphClass: 1
Flags: W
LayerCount: 2
Fore
SplineSet
1272 578 m 1,0,-1
 1162 578 l 1,1,-1
 1076 0 l 1,2,-1
 738 0 l 1,3,-1
 824 578 l 1,4,-1
 712 578 l 1,5,-1
 337 0 l 1,6,-1
 -83 0 l 1,7,-1
 477 793 l 1,8,-1
 149 1456 l 1,9,-1
 575 1456 l 1,10,-1
 792 880 l 1,11,-1
 869 880 l 1,12,-1
 956 1456 l 1,13,-1
 1294 1456 l 1,14,-1
 1207 880 l 1,15,-1
 1284 880 l 1,16,-1
 1662 1456 l 1,17,-1
 2086 1456 l 1,18,-1
 1571 796 l 1,19,-1
 1884 0 l 1,20,-1
 1463 0 l 1,21,-1
 1272 578 l 1,0,-1
EndSplineSet
Validated: 1
EndChar

StartChar: uni0417
Encoding: 1047 1047 451
Width: 1325
GlyphClass: 1
Flags: W
LayerCount: 2
Fore
SplineSet
1307 1061 m 0,0,1
 1291 956 1291 956 1215 873.5 c 128,-1,2
 1139 791 1139 791 1019 745 c 1,3,4
 1138 701 1138 701 1194 615 c 128,-1,5
 1250 529 1250 529 1232 408 c 0,6,7
 1200 199 1200 199 1017 89 c 128,-1,8
 834 -21 834 -21 558 -21 c 0,9,10
 334 -21 334 -21 177 87 c 128,-1,11
 20 195 20 195 57 398 c 1,12,-1
 59 404 l 1,13,-1
 389 404 l 1,14,15
 377 330 377 330 435.5 284.5 c 128,-1,16
 494 239 494 239 597 239 c 0,17,18
 717 239 717 239 800.5 289.5 c 128,-1,19
 884 340 884 340 895 415 c 0,20,21
 911 526 911 526 855.5 572 c 128,-1,22
 800 618 800 618 670 618 c 2,23,-1
 466 618 l 1,24,-1
 488 767 l 1,25,-1
 503 869 l 1,26,-1
 707 869 l 2,27,28
 822 869 822 869 888.5 917.5 c 128,-1,29
 955 966 955 966 969 1054 c 0,30,31
 980 1126 980 1126 923 1171.5 c 128,-1,32
 866 1217 866 1217 744 1217 c 0,33,34
 655 1217 655 1217 585.5 1174 c 128,-1,35
 516 1131 516 1131 506 1060 c 1,36,-1
 179 1060 l 1,37,-1
 177 1066 l 1,38,39
 200 1258 200 1258 374.5 1367.5 c 128,-1,40
 549 1477 549 1477 783 1477 c 0,41,42
 1044 1477 1044 1477 1190 1368 c 128,-1,43
 1336 1259 1336 1259 1307 1061 c 0,0,1
EndSplineSet
Validated: 33
EndChar

StartChar: uni0418
Encoding: 1048 1048 452
Width: 1426
GlyphClass: 1
Flags: W
LayerCount: 2
Fore
SplineSet
1114 1456 m 1,0,-1
 1452 1456 l 1,1,-1
 1234 0 l 1,2,-1
 896 0 l 1,3,-1
 1030 901 l 1,4,-1
 1025 903 l 1,5,-1
 357 0 l 1,6,-1
 19 0 l 1,7,-1
 237 1456 l 1,8,-1
 575 1456 l 1,9,-1
 440 556 l 1,10,-1
 445 554 l 1,11,-1
 1114 1456 l 1,0,-1
EndSplineSet
Validated: 1
EndChar

StartChar: uni041B
Encoding: 1051 1051 455
Width: 1446
GlyphClass: 1
Flags: W
LayerCount: 2
Fore
SplineSet
1468 1456 m 1,0,-1
 1250 0 l 1,1,-1
 913 0 l 1,2,-1
 1092 1196 l 1,3,-1
 732 1196 l 1,4,-1
 674 808 l 2,5,6
 606 353 606 353 442.5 176.5 c 128,-1,7
 279 0 279 0 -4 0 c 2,8,-1
 -42 0 l 1,9,-1
 -3 260 l 1,10,-1
 36 260 l 2,11,12
 168 260 168 260 227.5 373.5 c 128,-1,13
 287 487 287 487 335 808 c 2,14,-1
 432 1456 l 1,15,-1
 1468 1456 l 1,0,-1
EndSplineSet
Validated: 1
EndChar

StartChar: uni0423
Encoding: 1059 1059 463
Width: 1317
GlyphClass: 1
Flags: W
LayerCount: 2
Fore
SplineSet
714 821 m 1,0,-1
 717 796 l 1,1,-1
 723 794 l 1,2,-1
 1105 1456 l 1,3,-1
 1453 1456 l 1,4,-1
 745 296 l 2,5,6
 655 146 655 146 550 62.5 c 128,-1,7
 445 -21 445 -21 282 -21 c 0,8,9
 225 -21 225 -21 180.5 -10.5 c 128,-1,10
 136 0 136 0 71 23 c 1,11,-1
 146 264 l 1,12,13
 192 250 192 250 220 244.5 c 128,-1,14
 248 239 248 239 283 239 c 0,15,16
 363 239 363 239 410.5 271.5 c 128,-1,17
 458 304 458 304 492 375 c 2,18,-1
 513 416 l 1,19,-1
 140 1456 l 1,20,-1
 501 1456 l 1,21,-1
 714 821 l 1,0,-1
EndSplineSet
Validated: 1
EndChar

StartChar: uni0426
Encoding: 1062 1062 466
Width: 1570
GlyphClass: 1
Flags: W
LayerCount: 2
Fore
SplineSet
240 1456 m 1,0,-1
 577 1456 l 1,1,-1
 398 260 l 1,2,-1
 937 260 l 1,3,-1
 1116 1456 l 1,4,-1
 1454 1456 l 1,5,-1
 1274 258 l 1,6,-1
 1471 258 l 1,7,-1
 1378 -359 l 1,8,-1
 1041 -359 l 1,9,-1
 1095 0 l 1,10,-1
 22 0 l 1,11,-1
 240 1456 l 1,0,-1
EndSplineSet
Validated: 1
EndChar

StartChar: uni0427
Encoding: 1063 1063 467
Width: 1431
GlyphClass: 1
Flags: W
LayerCount: 2
Fore
SplineSet
1454 1456 m 1,0,-1
 1236 0 l 1,1,-1
 898 0 l 1,2,-1
 979 543 l 1,3,4
 919 533 919 533 843 526.5 c 128,-1,5
 767 520 767 520 730 520 c 0,6,7
 459 520 459 520 314.5 643.5 c 128,-1,8
 170 767 170 767 207 1011 c 2,9,-1
 273 1456 l 1,10,-1
 611 1456 l 1,11,-1
 545 1011 l 2,12,13
 524 875 524 875 577 827.5 c 128,-1,14
 630 780 630 780 769 780 c 0,15,16
 809 780 809 780 884 786 c 128,-1,17
 959 792 959 792 1018 802 c 1,18,-1
 1116 1456 l 1,19,-1
 1454 1456 l 1,0,-1
EndSplineSet
Validated: 33
EndChar

StartChar: uni0428
Encoding: 1064 1064 468
Width: 2138
GlyphClass: 1
Flags: W
LayerCount: 2
Fore
SplineSet
588 1456 m 1,0,-1
 409 260 l 1,1,-1
 860 260 l 1,2,-1
 1039 1456 l 1,3,-1
 1376 1456 l 1,4,-1
 1197 260 l 1,5,-1
 1644 260 l 1,6,-1
 1823 1456 l 1,7,-1
 2160 1456 l 1,8,-1
 1942 0 l 1,9,-1
 32 0 l 1,10,-1
 250 1456 l 1,11,-1
 588 1456 l 1,0,-1
EndSplineSet
Validated: 1
EndChar

StartChar: uni0429
Encoding: 1065 1065 469
Width: 2338
GlyphClass: 1
Flags: W
LayerCount: 2
Fore
SplineSet
588 1456 m 1,0,-1
 409 260 l 1,1,-1
 860 260 l 1,2,-1
 1039 1456 l 1,3,-1
 1376 1456 l 1,4,-1
 1197 260 l 1,5,-1
 1644 260 l 1,6,-1
 1823 1456 l 1,7,-1
 2160 1456 l 1,8,-1
 1977 234 l 1,9,-1
 2229 234 l 1,10,-1
 2143 -343 l 1,11,-1
 1806 -343 l 1,12,-1
 1857 0 l 1,13,-1
 32 0 l 1,14,-1
 250 1456 l 1,15,-1
 588 1456 l 1,0,-1
EndSplineSet
Validated: 1
EndChar

StartChar: uni042A
Encoding: 1066 1066 470
Width: 1483
GlyphClass: 1
Flags: W
LayerCount: 2
Fore
SplineSet
146 1456 m 1,0,-1
 756 1456 l 1,1,-1
 684 977 l 1,2,-1
 881 977 l 2,3,4
 1130 977 1130 977 1271.5 838.5 c 128,-1,5
 1413 700 1413 700 1381 489 c 0,6,7
 1347 266 1347 266 1171.5 133 c 128,-1,8
 996 0 996 0 734 0 c 2,9,-1
 199 0 l 1,10,-1
 378 1196 l 1,11,-1
 107 1196 l 1,12,-1
 146 1456 l 1,0,-1
645 717 m 1,13,-1
 577 260 l 1,14,-1
 773 260 l 2,15,16
 879 260 879 260 954.5 327.5 c 128,-1,17
 1030 395 1030 395 1045 491 c 0,18,19
 1059 588 1059 588 1006 652.5 c 128,-1,20
 953 717 953 717 842 717 c 2,21,-1
 645 717 l 1,13,-1
EndSplineSet
Validated: 33
EndChar

StartChar: uni042B
Encoding: 1067 1067 471
Width: 1789
GlyphClass: 1
Flags: W
LayerCount: 2
Fore
SplineSet
521 977 m 1,0,-1
 718 977 l 2,1,2
 967 977 967 977 1108.5 838.5 c 128,-1,3
 1250 700 1250 700 1218 489 c 0,4,5
 1184 266 1184 266 1008.5 133 c 128,-1,6
 833 0 833 0 571 0 c 2,7,-1
 36 0 l 1,8,-1
 254 1456 l 1,9,-1
 593 1456 l 1,10,-1
 521 977 l 1,0,-1
1592 0 m 1,11,-1
 1255 0 l 1,12,-1
 1473 1456 l 1,13,-1
 1810 1456 l 1,14,-1
 1592 0 l 1,11,-1
482 717 m 1,15,-1
 414 260 l 1,16,-1
 610 260 l 2,17,18
 716 260 716 260 791.5 327.5 c 128,-1,19
 867 395 867 395 882 491 c 0,20,21
 896 588 896 588 843 652.5 c 128,-1,22
 790 717 790 717 679 717 c 2,23,-1
 482 717 l 1,15,-1
EndSplineSet
Validated: 33
EndChar

StartChar: uni042C
Encoding: 1068 1068 472
Width: 1278
GlyphClass: 1
Flags: W
LayerCount: 2
Fore
SplineSet
521 977 m 1,0,-1
 718 977 l 2,1,2
 967 977 967 977 1108.5 838.5 c 128,-1,3
 1250 700 1250 700 1218 489 c 0,4,5
 1184 266 1184 266 1008.5 133 c 128,-1,6
 833 0 833 0 571 0 c 2,7,-1
 36 0 l 1,8,-1
 254 1456 l 1,9,-1
 593 1456 l 1,10,-1
 521 977 l 1,0,-1
482 717 m 1,11,-1
 414 260 l 1,12,-1
 610 260 l 2,13,14
 716 260 716 260 791.5 327.5 c 128,-1,15
 867 395 867 395 882 491 c 0,16,17
 896 588 896 588 843 652.5 c 128,-1,18
 790 717 790 717 679 717 c 2,19,-1
 482 717 l 1,11,-1
EndSplineSet
Validated: 33
EndChar

StartChar: uni042D
Encoding: 1069 1069 473
Width: 1238
GlyphClass: 1
Flags: W
LayerCount: 2
Fore
SplineSet
113 966 m 1,0,-1
 111 972 l 1,1,2
 145 1231 145 1231 300.5 1354.5 c 128,-1,3
 456 1478 456 1478 724 1478 c 0,4,5
 970 1478 970 1478 1103.5 1311 c 128,-1,6
 1237 1144 1237 1144 1198 881 c 2,7,-1
 1153 577 l 2,8,9
 1111 299 1111 299 934.5 139.5 c 128,-1,10
 758 -20 758 -20 499 -20 c 0,11,12
 243 -20 243 -20 119 109.5 c 128,-1,13
 -5 239 -5 239 36 485 c 1,14,-1
 38 490 l 1,15,-1
 368 490 l 1,16,17
 346 348 346 348 383 294 c 128,-1,18
 420 240 420 240 538 240 c 0,19,20
 645 240 645 240 717.5 331.5 c 128,-1,21
 790 423 790 423 813 575 c 2,22,-1
 816 598 l 1,23,-1
 433 598 l 1,24,-1
 472 859 l 1,25,-1
 855 859 l 1,26,-1
 859 881 l 1,27,28
 882 1041 882 1041 840 1129.5 c 128,-1,29
 798 1218 798 1218 685 1218 c 0,30,31
 575 1218 575 1218 518 1159 c 128,-1,32
 461 1100 461 1100 441 966 c 1,33,-1
 113 966 l 1,0,-1
EndSplineSet
Validated: 33
EndChar

StartChar: uni042E
Encoding: 1070 1070 474
Width: 1991
GlyphClass: 1
Flags: W
LayerCount: 2
Fore
SplineSet
1816 597 m 2,0,1
 1773 317 1773 317 1579 148 c 128,-1,2
 1385 -21 1385 -21 1107 -21 c 0,3,4
 843 -21 843 -21 691 153.5 c 128,-1,5
 539 328 539 328 578 591 c 1,6,-1
 482 591 l 1,7,-1
 394 0 l 1,8,-1
 57 0 l 1,9,-1
 275 1456 l 1,10,-1
 612 1456 l 1,11,-1
 521 852 l 1,12,-1
 617 852 l 1,13,-1
 618 859 l 2,14,15
 659 1137 659 1137 854.5 1307 c 128,-1,16
 1050 1477 1050 1477 1330 1477 c 0,17,18
 1594 1477 1594 1477 1744 1300.5 c 128,-1,19
 1894 1124 1894 1124 1855 859 c 2,20,-1
 1816 597 l 2,0,1
1518 861 m 2,21,22
 1542 1023 1542 1023 1484 1120 c 128,-1,23
 1426 1217 1426 1217 1291 1217 c 0,24,25
 1159 1217 1159 1217 1068.5 1116.5 c 128,-1,26
 978 1016 978 1016 955 861 c 2,27,-1
 916 597 l 2,28,29
 891 433 891 433 949.5 336 c 128,-1,30
 1008 239 1008 239 1146 239 c 0,31,32
 1274 239 1274 239 1364.5 340 c 128,-1,33
 1455 441 1455 441 1479 597 c 2,34,-1
 1518 861 l 2,21,22
EndSplineSet
Validated: 33
EndChar

StartChar: uni042F
Encoding: 1071 1071 475
Width: 1198
GlyphClass: 1
Flags: W
LayerCount: 2
Fore
SplineSet
218 0 m 1,0,-1
 -149 0 l 1,1,-1
 251 647 l 1,2,3
 158 707 158 707 120.5 798 c 128,-1,4
 83 889 83 889 103 1015 c 0,5,6
 134 1223 134 1223 301.5 1339.5 c 128,-1,7
 469 1456 469 1456 715 1456 c 2,8,-1
 1238 1456 l 1,9,-1
 1020 0 l 1,10,-1
 682 0 l 1,11,-1
 762 537 l 1,12,-1
 552 537 l 1,13,-1
 218 0 l 1,0,-1
861 1196 m 1,14,-1
 676 1196 l 2,15,16
 572 1196 572 1196 512 1145.5 c 128,-1,17
 452 1095 452 1095 438 995 c 0,18,19
 424 900 424 900 471 839 c 128,-1,20
 518 778 518 778 614 778 c 2,21,-1
 798 778 l 1,22,-1
 861 1196 l 1,14,-1
EndSplineSet
Validated: 33
EndChar

StartChar: uni0431
Encoding: 1073 1073 477
Width: 1155
GlyphClass: 1
Flags: W
LayerCount: 2
Fore
SplineSet
675 1102 m 0,0,1
 905 1102 905 1102 1019.5 947 c 128,-1,2
 1134 792 1134 792 1099 551 c 2,3,-1
 1096 530 l 2,4,5
 1057 276 1057 276 898.5 127.5 c 128,-1,6
 740 -21 740 -21 491 -21 c 0,7,8
 252 -21 252 -21 132 133.5 c 128,-1,9
 12 288 12 288 49 530 c 1,10,-1
 50 542 l 1,11,-1
 89 799 l 2,12,13
 142 1146 142 1146 285 1294 c 128,-1,14
 428 1442 428 1442 699 1446 c 0,15,16
 828 1447 828 1447 888 1473.5 c 128,-1,17
 948 1500 948 1500 957 1560 c 1,18,-1
 1218 1560 l 1,19,-1
 1220 1554 l 1,20,21
 1192 1336 1192 1336 1069 1261 c 128,-1,22
 946 1186 946 1186 687 1182 c 0,23,24
 544 1179 544 1179 465 1127.5 c 128,-1,25
 386 1076 386 1076 384 996 c 1,26,-1
 387 991 l 1,27,28
 437 1038 437 1038 514 1070 c 128,-1,29
 591 1102 591 1102 675 1102 c 0,0,1
618 842 m 0,30,31
 522 842 522 842 464.5 760.5 c 128,-1,32
 407 679 407 679 389 551 c 2,33,-1
 386 530 l 2,34,35
 364 390 364 390 395.5 314.5 c 128,-1,36
 427 239 427 239 530 239 c 0,37,38
 625 239 625 239 681.5 318.5 c 128,-1,39
 738 398 738 398 759 530 c 2,40,-1
 762 551 l 2,41,42
 782 687 782 687 751 764.5 c 128,-1,43
 720 842 720 842 618 842 c 0,30,31
EndSplineSet
Validated: 33
EndChar

StartChar: uni0432
Encoding: 1074 1074 478
Width: 1151
GlyphClass: 1
Flags: W
LayerCount: 2
Fore
SplineSet
39 0 m 1,0,-1
 201 1082 l 1,1,-1
 665 1082 l 2,2,3
 874 1082 874 1082 988 1004.5 c 128,-1,4
 1102 927 1102 927 1080 779 c 0,5,6
 1067 700 1067 700 1006.5 641.5 c 128,-1,7
 946 583 946 583 844 553 c 1,8,9
 973 528 973 528 1030 463 c 128,-1,10
 1087 398 1087 398 1074 309 c 0,11,12
 1050 150 1050 150 924 75 c 128,-1,13
 798 0 798 0 573 0 c 2,14,-1
 39 0 l 1,0,-1
442 441 m 1,15,-1
 415 258 l 1,16,-1
 612 258 l 2,17,18
 671 258 671 258 703.5 280 c 128,-1,19
 736 302 736 302 743 347 c 0,20,21
 750 393 750 393 727.5 417 c 128,-1,22
 705 441 705 441 639 441 c 2,23,-1
 442 441 l 1,15,-1
473 649 m 1,24,-1
 623 649 l 2,25,26
 675 650 675 650 702 670 c 128,-1,27
 729 690 729 690 736 730 c 0,28,29
 743 782 743 782 717 803 c 128,-1,30
 691 824 691 824 627 824 c 2,31,-1
 500 824 l 1,32,-1
 473 649 l 1,24,-1
EndSplineSet
Validated: 33
EndChar

StartChar: uni0433
Encoding: 1075 1075 479
Width: 859
GlyphClass: 1
Flags: W
LayerCount: 2
Fore
SplineSet
896 822 m 1,0,-1
 470 822 l 1,1,-1
 347 0 l 1,2,-1
 10 0 l 1,3,-1
 172 1082 l 1,4,-1
 935 1082 l 1,5,-1
 896 822 l 1,0,-1
EndSplineSet
Validated: 1
EndChar

StartChar: uni0434
Encoding: 1076 1076 480
Width: 1397
GlyphClass: 1
Flags: W
LayerCount: 2
Fore
SplineSet
104 260 m 1,0,-1
 104 261 l 1,1,-1
 130 261 l 2,2,3
 208 261 208 261 252.5 340 c 128,-1,4
 297 419 297 419 334 621 c 2,5,-1
 424 1082 l 1,6,-1
 1265 1082 l 1,7,-1
 1142 260 l 1,8,-1
 1293 260 l 1,9,-1
 1200 -358 l 1,10,-1
 863 -358 l 1,11,-1
 917 0 l 1,12,-1
 332 0 l 1,13,-1
 278 -358 l 1,14,-1
 -60 -358 l 1,15,-1
 33 260 l 1,16,-1
 104 260 l 1,0,-1
672 621 m 2,17,18
 650 508 650 508 620.5 418.5 c 128,-1,19
 591 329 591 329 553 260 c 1,20,-1
 806 260 l 1,21,-1
 890 822 l 1,22,-1
 711 822 l 1,23,-1
 672 621 l 2,17,18
EndSplineSet
Validated: 1
EndChar

StartChar: uni0436
Encoding: 1078 1078 482
Width: 1755
GlyphClass: 1
Flags: W
LayerCount: 2
Fore
SplineSet
1111 378 m 1,0,-1
 1020 378 l 1,1,-1
 964 0 l 1,2,-1
 628 0 l 1,3,-1
 684 378 l 1,4,-1
 596 378 l 1,5,-1
 367 0 l 1,6,-1
 -67 0 l 1,7,-1
 342 582 l 1,8,-1
 356 575 l 1,9,-1
 361 579 l 1,10,-1
 104 1082 l 1,11,-1
 537 1082 l 1,12,-1
 671 693 l 1,13,-1
 731 693 l 1,14,-1
 790 1082 l 1,15,-1
 1126 1082 l 1,16,-1
 1067 693 l 1,17,-1
 1132 693 l 1,18,-1
 1382 1082 l 1,19,-1
 1807 1082 l 1,20,-1
 1810 1077 l 1,21,-1
 1409 581 l 1,22,-1
 1413 576 l 1,23,-1
 1426 582 l 1,24,-1
 1660 0 l 1,25,-1
 1226 0 l 1,26,-1
 1111 378 l 1,0,-1
EndSplineSet
Validated: 1
EndChar

StartChar: uni0437
Encoding: 1079 1079 483
Width: 1159
GlyphClass: 1
Flags: W
LayerCount: 2
Fore
SplineSet
429 652 m 1,0,-1
 588 652 l 2,1,2
 656 652 656 652 701 680 c 128,-1,3
 746 708 746 708 753 755 c 0,4,5
 759 801 759 801 730.5 831 c 128,-1,6
 702 861 702 861 628 861 c 0,7,8
 560 861 560 861 515.5 837.5 c 128,-1,9
 471 814 471 814 464 768 c 1,10,-1
 138 768 l 1,11,-1
 136 774 l 1,12,13
 153 929 153 929 296 1015 c 128,-1,14
 439 1101 439 1101 641 1101 c 0,15,16
 860 1101 860 1101 989 1017.5 c 128,-1,17
 1118 934 1118 934 1096 786 c 0,18,19
 1084 711 1084 711 1026.5 650.5 c 128,-1,20
 969 590 969 590 878 555 c 1,21,22
 969 522 969 522 1012.5 458.5 c 128,-1,23
 1056 395 1056 395 1043 306 c 0,24,25
 1019 149 1019 149 861.5 64.5 c 128,-1,26
 704 -20 704 -20 473 -20 c 0,27,28
 283 -20 283 -20 151.5 66.5 c 128,-1,29
 20 153 20 153 50 314 c 1,30,-1
 52 320 l 1,31,-1
 380 320 l 1,32,33
 372 274 372 274 409.5 247 c 128,-1,34
 447 220 447 220 533 220 c 0,35,36
 609 220 609 220 656.5 254.5 c 128,-1,37
 704 289 704 289 711 336 c 0,38,39
 721 399 721 399 680.5 427.5 c 128,-1,40
 640 456 640 456 558 456 c 2,41,-1
 399 456 l 1,42,-1
 408 516 l 1,43,-1
 419 588 l 1,44,-1
 429 652 l 1,0,-1
EndSplineSet
Validated: 33
EndChar

StartChar: uni0438
Encoding: 1080 1080 484
Width: 1151
GlyphClass: 1
Flags: W
LayerCount: 2
Fore
SplineSet
808 1082 m 1,0,-1
 1145 1082 l 1,1,-1
 983 0 l 1,2,-1
 646 0 l 1,3,-1
 735 593 l 1,4,-1
 729 595 l 1,5,-1
 348 0 l 1,6,-1
 10 0 l 1,7,-1
 172 1082 l 1,8,-1
 510 1082 l 1,9,-1
 421 490 l 1,10,-1
 427 488 l 1,11,-1
 808 1082 l 1,0,-1
EndSplineSet
Validated: 1
EndChar

StartChar: uni043A
Encoding: 1082 1082 486
Width: 1190
GlyphClass: 1
Flags: W
LayerCount: 2
Fore
SplineSet
545 378 m 1,0,-1
 431 378 l 1,1,-1
 375 0 l 1,2,-1
 38 0 l 1,3,-1
 200 1082 l 1,4,-1
 537 1082 l 1,5,-1
 478 693 l 1,6,-1
 569 693 l 1,7,-1
 806 1082 l 1,8,-1
 1238 1082 l 1,9,-1
 841 579 l 1,10,-1
 844 574 l 1,11,-1
 863 582 l 1,12,-1
 1108 0 l 1,13,-1
 651 0 l 1,14,-1
 545 378 l 1,0,-1
EndSplineSet
Validated: 1
EndChar

StartChar: uni043B
Encoding: 1083 1083 487
Width: 1157
GlyphClass: 1
Flags: W
LayerCount: 2
Fore
SplineSet
1145 1082 m 1,0,-1
 983 0 l 1,1,-1
 646 0 l 1,2,-1
 769 822 l 1,3,-1
 561 822 l 1,4,-1
 531 621 l 2,5,6
 481 289 481 289 356 144.5 c 128,-1,7
 231 0 231 0 -24 0 c 2,8,-1
 -66 0 l 1,9,-1
 -34 261 l 1,10,-1
 -8 261 l 2,11,12
 86 261 86 261 123.5 334 c 128,-1,13
 161 407 161 407 193 621 c 2,14,-1
 262 1082 l 1,15,-1
 1145 1082 l 1,0,-1
EndSplineSet
Validated: 1
EndChar

StartChar: uni043C
Encoding: 1084 1084 488
Width: 1571
GlyphClass: 1
Flags: W
LayerCount: 2
Fore
SplineSet
747 381 m 1,0,-1
 753 380 l 1,1,-1
 1100 1082 l 1,2,-1
 1523 1082 l 1,3,-1
 1361 0 l 1,4,-1
 1024 0 l 1,5,-1
 1111 583 l 1,6,-1
 1106 584 l 1,7,-1
 806 0 l 1,8,-1
 581 0 l 1,9,-1
 464 552 l 1,10,-1
 458 551 l 1,11,-1
 375 0 l 1,12,-1
 38 0 l 1,13,-1
 200 1082 l 1,14,-1
 613 1082 l 1,15,-1
 747 381 l 1,0,-1
EndSplineSet
Validated: 1
EndChar

StartChar: uni043D
Encoding: 1085 1085 489
Width: 1151
GlyphClass: 1
Flags: W
LayerCount: 2
Fore
SplineSet
980 0 m 1,0,-1
 642 0 l 1,1,-1
 702 401 l 1,2,-1
 407 401 l 1,3,-1
 347 0 l 1,4,-1
 10 0 l 1,5,-1
 172 1082 l 1,6,-1
 509 1082 l 1,7,-1
 446 660 l 1,8,-1
 741 660 l 1,9,-1
 804 1082 l 1,10,-1
 1142 1082 l 1,11,-1
 980 0 l 1,0,-1
EndSplineSet
Validated: 1
EndChar

StartChar: uni043F
Encoding: 1087 1087 491
Width: 1151
GlyphClass: 1
Flags: W
LayerCount: 2
Fore
SplineSet
983 0 m 1,0,-1
 645 0 l 1,1,-1
 768 822 l 1,2,-1
 470 822 l 1,3,-1
 347 0 l 1,4,-1
 10 0 l 1,5,-1
 172 1082 l 1,6,-1
 1145 1082 l 1,7,-1
 983 0 l 1,0,-1
EndSplineSet
Validated: 1
EndChar

StartChar: uni0441
Encoding: 1089 1089 493
Width: 1048
GlyphClass: 1
Flags: W
LayerCount: 2
Fore
SplineSet
515 239 m 0,0,1
 581 239 581 239 622 277 c 128,-1,2
 663 315 663 315 674 385 c 1,3,-1
 981 385 l 1,4,-1
 983 379 l 1,5,6
 959 195 959 195 817.5 87 c 128,-1,7
 676 -21 676 -21 476 -21 c 0,8,9
 239 -21 239 -21 123 133.5 c 128,-1,10
 7 288 7 288 44 529 c 1,11,-1
 48 552 l 1,12,13
 85 805 85 805 239.5 953.5 c 128,-1,14
 394 1102 394 1102 642 1102 c 0,15,16
 841 1102 841 1102 950.5 986 c 128,-1,17
 1060 870 1060 870 1027 673 c 1,18,-1
 1025 668 l 1,19,-1
 716 668 l 1,20,21
 728 748 728 748 700.5 795 c 128,-1,22
 673 842 673 842 603 842 c 0,23,24
 509 842 509 842 456.5 762 c 128,-1,25
 404 682 404 682 385 552 c 2,26,-1
 381 529 l 2,27,28
 360 388 360 388 387 313.5 c 128,-1,29
 414 239 414 239 515 239 c 0,0,1
EndSplineSet
Validated: 33
EndChar

StartChar: uni0442
Encoding: 1090 1090 494
Width: 1080
GlyphClass: 1
Flags: W
LayerCount: 2
Fore
SplineSet
1097 824 m 1,0,-1
 755 824 l 1,1,-1
 632 0 l 1,2,-1
 293 0 l 1,3,-1
 416 824 l 1,4,-1
 81 824 l 1,5,-1
 119 1082 l 1,6,-1
 1135 1082 l 1,7,-1
 1097 824 l 1,0,-1
EndSplineSet
Validated: 1
EndChar

StartChar: uni0444
Encoding: 1092 1092 496
Width: 1773
GlyphClass: 1
Flags: W
LayerCount: 2
Fore
SplineSet
46 539 m 2,0,1
 85 801 85 801 216.5 951.5 c 128,-1,2
 348 1102 348 1102 551 1102 c 0,3,4
 627 1102 627 1102 683 1066 c 128,-1,5
 739 1030 739 1030 776 963 c 1,6,-1
 865 1560 l 1,7,-1
 1203 1560 l 1,8,-1
 1115 974 l 1,9,10
 1168 1035 1168 1035 1233 1068.5 c 128,-1,11
 1298 1102 1298 1102 1376 1102 c 0,12,13
 1569 1102 1569 1102 1660.5 945.5 c 128,-1,14
 1752 789 1752 789 1715 539 c 2,15,-1
 1712 518 l 2,16,17
 1673 266 1673 266 1542.5 122.5 c 128,-1,18
 1412 -21 1412 -21 1210 -21 c 0,19,20
 1133 -21 1133 -21 1077.5 11 c 128,-1,21
 1022 43 1022 43 985 105 c 1,22,-1
 907 -416 l 1,23,-1
 569 -416 l 1,24,-1
 646 101 l 1,25,26
 591 42 591 42 525 10.5 c 128,-1,27
 459 -21 459 -21 381 -21 c 0,28,29
 189 -21 189 -21 97.5 128.5 c 128,-1,30
 6 278 6 278 43 518 c 2,31,-1
 46 539 l 2,0,1
380 518 m 2,32,33
 359 382 359 382 386.5 310.5 c 128,-1,34
 414 239 414 239 506 239 c 0,35,36
 561 239 561 239 604 257.5 c 128,-1,37
 647 276 647 276 678 313 c 1,38,-1
 745 760 l 1,39,40
 727 800 727 800 690.5 821 c 128,-1,41
 654 842 654 842 598 842 c 0,42,43
 512 842 512 842 457.5 757.5 c 128,-1,44
 403 673 403 673 383 539 c 2,45,-1
 380 518 l 2,32,33
1377 539 m 2,46,47
 1397 680 1397 680 1369.5 761 c 128,-1,48
 1342 842 1342 842 1254 842 c 0,49,50
 1199 842 1199 842 1156 820 c 128,-1,51
 1113 798 1113 798 1082 757 c 1,52,-1
 1015 308 l 1,53,54
 1034 273 1034 273 1071.5 256 c 128,-1,55
 1109 239 1109 239 1166 239 c 0,56,57
 1252 239 1252 239 1302.5 313.5 c 128,-1,58
 1353 388 1353 388 1374 518 c 2,59,-1
 1377 539 l 2,46,47
EndSplineSet
Validated: 33
EndChar

StartChar: uni0446
Encoding: 1094 1094 498
Width: 1261
GlyphClass: 1
Flags: W
LayerCount: 2
Fore
SplineSet
172 1082 m 1,0,-1
 509 1082 l 1,1,-1
 386 260 l 1,2,-1
 684 260 l 1,3,-1
 807 1082 l 1,4,-1
 1145 1082 l 1,5,-1
 1022 260 l 1,6,-1
 1189 260 l 1,7,-1
 1096 -360 l 1,8,-1
 759 -360 l 1,9,-1
 813 0 l 1,10,-1
 10 0 l 1,11,-1
 172 1082 l 1,0,-1
EndSplineSet
Validated: 1
EndChar

StartChar: uni0447
Encoding: 1095 1095 499
Width: 1155
GlyphClass: 1
Flags: W
LayerCount: 2
Fore
SplineSet
987 0 m 1,0,-1
 649 0 l 1,1,-1
 697 325 l 1,2,3
 667 320 667 320 640.5 317.5 c 128,-1,4
 614 315 614 315 596 315 c 0,5,6
 344 315 344 315 217 417 c 128,-1,7
 90 519 90 519 122 733 c 2,8,-1
 174 1082 l 1,9,-1
 511 1082 l 1,10,-1
 459 733 l 2,11,12
 443 633 443 633 480.5 604 c 128,-1,13
 518 575 518 575 635 575 c 0,14,15
 659 575 659 575 684.5 577 c 128,-1,16
 710 579 710 579 736 585 c 1,17,-1
 811 1082 l 1,18,-1
 1149 1082 l 1,19,-1
 987 0 l 1,0,-1
EndSplineSet
Validated: 33
EndChar

StartChar: uni0448
Encoding: 1096 1096 500
Width: 1713
GlyphClass: 1
Flags: W
LayerCount: 2
Fore
SplineSet
509 1082 m 1,0,-1
 386 260 l 1,1,-1
 639 260 l 1,2,-1
 762 1082 l 1,3,-1
 1101 1082 l 1,4,-1
 978 260 l 1,5,-1
 1231 260 l 1,6,-1
 1354 1082 l 1,7,-1
 1691 1082 l 1,8,-1
 1529 0 l 1,9,-1
 10 0 l 1,10,-1
 172 1082 l 1,11,-1
 509 1082 l 1,0,-1
EndSplineSet
Validated: 1
EndChar

StartChar: uni0449
Encoding: 1097 1097 501
Width: 1915
GlyphClass: 1
Flags: W
LayerCount: 2
Fore
SplineSet
509 1082 m 1,0,-1
 386 260 l 1,1,-1
 639 260 l 1,2,-1
 762 1082 l 1,3,-1
 1101 1082 l 1,4,-1
 978 260 l 1,5,-1
 1231 260 l 1,6,-1
 1354 1082 l 1,7,-1
 1691 1082 l 1,8,-1
 1568 260 l 1,9,-1
 1813 260 l 1,10,-1
 1720 -360 l 1,11,-1
 1383 -360 l 1,12,-1
 1437 0 l 1,13,-1
 10 0 l 1,14,-1
 172 1082 l 1,15,-1
 509 1082 l 1,0,-1
EndSplineSet
Validated: 1
EndChar

StartChar: uni044A
Encoding: 1098 1098 502
Width: 1316
GlyphClass: 1
Flags: W
LayerCount: 2
Fore
SplineSet
688 765 m 1,0,-1
 860 765 l 2,1,2
 1082 765 1082 765 1204.5 658.5 c 128,-1,3
 1327 552 1327 552 1302 383 c 0,4,5
 1275 203 1275 203 1127 101.5 c 128,-1,6
 979 0 979 0 745 0 c 2,7,-1
 236 0 l 1,8,-1
 359 821 l 1,9,-1
 42 821 l 1,10,-1
 81 1082 l 1,11,-1
 736 1082 l 1,12,-1
 688 765 l 1,0,-1
650 506 m 1,13,-1
 613 258 l 1,14,-1
 784 258 l 2,15,16
 862 258 862 258 910 293 c 128,-1,17
 958 328 958 328 967 385 c 0,18,19
 975 441 975 441 939.5 473.5 c 128,-1,20
 904 506 904 506 821 506 c 2,21,-1
 650 506 l 1,13,-1
EndSplineSet
Validated: 33
EndChar

StartChar: uni044B
Encoding: 1099 1099 503
Width: 1744
GlyphClass: 1
Flags: W
LayerCount: 2
Fore
SplineSet
510 765 m 1,0,-1
 682 765 l 2,1,2
 904 765 904 765 1026.5 658.5 c 128,-1,3
 1149 552 1149 552 1124 383 c 0,4,5
 1097 203 1097 203 949 101.5 c 128,-1,6
 801 0 801 0 567 0 c 2,7,-1
 58 0 l 1,8,-1
 220 1082 l 1,9,-1
 558 1082 l 1,10,-1
 510 765 l 1,0,-1
1464 0 m 1,11,-1
 1125 0 l 1,12,-1
 1287 1082 l 1,13,-1
 1626 1082 l 1,14,-1
 1464 0 l 1,11,-1
472 506 m 1,15,-1
 435 258 l 1,16,-1
 606 258 l 2,17,18
 684 258 684 258 732 293 c 128,-1,19
 780 328 780 328 789 385 c 0,20,21
 797 441 797 441 761.5 473.5 c 128,-1,22
 726 506 726 506 643 506 c 2,23,-1
 472 506 l 1,15,-1
EndSplineSet
Validated: 33
EndChar

StartChar: uni044C
Encoding: 1100 1100 504
Width: 1157
GlyphClass: 1
Flags: W
LayerCount: 2
Fore
SplineSet
490 765 m 1,0,-1
 662 765 l 2,1,2
 884 765 884 765 1006.5 658.5 c 128,-1,3
 1129 552 1129 552 1104 383 c 0,4,5
 1077 203 1077 203 929 101.5 c 128,-1,6
 781 0 781 0 547 0 c 2,7,-1
 38 0 l 1,8,-1
 200 1082 l 1,9,-1
 538 1082 l 1,10,-1
 490 765 l 1,0,-1
452 506 m 1,11,-1
 415 258 l 1,12,-1
 586 258 l 2,13,14
 664 258 664 258 712 293 c 128,-1,15
 760 328 760 328 769 385 c 0,16,17
 777 441 777 441 741.5 473.5 c 128,-1,18
 706 506 706 506 623 506 c 2,19,-1
 452 506 l 1,11,-1
EndSplineSet
Validated: 33
EndChar

StartChar: uni044D
Encoding: 1101 1101 505
Width: 1044
GlyphClass: 1
Flags: W
LayerCount: 2
Fore
SplineSet
543 842 m 0,0,1
 475 842 475 842 435 804 c 128,-1,2
 395 766 395 766 386 697 c 1,3,-1
 79 697 l 1,4,-1
 77 703 l 1,5,6
 99 886 99 886 240 994 c 128,-1,7
 381 1102 381 1102 582 1102 c 0,8,9
 818 1102 818 1102 934 947 c 128,-1,10
 1050 792 1050 792 1014 552 c 1,11,-1
 1010 529 l 1,12,13
 972 275 972 275 817.5 127 c 128,-1,14
 663 -21 663 -21 416 -21 c 0,15,16
 217 -21 217 -21 108 94.5 c 128,-1,17
 -1 210 -1 210 32 409 c 1,18,-1
 34 414 l 1,19,-1
 343 414 l 1,20,21
 331 332 331 332 357.5 285.5 c 128,-1,22
 384 239 384 239 455 239 c 0,23,24
 534 239 534 239 582 295 c 128,-1,25
 630 351 630 351 652 445 c 1,26,-1
 649 451 l 1,27,-1
 419 451 l 1,28,-1
 446 634 l 1,29,-1
 685 634 l 1,30,31
 690 734 690 734 658.5 788 c 128,-1,32
 627 842 627 842 543 842 c 0,0,1
EndSplineSet
Validated: 33
EndChar

StartChar: uni044E
Encoding: 1102 1102 506
Width: 1658
GlyphClass: 1
Flags: W
LayerCount: 2
Fore
SplineSet
484 682 m 1,0,-1
 590 682 l 1,1,2
 651 878 651 878 800.5 990 c 128,-1,3
 950 1102 950 1102 1165 1102 c 0,4,5
 1403 1102 1403 1102 1522.5 947 c 128,-1,6
 1642 792 1642 792 1607 551 c 2,7,-1
 1604 530 l 2,8,9
 1565 276 1565 276 1406.5 127.5 c 128,-1,10
 1248 -21 1248 -21 999 -21 c 0,11,12
 789 -21 789 -21 669.5 100 c 128,-1,13
 550 221 550 221 549 421 c 1,14,-1
 445 421 l 1,15,-1
 382 0 l 1,16,-1
 43 0 l 1,17,-1
 205 1082 l 1,18,-1
 544 1082 l 1,19,-1
 484 682 l 1,0,-1
895 530 m 2,20,21
 873 390 873 390 904 314.5 c 128,-1,22
 935 239 935 239 1038 239 c 0,23,24
 1133 239 1133 239 1189.5 318 c 128,-1,25
 1246 397 1246 397 1267 530 c 2,26,-1
 1270 551 l 2,27,28
 1290 687 1290 687 1259 764.5 c 128,-1,29
 1228 842 1228 842 1126 842 c 0,30,31
 1030 842 1030 842 973 761 c 128,-1,32
 916 680 916 680 898 551 c 2,33,-1
 895 530 l 2,20,21
EndSplineSet
Validated: 33
EndChar

StartChar: uni044F
Encoding: 1103 1103 507
Width: 1151
GlyphClass: 1
Flags: W
LayerCount: 2
Fore
SplineSet
1113 1082 m 1,0,-1
 951 0 l 1,1,-1
 615 0 l 1,2,-1
 669 358 l 1,3,-1
 539 358 l 1,4,-1
 294 0 l 1,5,-1
 -42 0 l 1,6,-1
 245 418 l 1,7,8
 155 464 155 464 112 540 c 128,-1,9
 69 616 69 616 84 709 c 0,10,11
 109 879 109 879 256 980.5 c 128,-1,12
 403 1082 403 1082 627 1082 c 2,13,-1
 1113 1082 l 1,0,-1
420 697 m 0,14,15
 411 647 411 647 446 611 c 128,-1,16
 481 575 481 575 553 575 c 2,17,-1
 701 575 l 1,18,-1
 739 824 l 1,19,-1
 589 824 l 2,20,21
 521 824 521 824 474 784.5 c 128,-1,22
 427 745 427 745 420 697 c 0,14,15
EndSplineSet
Validated: 33
EndChar

StartChar: uni0452
Encoding: 1106 1106 510
Width: 1152
GlyphClass: 1
Flags: W
LayerCount: 2
Fore
SplineSet
642 1196 m 1,0,-1
 523 1196 l 1,1,-1
 487 955 l 1,2,3
 547 1026 547 1026 622.5 1064 c 128,-1,4
 698 1102 698 1102 784 1102 c 0,5,6
 946 1102 946 1102 1027.5 983.5 c 128,-1,7
 1109 865 1109 865 1072 622 c 2,8,-1
 1050 476 l 1,9,-1
 1051 476 l 1,10,-1
 978 -15 l 2,11,12
 946 -225 946 -225 823 -331 c 128,-1,13
 700 -437 700 -437 505 -437 c 0,14,15
 462 -437 462 -437 424 -433 c 128,-1,16
 386 -429 386 -429 347 -420 c 1,17,-1
 399 -165 l 1,18,19
 428 -171 428 -171 446.5 -174 c 128,-1,20
 465 -177 465 -177 497 -177 c 0,21,22
 552 -177 552 -177 589.5 -135 c 128,-1,23
 627 -93 627 -93 639 -15 c 2,24,-1
 641 0 l 1,25,-1
 658 117 l 1,26,-1
 712 476 l 1,27,-1
 735 624 l 2,28,29
 753 753 753 753 728.5 797.5 c 128,-1,30
 704 842 704 842 638 842 c 0,31,32
 582 842 582 842 538 824.5 c 128,-1,33
 494 807 494 807 460 775 c 1,34,-1
 344 0 l 1,35,-1
 6 0 l 1,36,-1
 185 1196 l 1,37,-1
 53 1196 l 1,38,-1
 85 1404 l 1,39,-1
 216 1404 l 1,40,-1
 240 1560 l 1,41,-1
 578 1560 l 1,42,-1
 554 1404 l 1,43,-1
 674 1404 l 1,44,-1
 642 1196 l 1,0,-1
EndSplineSet
Validated: 33
EndChar

StartChar: uni0454
Encoding: 1108 1108 512
Width: 1045
GlyphClass: 1
Flags: W
LayerCount: 2
Fore
SplineSet
515 239 m 0,0,1
 581 239 581 239 622 277 c 128,-1,2
 663 315 663 315 674 385 c 1,3,-1
 981 385 l 1,4,-1
 983 379 l 1,5,6
 959 195 959 195 817.5 87 c 128,-1,7
 676 -21 676 -21 476 -21 c 0,8,9
 239 -21 239 -21 123 133.5 c 128,-1,10
 7 288 7 288 44 529 c 1,11,-1
 48 552 l 1,12,13
 85 805 85 805 239.5 953.5 c 128,-1,14
 394 1102 394 1102 642 1102 c 0,15,16
 841 1102 841 1102 950.5 986 c 128,-1,17
 1060 870 1060 870 1027 673 c 1,18,-1
 1025 668 l 1,19,-1
 716 668 l 1,20,21
 728 748 728 748 700.5 795 c 128,-1,22
 673 842 673 842 603 842 c 0,23,24
 521 842 521 842 471 781 c 128,-1,25
 421 720 421 720 402 621 c 1,26,-1
 404 616 l 1,27,-1
 657 616 l 1,28,-1
 630 433 l 1,29,-1
 371 433 l 1,30,31
 367 338 367 338 400 288.5 c 128,-1,32
 433 239 433 239 515 239 c 0,0,1
EndSplineSet
Validated: 33
EndChar

StartChar: uni0459
Encoding: 1113 1113 517
Width: 1766
GlyphClass: 1
Flags: W
LayerCount: 2
Fore
SplineSet
1146 1082 m 1,0,-1
 1098 765 l 1,1,-1
 1271 765 l 2,2,3
 1492 765 1492 765 1614.5 658.5 c 128,-1,4
 1737 552 1737 552 1712 383 c 0,5,6
 1685 203 1685 203 1537 101.5 c 128,-1,7
 1389 0 1389 0 1156 0 c 2,8,-1
 646 0 l 1,9,-1
 769 822 l 1,10,-1
 577 822 l 1,11,-1
 547 621 l 2,12,13
 497 293 497 293 363 146.5 c 128,-1,14
 229 0 229 0 -29 0 c 2,15,-1
 -71 0 l 1,16,-1
 -39 261 l 1,17,-1
 -13 261 l 2,18,19
 66 261 66 261 124 351.5 c 128,-1,20
 182 442 182 442 209 621 c 2,21,-1
 278 1082 l 1,22,-1
 1146 1082 l 1,0,-1
1060 506 m 1,23,-1
 1023 258 l 1,24,-1
 1195 258 l 2,25,26
 1273 258 1273 258 1320.5 293 c 128,-1,27
 1368 328 1368 328 1377 385 c 0,28,29
 1385 441 1385 441 1350 473.5 c 128,-1,30
 1315 506 1315 506 1232 506 c 2,31,-1
 1060 506 l 1,23,-1
EndSplineSet
Validated: 33
EndChar

StartChar: uni045A
Encoding: 1114 1114 518
Width: 1761
GlyphClass: 1
Flags: W
LayerCount: 2
Fore
SplineSet
446 660 m 1,0,-1
 741 660 l 1,1,-1
 804 1082 l 1,2,-1
 1142 1082 l 1,3,-1
 1094 765 l 1,4,-1
 1266 765 l 2,5,6
 1488 765 1488 765 1610.5 658.5 c 128,-1,7
 1733 552 1733 552 1708 383 c 0,8,9
 1681 203 1681 203 1533 101.5 c 128,-1,10
 1385 0 1385 0 1151 0 c 2,11,-1
 642 0 l 1,12,-1
 702 401 l 1,13,-1
 407 401 l 1,14,-1
 347 0 l 1,15,-1
 10 0 l 1,16,-1
 172 1082 l 1,17,-1
 509 1082 l 1,18,-1
 446 660 l 1,0,-1
1056 506 m 1,19,-1
 1019 258 l 1,20,-1
 1190 258 l 2,21,22
 1268 258 1268 258 1316 293 c 128,-1,23
 1364 328 1364 328 1373 385 c 0,24,25
 1381 441 1381 441 1345.5 473.5 c 128,-1,26
 1310 506 1310 506 1227 506 c 2,27,-1
 1056 506 l 1,19,-1
EndSplineSet
Validated: 33
EndChar

StartChar: uni045B
Encoding: 1115 1115 519
Width: 1152
GlyphClass: 1
Flags: W
LayerCount: 2
Fore
SplineSet
821 1214 m 1,0,-1
 526 1214 l 1,1,-1
 487 955 l 1,2,3
 547 1026 547 1026 622.5 1064 c 128,-1,4
 698 1102 698 1102 784 1102 c 0,5,6
 946 1102 946 1102 1027.5 983.5 c 128,-1,7
 1109 865 1109 865 1072 622 c 2,8,-1
 979 0 l 1,9,-1
 641 0 l 1,10,-1
 735 624 l 2,11,12
 753 753 753 753 728.5 797.5 c 128,-1,13
 704 842 704 842 638 842 c 0,14,15
 582 842 582 842 538 824.5 c 128,-1,16
 494 807 494 807 460 775 c 1,17,-1
 344 0 l 1,18,-1
 6 0 l 1,19,-1
 188 1214 l 1,20,-1
 135 1214 l 1,21,-1
 164 1405 l 1,22,-1
 216 1405 l 1,23,-1
 240 1560 l 1,24,-1
 578 1560 l 1,25,-1
 554 1405 l 1,26,-1
 850 1405 l 1,27,-1
 821 1214 l 1,0,-1
EndSplineSet
Validated: 33
EndChar

StartChar: uni045F
Encoding: 1119 1119 523
Width: 1151
GlyphClass: 1
Flags: W
LayerCount: 2
Fore
SplineSet
509 1082 m 1,0,-1
 386 260 l 1,1,-1
 684 260 l 1,2,-1
 807 1082 l 1,3,-1
 1145 1082 l 1,4,-1
 983 0 l 1,5,-1
 664 0 l 1,6,-1
 610 -360 l 1,7,-1
 273 -360 l 1,8,-1
 327 0 l 1,9,-1
 10 0 l 1,10,-1
 172 1082 l 1,11,-1
 509 1082 l 1,0,-1
EndSplineSet
Validated: 1
EndChar

StartChar: uni0460
Encoding: 1120 1120 524
Width: 1980
GlyphClass: 1
Flags: W
LayerCount: 2
Fore
SplineSet
1230 1435 m 1,0,1
 1292 1455 1292 1455 1362 1466 c 128,-1,2
 1432 1477 1432 1477 1505 1477 c 0,3,4
 1728 1477 1728 1477 1856 1308.5 c 128,-1,5
 1984 1140 1984 1140 1945 880 c 2,6,-1
 1899 576 l 2,7,8
 1858 301 1858 301 1681.5 140 c 128,-1,9
 1505 -21 1505 -21 1259 -21 c 0,10,11
 1152 -21 1152 -21 1068.5 0 c 128,-1,12
 985 21 985 21 922 58 c 1,13,14
 848 20 848 20 757.5 -0.5 c 128,-1,15
 667 -21 667 -21 556 -21 c 0,16,17
 321 -21 321 -21 187.5 146.5 c 128,-1,18
 54 314 54 314 94 576 c 2,19,-1
 140 880 l 2,20,21
 181 1154 181 1154 353 1315.5 c 128,-1,22
 525 1477 525 1477 761 1477 c 0,23,24
 829 1477 829 1477 896.5 1466 c 128,-1,25
 964 1455 964 1455 1022 1435 c 1,26,-1
 923 1194 l 1,27,28
 885 1205 885 1205 837.5 1211 c 128,-1,29
 790 1217 790 1217 733 1217 c 0,30,31
 643 1217 643 1217 571 1123 c 128,-1,32
 499 1029 499 1029 477 882 c 2,33,-1
 431 576 l 2,34,35
 407 419 407 419 450 329 c 128,-1,36
 493 239 493 239 595 239 c 0,37,38
 668 239 668 239 712.5 254 c 128,-1,39
 757 269 757 269 785 294 c 1,40,-1
 823 544 l 1,41,-1
 640 544 l 1,42,-1
 673 768 l 1,43,-1
 1378 768 l 1,44,-1
 1345 544 l 1,45,-1
 1162 544 l 1,46,-1
 1124 294 l 1,47,48
 1146 268 1146 268 1183.5 253.5 c 128,-1,49
 1221 239 1221 239 1298 239 c 0,50,51
 1394 239 1394 239 1467 332.5 c 128,-1,52
 1540 426 1540 426 1562 576 c 2,53,-1
 1608 882 l 2,54,55
 1631 1036 1631 1036 1589 1126.5 c 128,-1,56
 1547 1217 1547 1217 1455 1217 c 0,57,58
 1399 1217 1399 1217 1347.5 1211 c 128,-1,59
 1296 1205 1296 1205 1256 1194 c 1,60,-1
 1230 1435 l 1,0,1
EndSplineSet
Validated: 33
EndChar

StartChar: uni0461
Encoding: 1121 1121 525
Width: 1486
GlyphClass: 1
Flags: W
LayerCount: 2
Fore
SplineSet
488 446 m 1,0,-1
 494 260 l 1,1,-1
 499 259 l 1,2,-1
 581 446 l 1,3,-1
 670 693 l 1,4,-1
 620 1082 l 1,5,-1
 953 1082 l 1,6,-1
 977 446 l 1,7,-1
 979 376 l 1,8,-1
 982 386 l 1,9,10
 1068 549 1068 549 1118 718 c 128,-1,11
 1168 887 1168 887 1197 1082 c 1,12,-1
 1551 1082 l 1,13,14
 1473 811 1473 811 1358.5 546 c 128,-1,15
 1244 281 1244 281 1093 0 c 1,16,-1
 760 0 l 1,17,-1
 726 260 l 1,18,-1
 720 261 l 1,19,-1
 593 0 l 1,20,-1
 272 0 l 1,21,-1
 82 1082 l 1,22,-1
 438 1082 l 1,23,-1
 488 446 l 1,0,-1
EndSplineSet
Validated: 1
EndChar

StartChar: uni0462
Encoding: 1122 1122 526
Width: 1278
GlyphClass: 1
Flags: W
LayerCount: 2
Fore
SplineSet
803 1085 m 1,0,-1
 537 1085 l 1,1,-1
 521 977 l 1,2,-1
 718 977 l 2,3,4
 967 977 967 977 1108.5 838.5 c 128,-1,5
 1250 700 1250 700 1218 489 c 0,6,7
 1184 266 1184 266 1008.5 133 c 128,-1,8
 833 0 833 0 571 0 c 2,9,-1
 36 0 l 1,10,-1
 198 1085 l 1,11,-1
 117 1085 l 1,12,-1
 145 1276 l 1,13,-1
 227 1276 l 1,14,-1
 254 1456 l 1,15,-1
 593 1456 l 1,16,-1
 566 1276 l 1,17,-1
 831 1276 l 1,18,-1
 803 1085 l 1,0,-1
482 717 m 1,19,-1
 414 260 l 1,20,-1
 610 260 l 2,21,22
 716 260 716 260 791.5 327.5 c 128,-1,23
 867 395 867 395 882 491 c 0,24,25
 896 588 896 588 843 652.5 c 128,-1,26
 790 717 790 717 679 717 c 2,27,-1
 482 717 l 1,19,-1
EndSplineSet
Validated: 33
EndChar

StartChar: uni0463
Encoding: 1123 1123 527
Width: 1157
GlyphClass: 1
Flags: W
LayerCount: 2
Fore
SplineSet
766 1122 m 1,0,-1
 544 1122 l 1,1,-1
 491 765 l 1,2,-1
 662 765 l 2,3,4
 884 765 884 765 1006.5 658.5 c 128,-1,5
 1129 552 1129 552 1104 383 c 0,6,7
 1077 203 1077 203 929 101.5 c 128,-1,8
 781 0 781 0 547 0 c 2,9,-1
 38 0 l 1,10,-1
 206 1122 l 1,11,-1
 89 1122 l 1,12,-1
 118 1313 l 1,13,-1
 234 1313 l 1,14,-1
 272 1562 l 1,15,-1
 610 1562 l 1,16,-1
 573 1313 l 1,17,-1
 795 1313 l 1,18,-1
 766 1122 l 1,0,-1
452 506 m 1,19,-1
 415 258 l 1,20,-1
 586 258 l 2,21,22
 664 258 664 258 712 293 c 128,-1,23
 760 328 760 328 769 385 c 0,24,25
 777 441 777 441 741.5 473.5 c 128,-1,26
 706 506 706 506 623 506 c 2,27,-1
 452 506 l 1,19,-1
EndSplineSet
Validated: 33
EndChar

StartChar: uni0464
Encoding: 1124 1124 528
Width: 1824
GlyphClass: 1
Flags: W
LayerCount: 2
Fore
SplineSet
1218 598 m 1,0,-1
 904 598 l 1,1,-1
 901 577 l 2,2,3
 877 419 877 419 930 329.5 c 128,-1,4
 983 240 983 240 1109 240 c 0,5,6
 1220 240 1220 240 1283 299 c 128,-1,7
 1346 358 1346 358 1366 492 c 1,8,-1
 1694 492 l 1,9,-1
 1696 486 l 1,10,11
 1661 227 1661 227 1500 103.5 c 128,-1,12
 1339 -20 1339 -20 1070 -20 c 0,13,14
 811 -20 811 -20 667 146.5 c 128,-1,15
 523 313 523 313 563 577 c 2,16,-1
 566 598 l 1,17,-1
 484 598 l 1,18,-1
 395 0 l 1,19,-1
 58 0 l 1,20,-1
 276 1456 l 1,21,-1
 613 1456 l 1,22,-1
 523 859 l 1,23,-1
 604 859 l 1,24,-1
 608 881 l 1,25,26
 649 1157 649 1157 829.5 1317.5 c 128,-1,27
 1010 1478 1010 1478 1272 1478 c 0,28,29
 1539 1478 1539 1478 1675.5 1348 c 128,-1,30
 1812 1218 1812 1218 1772 974 c 1,31,-1
 1769 968 l 1,32,-1
 1439 968 l 1,33,34
 1460 1107 1460 1107 1412.5 1162.5 c 128,-1,35
 1365 1218 1365 1218 1233 1218 c 0,36,37
 1124 1218 1124 1218 1046 1125.5 c 128,-1,38
 968 1033 968 1033 946 883 c 2,39,-1
 942 859 l 1,40,-1
 1257 859 l 1,41,-1
 1218 598 l 1,0,-1
EndSplineSet
Validated: 33
EndChar

StartChar: uni0465
Encoding: 1125 1125 529
Width: 1554
GlyphClass: 1
Flags: W
LayerCount: 2
Fore
SplineSet
1110 464 m 1,0,-1
 799 464 l 1,1,2
 790 355 790 355 821 297 c 128,-1,3
 852 239 852 239 941 239 c 0,4,5
 1007 239 1007 239 1048 277 c 128,-1,6
 1089 315 1089 315 1100 385 c 1,7,-1
 1407 385 l 1,8,-1
 1409 379 l 1,9,10
 1385 195 1385 195 1243.5 87 c 128,-1,11
 1102 -21 1102 -21 902 -21 c 0,12,13
 682 -21 682 -21 565.5 113.5 c 128,-1,14
 449 248 449 248 463 464 c 1,15,-1
 449 464 l 1,16,-1
 380 0 l 1,17,-1
 41 0 l 1,18,-1
 203 1082 l 1,19,-1
 542 1082 l 1,20,-1
 478 655 l 1,21,-1
 495 655 l 1,22,23
 551 863 551 863 698.5 982.5 c 128,-1,24
 846 1102 846 1102 1068 1102 c 0,25,26
 1267 1102 1267 1102 1376.5 986 c 128,-1,27
 1486 870 1486 870 1453 673 c 1,28,-1
 1451 668 l 1,29,-1
 1142 668 l 1,30,31
 1154 748 1154 748 1126.5 795 c 128,-1,32
 1099 842 1099 842 1029 842 c 0,33,34
 955 842 955 842 907.5 792 c 128,-1,35
 860 742 860 742 839 661 c 1,36,-1
 841 655 l 1,37,-1
 1138 655 l 1,38,-1
 1110 464 l 1,0,-1
EndSplineSet
Validated: 33
EndChar

StartChar: uni0466
Encoding: 1126 1126 530
Width: 1401
GlyphClass: 1
Flags: W
LayerCount: 2
Fore
SplineSet
888 366 m 1,0,-1
 799 366 l 1,1,-1
 745 0 l 1,2,-1
 476 0 l 1,3,-1
 530 366 l 1,4,-1
 454 366 l 1,5,-1
 281 0 l 1,6,-1
 -75 0 l 1,7,-1
 652 1456 l 1,8,-1
 1016 1456 l 1,9,-1
 1308 0 l 1,10,-1
 952 0 l 1,11,-1
 888 366 l 1,0,-1
557 584 m 1,12,-1
 849 584 l 1,13,-1
 772 1024 l 1,14,-1
 766 1025 l 1,15,-1
 557 584 l 1,12,-1
EndSplineSet
Validated: 1
EndChar

StartChar: uni0467
Encoding: 1127 1127 531
Width: 1171
GlyphClass: 1
Flags: W
LayerCount: 2
Fore
SplineSet
687 262 m 1,0,-1
 622 262 l 1,1,-1
 583 0 l 1,2,-1
 396 0 l 1,3,-1
 435 262 l 1,4,-1
 387 262 l 1,5,-1
 268 0 l 1,6,-1
 -76 0 l 1,7,-1
 478 1082 l 1,8,-1
 843 1082 l 1,9,-1
 1072 0 l 1,10,-1
 729 0 l 1,11,-1
 687 262 l 1,0,-1
478 460 m 1,12,-1
 656 460 l 1,13,-1
 628 635 l 1,14,-1
 617 773 l 1,15,-1
 611 774 l 1,16,-1
 558 635 l 1,17,-1
 478 460 l 1,12,-1
EndSplineSet
Validated: 1
EndChar

StartChar: uni0468
Encoding: 1128 1128 532
Width: 1976
GlyphClass: 1
Flags: W
LayerCount: 2
Fore
SplineSet
500 584 m 1,0,-1
 745 584 l 1,1,-1
 1181 1456 l 1,2,-1
 1545 1456 l 1,3,-1
 1837 0 l 1,4,-1
 1481 0 l 1,5,-1
 1417 366 l 1,6,-1
 1328 366 l 1,7,-1
 1274 0 l 1,8,-1
 1005 0 l 1,9,-1
 1059 366 l 1,10,-1
 983 366 l 1,11,-1
 810 0 l 1,12,-1
 454 0 l 1,13,-1
 635 364 l 1,14,-1
 467 364 l 1,15,-1
 413 0 l 1,16,-1
 76 0 l 1,17,-1
 294 1456 l 1,18,-1
 631 1456 l 1,19,-1
 500 584 l 1,0,-1
1086 584 m 1,20,-1
 1378 584 l 1,21,-1
 1301 1024 l 1,22,-1
 1295 1025 l 1,23,-1
 1086 584 l 1,20,-1
EndSplineSet
Validated: 1
EndChar

StartChar: uni0469
Encoding: 1129 1129 533
Width: 1682
GlyphClass: 1
Flags: W
LayerCount: 2
Fore
SplineSet
1134 262 m 1,0,-1
 1069 262 l 1,1,-1
 1030 0 l 1,2,-1
 843 0 l 1,3,-1
 882 262 l 1,4,-1
 834 262 l 1,5,-1
 715 0 l 1,6,-1
 76 0 l 1,7,-1
 115 263 l 1,8,-1
 113 263 l 1,9,-1
 143 459 l 1,10,-1
 145 459 l 1,11,-1
 238 1082 l 1,12,-1
 577 1082 l 1,13,-1
 483 459 l 1,14,-1
 606 459 l 1,15,-1
 925 1082 l 1,16,-1
 1290 1082 l 1,17,-1
 1519 0 l 1,18,-1
 1176 0 l 1,19,-1
 1134 262 l 1,0,-1
925 460 m 1,20,-1
 1103 460 l 1,21,-1
 1075 635 l 1,22,-1
 1064 773 l 1,23,-1
 1058 774 l 1,24,-1
 1005 635 l 1,25,-1
 925 460 l 1,20,-1
454 263 m 1,26,-1
 436 139 l 1,27,-1
 441 138 l 1,28,-1
 505 263 l 1,29,-1
 454 263 l 1,26,-1
EndSplineSet
Validated: 1
EndChar

StartChar: uni046A
Encoding: 1130 1130 534
Width: 1795
GlyphClass: 1
Flags: W
LayerCount: 2
Fore
SplineSet
1247 796 m 1,0,1
 1479 782 1479 782 1590.5 670 c 128,-1,2
 1702 558 1702 558 1669 330 c 2,3,-1
 1619 0 l 1,4,-1
 1282 0 l 1,5,-1
 1332 330 l 2,6,7
 1349 449 1349 449 1303.5 491.5 c 128,-1,8
 1258 534 1258 534 1140 534 c 2,9,-1
 1084 534 l 1,10,-1
 1004 0 l 1,11,-1
 666 0 l 1,12,-1
 746 534 l 1,13,-1
 654 534 l 2,14,15
 541 534 541 534 480 488.5 c 128,-1,16
 419 443 419 443 403 330 c 2,17,-1
 353 0 l 1,18,-1
 16 0 l 1,19,-1
 66 330 l 2,20,21
 102 581 102 581 251 687 c 128,-1,22
 400 793 400 793 668 798 c 1,23,-1
 398 1456 l 1,24,-1
 1716 1456 l 1,25,-1
 1247 796 l 1,0,1
968 861 m 1,26,-1
 1180 1192 l 1,27,-1
 854 1192 l 1,28,-1
 968 861 l 1,26,-1
EndSplineSet
Validated: 33
EndChar

StartChar: uni046B
Encoding: 1131 1131 535
Width: 1493
GlyphClass: 1
Flags: W
LayerCount: 2
Fore
SplineSet
1049 608 m 1,0,1
 1218 582 1218 582 1298.5 480.5 c 128,-1,2
 1379 379 1379 379 1351 190 c 2,3,-1
 1322 0 l 1,4,-1
 985 0 l 1,5,-1
 1014 190 l 2,6,7
 1029 293 1029 293 1001 331 c 128,-1,8
 973 369 973 369 900 366 c 1,9,-1
 894 365 l 1,10,-1
 840 0 l 1,11,-1
 503 0 l 1,12,-1
 557 364 l 1,13,-1
 551 366 l 1,14,15
 477 370 477 370 434 330.5 c 128,-1,16
 391 291 391 291 376 190 c 2,17,-1
 347 0 l 1,18,-1
 10 0 l 1,19,-1
 39 190 l 2,20,21
 69 395 69 395 179 493.5 c 128,-1,22
 289 592 289 592 481 611 c 1,23,-1
 279 1082 l 1,24,-1
 1394 1082 l 1,25,-1
 1049 608 l 1,0,1
768 650 m 1,26,-1
 774 649 l 1,27,-1
 911 880 l 1,28,-1
 700 880 l 1,29,-1
 768 650 l 1,26,-1
EndSplineSet
Validated: 33
EndChar

StartChar: uni046C
Encoding: 1132 1132 536
Width: 2409
GlyphClass: 1
Flags: W
LayerCount: 2
Fore
SplineSet
1314 535 m 1,0,-1
 317 535 l 1,1,-1
 357 799 l 1,2,-1
 1354 799 l 1,3,-1
 1314 535 l 1,0,-1
394 0 m 1,4,-1
 57 0 l 1,5,-1
 275 1456 l 1,6,-1
 612 1456 l 1,7,-1
 394 0 l 1,4,-1
1814 796 m 1,8,9
 2046 782 2046 782 2157.5 670 c 128,-1,10
 2269 558 2269 558 2236 330 c 2,11,-1
 2186 0 l 1,12,-1
 1849 0 l 1,13,-1
 1899 330 l 2,14,15
 1916 449 1916 449 1870.5 491.5 c 128,-1,16
 1825 534 1825 534 1707 534 c 2,17,-1
 1651 534 l 1,18,-1
 1571 0 l 1,19,-1
 1233 0 l 1,20,-1
 1313 534 l 1,21,-1
 1221 534 l 2,22,23
 1108 534 1108 534 1047 488.5 c 128,-1,24
 986 443 986 443 970 330 c 2,25,-1
 920 0 l 1,26,-1
 583 0 l 1,27,-1
 633 330 l 2,28,29
 669 581 669 581 818 687 c 128,-1,30
 967 793 967 793 1235 798 c 1,31,-1
 965 1456 l 1,32,-1
 2283 1456 l 1,33,-1
 1814 796 l 1,8,9
1535 861 m 1,34,-1
 1747 1192 l 1,35,-1
 1421 1192 l 1,36,-1
 1535 861 l 1,34,-1
EndSplineSet
Validated: 37
EndChar

StartChar: uni046D
Encoding: 1133 1133 537
Width: 2080
GlyphClass: 1
Flags: W
LayerCount: 2
Fore
SplineSet
1181 384 m 1,0,-1
 196 384 l 1,1,-1
 231 617 l 1,2,-1
 1216 617 l 1,3,-1
 1181 384 l 1,0,-1
382 0 m 1,4,-1
 43 0 l 1,5,-1
 205 1082 l 1,6,-1
 544 1082 l 1,7,-1
 382 0 l 1,4,-1
1555 608 m 1,8,9
 1724 582 1724 582 1804.5 480.5 c 128,-1,10
 1885 379 1885 379 1857 190 c 2,11,-1
 1828 0 l 1,12,-1
 1491 0 l 1,13,-1
 1520 190 l 2,14,15
 1535 293 1535 293 1507 331 c 128,-1,16
 1479 369 1479 369 1406 366 c 1,17,-1
 1400 365 l 1,18,-1
 1346 0 l 1,19,-1
 1009 0 l 1,20,-1
 1063 364 l 1,21,-1
 1057 366 l 1,22,23
 983 370 983 370 940 330.5 c 128,-1,24
 897 291 897 291 882 190 c 2,25,-1
 853 0 l 1,26,-1
 516 0 l 1,27,-1
 545 190 l 2,28,29
 575 395 575 395 685 493.5 c 128,-1,30
 795 592 795 592 987 611 c 1,31,-1
 785 1082 l 1,32,-1
 1900 1082 l 1,33,-1
 1555 608 l 1,8,9
1274 650 m 1,34,-1
 1280 649 l 1,35,-1
 1417 880 l 1,36,-1
 1206 880 l 1,37,-1
 1274 650 l 1,34,-1
EndSplineSet
Validated: 37
EndChar

StartChar: uni046E
Encoding: 1134 1134 538
Width: 1048
GlyphClass: 1
Flags: W
LayerCount: 2
Fore
SplineSet
275 880 m 1,0,-1
 429 880 l 2,1,2
 519 880 519 880 572.5 925 c 128,-1,3
 626 970 626 970 637 1043 c 256,4,5
 648 1116 648 1116 604 1151 c 128,-1,6
 560 1186 560 1186 455 1186 c 2,7,-1
 216 1186 l 1,8,-1
 256 1456 l 1,9,-1
 495 1456 l 2,10,11
 754 1456 754 1456 882 1365.5 c 128,-1,12
 1010 1275 1010 1275 981 1082 c 0,13,14
 961 951 961 951 891.5 867.5 c 128,-1,15
 822 784 822 784 708 742 c 1,16,17
 834 697 834 697 894.5 612 c 128,-1,18
 955 527 955 527 937 408 c 0,19,20
 905 197 905 197 750 88 c 128,-1,21
 595 -21 595 -21 352 -21 c 2,22,-1
 290 -21 l 2,23,24
 242 -21 242 -21 213.5 -45 c 128,-1,25
 185 -69 185 -69 180 -110 c 0,26,27
 170 -166 170 -166 204 -198 c 128,-1,28
 238 -230 238 -230 294 -255 c 1,29,-1
 183 -448 l 1,30,31
 2 -416 2 -416 -68 -315 c 128,-1,32
 -138 -214 -138 -214 -117 -58 c 0,33,34
 -93 99 -93 99 13.5 174.5 c 128,-1,35
 120 250 120 250 294 250 c 2,36,-1
 369 250 l 2,37,38
 461 250 461 250 524.5 293 c 128,-1,39
 588 336 588 336 599 404 c 0,40,41
 614 507 614 507 557.5 558 c 128,-1,42
 501 609 501 609 377 609 c 2,43,-1
 234 609 l 1,44,-1
 261 786 l 1,45,-1
 275 880 l 1,0,-1
765 1803 m 1,46,-1
 884 1919 l 1,47,-1
 1193 1919 l 1,48,-1
 1191 1903 l 1,49,-1
 860 1643 l 1,50,-1
 621 1643 l 1,51,-1
 366 1905 l 1,52,-1
 368 1919 l 1,53,-1
 680 1919 l 1,54,-1
 765 1803 l 1,46,-1
EndSplineSet
Validated: 33
EndChar

StartChar: uni046F
Encoding: 1135 1135 539
Width: 1057
GlyphClass: 1
Flags: W
LayerCount: 2
Fore
SplineSet
238 630 m 1,0,-1
 416 630 l 2,1,2
 486 630 486 630 526.5 663.5 c 128,-1,3
 567 697 567 697 576 752 c 0,4,5
 583 802 583 802 541.5 827.5 c 128,-1,6
 500 853 500 853 405 853 c 2,7,-1
 166 853 l 1,8,-1
 200 1082 l 1,9,-1
 439 1082 l 2,10,11
 689 1082 689 1082 815.5 1011.5 c 128,-1,12
 942 941 942 941 920 790 c 0,13,14
 906 697 906 697 852.5 634.5 c 128,-1,15
 799 572 799 572 711 537 c 1,16,17
 814 503 814 503 864 443.5 c 128,-1,18
 914 384 914 384 903 304 c 0,19,20
 878 145 878 145 738 62 c 128,-1,21
 598 -21 598 -21 374 -21 c 2,22,-1
 325 -21 l 2,23,24
 264 -21 264 -21 230.5 -45 c 128,-1,25
 197 -69 197 -69 192 -110 c 0,26,27
 182 -166 182 -166 209.5 -198 c 128,-1,28
 237 -230 237 -230 283 -255 c 1,29,-1
 175 -427 l 1,30,31
 39 -386 39 -386 -30.5 -287.5 c 128,-1,32
 -100 -189 -100 -189 -83 -58 c 0,33,34
 -62 78 -62 78 31 143 c 128,-1,35
 124 208 124 208 276 208 c 2,36,-1
 340 208 l 2,37,38
 433 208 433 208 496.5 239 c 128,-1,39
 560 270 560 270 568 320 c 0,40,41
 576 381 576 381 527.5 412 c 128,-1,42
 479 443 479 443 376 443 c 2,43,-1
 209 443 l 1,44,-1
 216 489 l 1,45,-1
 230 578 l 1,46,-1
 238 630 l 1,0,-1
641 1459 m 1,47,-1
 760 1575 l 1,48,-1
 1069 1575 l 1,49,-1
 1067 1559 l 1,50,-1
 736 1299 l 1,51,-1
 497 1299 l 1,52,-1
 242 1561 l 1,53,-1
 244 1575 l 1,54,-1
 556 1575 l 1,55,-1
 641 1459 l 1,47,-1
EndSplineSet
Validated: 33
EndChar

